<svg xmlns="http://www.w3.org/2000/svg" width="355.139" height="281.505" viewBox="0 0 355.139 281.505">
  <g id="Grupo_57970" data-name="Grupo 57970" transform="translate(-890.472 -154.953)">
    <g id="docker" transform="translate(946.603 154.953)">
      <path id="Trazado_103446" data-name="Trazado 103446" d="M95.167,47.583a49.14,49.14,0,1,1-.008-.81C95.165,47.043,95.167,47.313,95.167,47.583Z" fill="#1565c0"/>
      <g id="Grupo_57775" data-name="Grupo 57775" transform="translate(10.102 18.915)">
        <path id="Trazado_103447" data-name="Trazado 103447" d="M139.4,180.628c-4.063,4.949-12.024,4.562-12.024,4.562-4.91,21.152-34.561,31.918-55.148,26.629s-17.753-29.84-17.753-29.84h60.248c4.972,0,5.351-1.511,5.351-1.511-4.407-10.451,2.393-16.054,2.393-16.054,5.289.946,6.609,10.01,6.609,10.01a17.646,17.646,0,0,1,9.959,1.039A47.173,47.173,0,0,1,139.4,180.628Z" transform="translate(-54.347 -152.77)" fill="#f2f2f2"/>
        <rect id="Rectángulo_7084" data-name="Rectángulo 7084" width="8.437" height="7.68" transform="translate(6.553 19.641)" fill="#f2f2f2"/>
        <rect id="Rectángulo_7085" data-name="Rectángulo 7085" width="8.437" height="7.68" transform="translate(17.155 19.641)" fill="#f2f2f2"/>
        <rect id="Rectángulo_7086" data-name="Rectángulo 7086" width="8.437" height="7.68" transform="translate(48.958 19.641)" fill="#f2f2f2"/>
        <rect id="Rectángulo_7087" data-name="Rectángulo 7087" width="8.437" height="7.68" transform="translate(38.358 19.641)" fill="#f2f2f2"/>
        <rect id="Rectángulo_7088" data-name="Rectángulo 7088" width="8.437" height="7.68" transform="translate(38.358)" fill="#f2f2f2"/>
        <rect id="Rectángulo_7089" data-name="Rectángulo 7089" width="8.437" height="7.68" transform="translate(27.755 19.641)" fill="#f2f2f2"/>
        <rect id="Rectángulo_7090" data-name="Rectángulo 7090" width="8.437" height="7.68" transform="translate(17.155 9.82)" fill="#f2f2f2"/>
        <rect id="Rectángulo_7091" data-name="Rectángulo 7091" width="8.437" height="7.68" transform="translate(38.358 9.82)" fill="#f2f2f2"/>
        <rect id="Rectángulo_7092" data-name="Rectángulo 7092" width="8.437" height="7.68" transform="translate(27.755 9.82)" fill="#f2f2f2"/>
      </g>
    </g>
    <g id="Grupo_57776" data-name="Grupo 57776" transform="translate(890.472 181.433)">
      <text id="_" data-name="&lt;/&gt;" transform="translate(98.825 139.823)" fill="#21214b" font-size="15" font-family="Montserrat-Black, Montserrat" font-weight="800"><tspan x="0" y="0">&lt;/&gt;</tspan></text>
      <g id="Grupo_57724" data-name="Grupo 57724" transform="translate(50.77 35.414)">
        <path id="Trazado_103371" data-name="Trazado 103371" d="M423.729,199.253c-.946,20.722-21.315,36.6-36.573,37.558-20.16,1.268-34.566-16.913-36.573-37.558-1.739-17.886,4.612-17.62,9.344-25.075,5.732-9.033,16.414-14.025,27.23-14.025C407.355,160.154,425,171.374,423.729,199.253Z" transform="translate(-278.087 -153.838)" fill="#21214b"/>
        <rect id="Rectángulo_6992" data-name="Rectángulo 6992" width="28.347" height="35.488" transform="translate(94.896 81.039)" fill="#e3b5aa"/>
        <g id="Grupo_57717" data-name="Grupo 57717" transform="translate(138.265 54.589)">
          <g id="Grupo_57716" data-name="Grupo 57716">
            <path id="Trazado_103372" data-name="Trazado 103372" d="M457.075,242c5.057-7.673,11.49-8.01,14.177,1.065s-6.181,16.543-13.4,13.787S457.075,242,457.075,242Z" transform="translate(-454.429 -236.249)" fill="#e3b5aa"/>
            <path id="Trazado_103373" data-name="Trazado 103373" d="M466.681,245.615c3.387-.62,5.123,9.472-2.305,9.8L465.9,251.9l-1.434-2.929Z" transform="translate(-458.066 -239.664)" fill="#d78f97"/>
            <path id="Trazado_103374" data-name="Trazado 103374" d="M462.625,256.207c4.33-4.614,1.2-7.834,1.2-7.834s4.121-8.452,5.773-1.974" transform="translate(-457.426 -239.067)" fill="none" stroke="#c87e84" stroke-miterlimit="10" stroke-width="0.5"/>
          </g>
        </g>
        <g id="Grupo_57719" data-name="Grupo 57719" transform="translate(62.323 54.589)">
          <g id="Grupo_57718" data-name="Grupo 57718">
            <path id="Trazado_103375" data-name="Trazado 103375" d="M349.383,242c-5.057-7.673-11.49-8.01-14.177,1.065s6.18,16.543,13.4,13.787S349.383,242,349.383,242Z" transform="translate(-334.715 -236.249)" fill="#e3b5aa"/>
            <path id="Trazado_103376" data-name="Trazado 103376" d="M346.753,245.615c-3.387-.62-5.123,9.472,2.305,9.8l-1.528-3.521,1.434-2.929Z" transform="translate(-338.054 -239.664)" fill="#d78f97"/>
            <path id="Trazado_103377" data-name="Trazado 103377" d="M349.791,256.207c-4.33-4.614-1.2-7.834-1.2-7.834s-4.122-8.452-5.773-1.974" transform="translate(-337.676 -239.067)" fill="none" stroke="#c87e84" stroke-miterlimit="10" stroke-width="0.5"/>
          </g>
        </g>
        <path id="Trazado_103378" data-name="Trazado 103378" d="M414.41,279.182v13.2c-10.187,13.8-28.348,9.316-28.348,9.316l.318-22.518Z" transform="translate(-291.166 -197.358)" fill="#c87e84"/>
        <path id="Rectángulo_6993" data-name="Rectángulo 6993" d="M20.695,0h19.89A20.695,20.695,0,0,1,61.28,20.695v22.39a30.64,30.64,0,0,1-30.64,30.64h0A30.64,30.64,0,0,1,0,43.085V20.695A20.695,20.695,0,0,1,20.695,0Z" transform="translate(78.429 23.226)" fill="#e3b5aa"/>
        <path id="Trazado_103379" data-name="Trazado 103379" d="M410.4,261.043a4.714,4.714,0,0,1-9.429,0" transform="translate(-296.619 -190.726)" fill="none" stroke="#b83d5d" stroke-miterlimit="10" stroke-width="1"/>
        <path id="Trazado_103380" data-name="Trazado 103380" d="M364.038,179.322s-5.367-8.9,1.355-16.739C365.393,162.583,370.223,171.525,364.038,179.322Z" transform="translate(-282.372 -154.726)" fill="#21214b"/>
        <path id="Trazado_103381" data-name="Trazado 103381" d="M359.926,184.814s-7.473,7.217-16.619,2.416C343.307,187.23,350.945,180.527,359.926,184.814Z" transform="translate(-275.534 -162.331)" fill="#21214b"/>
        <path id="Trazado_103382" data-name="Trazado 103382" d="M386.447,241.062c0,2.534-1.079,4.587-2.411,4.587s-2.41-2.053-2.41-4.587,1.079-4.587,2.41-4.587S386.447,238.529,386.447,241.062Z" transform="translate(-289.544 -181.743)" fill="#21214b"/>
        <ellipse id="Elipse_1543" data-name="Elipse 1543" cx="12.321" cy="12.321" rx="12.321" ry="12.321" transform="translate(78.125 67.638) rotate(-74.8)" fill="none" stroke="#fff" stroke-miterlimit="10" stroke-width="4"/>
        <path id="Trazado_103383" data-name="Trazado 103383" d="M432.406,241.062c0,2.534-1.079,4.587-2.41,4.587s-2.411-2.053-2.411-4.587,1.079-4.587,2.411-4.587S432.406,238.529,432.406,241.062Z" transform="translate(-306.349 -181.743)" fill="#21214b"/>
        <ellipse id="Elipse_1544" data-name="Elipse 1544" cx="12.321" cy="12.321" rx="12.321" ry="12.321" transform="translate(109.73 67.563) rotate(-74.518)" fill="none" stroke="#fff" stroke-miterlimit="10" stroke-width="4"/>
        <path id="Trazado_103384" data-name="Trazado 103384" d="M366.091,189.71s19.466-10.262,32.4-2.824,14.389,22.8,27.162,18.822c0,0,9.7-4.271-.971-19.145s-17.971-17.785-31.863-14.551S369.888,177.759,366.091,189.71Z" transform="translate(-283.864 -157.74)" fill="#21214b"/>
        <path id="Trazado_103385" data-name="Trazado 103385" d="M364.918,193.979s6.426-8.52,15.42-10.772,18.942,8.811,18.942,8.811S376.235,188.733,364.918,193.979Z" transform="translate(-283.435 -162.156)" fill="#10102b"/>
        <path id="Trazado_103386" data-name="Trazado 103386" d="M359.367,217.255s2.168,15.812,0,25.461C359.367,242.716,356.2,218.2,359.367,217.255Z" transform="translate(-280.891 -174.716)" fill="#21214b"/>
        <path id="Trazado_103387" data-name="Trazado 103387" d="M455.8,217.255s-2.168,15.812,0,25.461C455.8,242.716,458.968,218.2,455.8,217.255Z" transform="translate(-316.312 -174.716)" fill="#21214b"/>
        <path id="Trazado_103388" data-name="Trazado 103388" d="M385.249,214.266c-3.343-1.6-9.29-3.358-14.8.567a1.285,1.285,0,0,0,.545,2.3,41.291,41.291,0,0,0,7.173.6,30.433,30.433,0,0,0,6.844-1.071A1.285,1.285,0,0,0,385.249,214.266Z" transform="translate(-285.264 -172.961)" fill="#21214b"/>
        <path id="Trazado_103389" data-name="Trazado 103389" d="M436.145,214.266c-3.344-1.6-9.29-3.358-14.8.567a1.285,1.285,0,0,0,.545,2.3,41.291,41.291,0,0,0,7.173.6,30.438,30.438,0,0,0,6.844-1.071A1.286,1.286,0,0,0,436.145,214.266Z" transform="translate(-303.874 -172.961)" fill="#21214b"/>
        <g id="Grupo_57721" data-name="Grupo 57721" transform="translate(97.308 78.63)">
          <g id="Grupo_57720" data-name="Grupo 57720">
            <path id="Trazado_103390" data-name="Trazado 103390" d="M411.99,276.9a10.146,10.146,0,0,1-1.208,1.75c-1.638,1.972-4.419,3.865-9.184,3.953l-.008.02-.35-.006-.013-.029c-4.467-.088-7.22-1.769-8.881-3.625a9.979,9.979,0,0,1-1.481-2.1,10.355,10.355,0,0,1-1-2.722l23.136.044A9.451,9.451,0,0,1,411.99,276.9Z" transform="translate(-389.865 -274.147)" fill="#c33e5d"/>
          </g>
          <path id="Trazado_103391" data-name="Trazado 103391" d="M411.99,276.9a10.146,10.146,0,0,1-1.208,1.75,21.767,21.767,0,0,0-18.435.314,9.979,9.979,0,0,1-1.481-2.1,10.355,10.355,0,0,1-1-2.722l23.136.044A9.451,9.451,0,0,1,411.99,276.9Z" transform="translate(-389.865 -274.147)" fill="#21214b"/>
        </g>
        <path id="Trazado_103392" data-name="Trazado 103392" d="M443.884,419.932l-207.413.216s3.87-8.095,9.439-18.822c.412-.793.837-1.6,1.269-2.43,7.606-14.507,17.838-32.835,25.825-42.775,9.2-11.443,30.932-19.6,45.694-24.062,8.6-2.594,14.832-3.932,14.832-3.932h23.827s5.6,1.2,13.5,3.54c14.749,4.357,36.8,13.3,47.026,24.454a54.582,54.582,0,0,1,6.337,8.7C436.8,385.733,443.884,419.932,443.884,419.932Z" transform="translate(-236.471 -215.254)" fill="#ffca28"/>
        <path id="Trazado_103393" data-name="Trazado 103393" d="M443.884,441.08l-207.413.216s3.87-8.095,9.439-18.822c103.5,30.426,158.048-19.436,170.495-32.933a11,11,0,0,1,7.763-3.573h.05C436.8,406.881,443.884,441.08,443.884,441.08Z" transform="translate(-236.471 -236.402)" fill="#ffa726" opacity="0.5"/>
        <line id="Línea_109" data-name="Línea 109" x2="6.508" transform="translate(105.815 61.073)" fill="none" stroke="#fff" stroke-miterlimit="10" stroke-width="4"/>
        <path id="Trazado_103394" data-name="Trazado 103394" d="M418.248,331.662c-25.675,28.249-52.157.4-52.157.4,8.6-2.6,14.834-3.939,14.834-3.939h23.826S410.345,329.325,418.248,331.662Z" transform="translate(-283.864 -215.252)" fill="#e3b5aa"/>
        <g id="Grupo_57722" data-name="Grupo 57722" transform="translate(43.73 172.717)">
          <line id="Línea_110" data-name="Línea 110" y2="32.216" transform="translate(8.65)" fill="none" stroke="#dc831e" stroke-miterlimit="10" stroke-width="3"/>
          <line id="Línea_111" data-name="Línea 111" x1="8.65" y1="11.029" transform="translate(0 9.504)" fill="none" stroke="#dc831e" stroke-miterlimit="10" stroke-width="3"/>
        </g>
        <g id="Grupo_57723" data-name="Grupo 57723" transform="translate(165.172 172.717)">
          <line id="Línea_112" data-name="Línea 112" y2="32.216" fill="none" stroke="#dc831e" stroke-miterlimit="10" stroke-width="3"/>
          <line id="Línea_113" data-name="Línea 113" y1="9.793" x2="7.681" transform="translate(0 10.74)" fill="none" stroke="#dc831e" stroke-miterlimit="10" stroke-width="3"/>
        </g>
        <path id="Trazado_103395" data-name="Trazado 103395" d="M364.153,353.049s31.835,21.741,53.386-1.056" transform="translate(-283.156 -223.98)" fill="none" stroke="#dc831e" stroke-miterlimit="10" stroke-width="3"/>
        <path id="Trazado_103396" data-name="Trazado 103396" d="M364.81,168.844c7.148-30.043,78.76-26.737,65.434,31.756-3.991,17.522-33.177-39.829-58.367-25.759a4.951,4.951,0,0,1-5.8-.695h0A5.358,5.358,0,0,1,364.81,168.844Z" transform="translate(-283.322 -150.198)" fill="#21214b"/>
      </g>
      <g id="Grupo_57726" data-name="Grupo 57726" transform="translate(4.17 163.55)">
        <g id="Grupo_57725" data-name="Grupo 57725">
          <path id="Trazado_103397" data-name="Trazado 103397" d="M330.433,428.749a.23.23,0,0,1-.07.013,4.971,4.971,0,0,1-.527.025H190.917a5.845,5.845,0,0,1-5.836-5.842l-.019-.063L163.43,361.759a7.175,7.175,0,0,1,6.762-9.573h90.194a7.177,7.177,0,0,1,6.769,4.784l23.313,65.86.038.114H329.97C333.593,422.944,333.992,428.361,330.433,428.749Z" transform="translate(-163.011 -352.186)" fill="#1fa4b5"/>
          <ellipse id="Elipse_1545" data-name="Elipse 1545" cx="10.459" cy="12.699" rx="10.459" ry="12.699" transform="translate(39.91 31.693) rotate(-18.978)" fill="#4dd0e1"/>
          <path id="Trazado_103398" data-name="Trazado 103398" d="M384.359,422.944H344.892s-.011-.04-.034-.114l-23.316-65.861a7.174,7.174,0,0,0-6.767-4.78h-3.016s6.739.44,8.424,6.471,24.709,70,24.709,70l1.7.126h37.628c.183,0,.36-.006.531-.023C388.384,428.432,388,422.944,384.359,422.944Z" transform="translate(-217.398 -352.187)" fill="#4b7195"/>
        </g>
        <path id="Trazado_103399" data-name="Trazado 103399" d="M343.889,428.749a.229.229,0,0,1-.07.013,4.971,4.971,0,0,1-.527.025H204.372a5.815,5.815,0,0,1-4.561-2.2c82.113,7.054,74.031-74.4,74.031-74.4a7.177,7.177,0,0,1,6.769,4.784l23.313,65.86.038.114H342.8C343.222,424.866,343.59,426.8,343.889,428.749Z" transform="translate(-176.467 -352.186)" fill="#178491" opacity="0.969"/>
      </g>
      <g id="Grupo_57736" data-name="Grupo 57736" transform="translate(0 240.462)">
        <path id="Trazado_103410" data-name="Trazado 103410" d="M393.37,480.035v1.207a6.682,6.682,0,0,1-6.684,6.678H44.914a6.687,6.687,0,0,1-6.469-4.991.018.018,0,0,0-.005-.015,6.819,6.819,0,0,1-.209-1.672v-1.207a6.678,6.678,0,0,1,6.683-6.679H386.687A6.682,6.682,0,0,1,393.37,480.035Z" transform="translate(-38.231 -473.356)" fill="#21214b"/>
        <path id="Trazado_103411" data-name="Trazado 103411" d="M393.37,480.035v1.207a6.682,6.682,0,0,1-6.684,6.678H44.914a6.687,6.687,0,0,1-6.469-4.991.018.018,0,0,0-.005-.015c-.141-1.072-.209-1.672-.209-1.672,191.649,6.678,348.456-7.886,348.456-7.886A6.682,6.682,0,0,1,393.37,480.035Z" transform="translate(-38.231 -473.356)" fill="#134279"/>
      </g>
      <g id="Grupo_57738" data-name="Grupo 57738" transform="translate(284.521 10.485)">
        <path id="Trazado_103412" data-name="Trazado 103412" d="M686.243,126.652c0-.053.006-.1.006-.152s-.006-.1-.006-.145a17.931,17.931,0,0,0,2.277-1.241,18.7,18.7,0,0,0,2.383-1.928l-.165-.647a16.628,16.628,0,0,0-.7-2.145c-.145-.343-.317-.68-.482-1.017a6.874,6.874,0,0,0-.541-.99l-.343-.568a17.442,17.442,0,0,0-3.044.317,16.129,16.129,0,0,0-2.482.733l-.211-.211a16.422,16.422,0,0,0,.727-2.482,16.917,16.917,0,0,0,.323-3.044l-.568-.343a7.176,7.176,0,0,0-.99-.541c-.337-.166-.674-.337-1.024-.482a16.39,16.39,0,0,0-2.139-.7l-.646-.166a18.327,18.327,0,0,0-1.928,2.383,17.185,17.185,0,0,0-1.241,2.278c-.046,0-.1-.013-.145-.013s-.1.013-.152.013a16.36,16.36,0,0,0-1.242-2.278,18.141,18.141,0,0,0-1.921-2.383l-.647.166a16.166,16.166,0,0,0-2.145.7c-.343.145-.68.317-1.024.482a7.576,7.576,0,0,0-.99.541l-.568.343a18.145,18.145,0,0,0,.324,3.044,16.3,16.3,0,0,0,.733,2.482c-.073.072-.146.138-.211.211a16.356,16.356,0,0,0-2.483-.733,17.508,17.508,0,0,0-3.043-.317l-.35.568a8.424,8.424,0,0,0-.541.99c-.159.337-.33.674-.476,1.017a15.608,15.608,0,0,0-.7,2.145l-.166.647a18.267,18.267,0,0,0,2.383,1.928,17.46,17.46,0,0,0,2.271,1.241c0,.046-.006.093-.006.145s.006.1.006.152a16.735,16.735,0,0,0-2.271,1.241,18.209,18.209,0,0,0-2.383,1.922l.166.647a15.636,15.636,0,0,0,.7,2.145c.146.343.317.68.476,1.023a8.878,8.878,0,0,0,.541.984l.35.568a17.57,17.57,0,0,0,3.043-.317,16.424,16.424,0,0,0,2.483-.733c.065.072.138.145.211.211a16.279,16.279,0,0,0-.733,2.482,18.216,18.216,0,0,0-.324,3.044l.568.35a8.456,8.456,0,0,0,.99.535c.344.165.681.337,1.024.482a15.375,15.375,0,0,0,2.145.7l.647.165a18.141,18.141,0,0,0,1.921-2.383,16.394,16.394,0,0,0,1.242-2.277,1.226,1.226,0,0,0,.152.013,1.128,1.128,0,0,0,.145-.013,17.222,17.222,0,0,0,1.241,2.277,18.327,18.327,0,0,0,1.928,2.383l.646-.165a15.573,15.573,0,0,0,2.139-.7c.35-.145.687-.317,1.024-.482a7.962,7.962,0,0,0,.99-.535l.568-.35a16.979,16.979,0,0,0-.323-3.044,16.4,16.4,0,0,0-.727-2.482c.072-.066.139-.139.211-.211a16.2,16.2,0,0,0,2.482.733,17.5,17.5,0,0,0,3.044.317l.343-.568a7.161,7.161,0,0,0,.541-.984c.165-.343.337-.68.482-1.023a16.66,16.66,0,0,0,.7-2.145l.165-.647a18.643,18.643,0,0,0-2.383-1.922A17.169,17.169,0,0,0,686.243,126.652Zm-10.94,5.083a5.235,5.235,0,1,1,5.235-5.235A5.235,5.235,0,0,1,675.3,131.735Z" transform="translate(-624.97 -110.899)" fill="#ffca28"/>
        <path id="Trazado_103413" data-name="Trazado 103413" d="M640.277,148.229H604.951v34.79h9.809" transform="translate(-604.951 -124.548)" fill="none" stroke="#fd783d" stroke-miterlimit="10" stroke-width="1" stroke-dasharray="4"/>
        <g id="Grupo_57737" data-name="Grupo 57737" transform="translate(10.65 77.092)">
          <rect id="Rectángulo_7002" data-name="Rectángulo 7002" width="19.421" height="3.471" fill="#fff"/>
          <rect id="Rectángulo_7003" data-name="Rectángulo 7003" width="29.858" height="3.471" transform="translate(0 6.422)" fill="#fff"/>
          <rect id="Rectángulo_7004" data-name="Rectángulo 7004" width="10.17" height="3.471" transform="translate(0 12.843)" fill="#fff"/>
          <rect id="Rectángulo_7005" data-name="Rectángulo 7005" width="10.17" height="3.471" transform="translate(14.32 12.843)" fill="#ffca28"/>
          <rect id="Rectángulo_7006" data-name="Rectángulo 7006" width="14.604" height="3.471" transform="translate(28.129 12.843)" fill="#ffca28"/>
          <rect id="Rectángulo_7007" data-name="Rectángulo 7007" width="8.868" height="3.471" transform="translate(33.864 6.422)" fill="#ffca28"/>
          <rect id="Rectángulo_7008" data-name="Rectángulo 7008" width="19.421" height="3.471" transform="translate(23.311)" fill="#ffca28"/>
        </g>
        <rect id="Rectángulo_7009" data-name="Rectángulo 7009" width="0.648" height="38.686" transform="translate(59.849 54.614)" fill="#fff"/>
      </g>
      <g id="Grupo_57739" data-name="Grupo 57739" transform="translate(295.473 66.52)">
        <rect id="Rectángulo_7010" data-name="Rectángulo 7010" width="19.971" height="3.569" fill="#fff"/>
        <rect id="Rectángulo_7011" data-name="Rectángulo 7011" width="30.703" height="3.569" transform="translate(0 6.603)" fill="#fff"/>
        <rect id="Rectángulo_7012" data-name="Rectángulo 7012" width="10.457" height="3.569" transform="translate(0 13.207)" fill="#fff"/>
        <rect id="Rectángulo_7013" data-name="Rectángulo 7013" width="10.457" height="3.569" transform="translate(14.725 13.207)" fill="#ffca28"/>
        <rect id="Rectángulo_7014" data-name="Rectángulo 7014" width="15.017" height="3.569" transform="translate(28.925 13.207)" fill="#ffca28"/>
        <rect id="Rectángulo_7015" data-name="Rectángulo 7015" width="9.119" height="3.569" transform="translate(34.823 6.603)" fill="#ffca28"/>
        <rect id="Rectángulo_7016" data-name="Rectángulo 7016" width="19.971" height="3.569" transform="translate(23.971)" fill="#ffca28"/>
      </g>
      <g id="Grupo_57748" data-name="Grupo 57748" transform="translate(212.942 0)">
        <g id="Grupo_57747" data-name="Grupo 57747" transform="translate(0 0)">
          <rect id="Rectángulo_7017" data-name="Rectángulo 7017" width="57.468" height="112.931" fill="#21214b"/>
          <rect id="Rectángulo_7018" data-name="Rectángulo 7018" width="43.147" height="4.583" transform="translate(6.547 24.018)" fill="#fff"/>
          <rect id="Rectángulo_7019" data-name="Rectángulo 7019" width="28.557" height="4.583" transform="translate(6.547 34.166)" fill="#fff"/>
          <rect id="Rectángulo_7020" data-name="Rectángulo 7020" width="10.349" height="4.583" transform="translate(39.345 34.166)" fill="#ffca28"/>
          <rect id="Rectángulo_7021" data-name="Rectángulo 7021" width="26.738" height="4.583" transform="translate(22.956 44.313)" fill="#ffca28"/>
          <rect id="Rectángulo_7022" data-name="Rectángulo 7022" width="12.522" height="4.583" transform="translate(6.547 44.313)" fill="#fff"/>
          <rect id="Rectángulo_7023" data-name="Rectángulo 7023" width="22.807" height="4.583" transform="translate(6.547 54.46)" fill="#fff"/>
          <rect id="Rectángulo_7024" data-name="Rectángulo 7024" width="16.827" height="4.583" transform="translate(32.866 54.46)" fill="#ffca28"/>
          <rect id="Rectángulo_7025" data-name="Rectángulo 7025" width="30.625" height="4.583" transform="translate(19.069 64.608)" fill="#ffca28"/>
          <rect id="Rectángulo_7026" data-name="Rectángulo 7026" width="9.257" height="4.583" transform="translate(6.547 64.608)" fill="#fff"/>
          <rect id="Rectángulo_7027" data-name="Rectángulo 7027" width="18.515" height="4.583" transform="translate(6.547 74.755)" fill="#fff"/>
          <rect id="Rectángulo_7028" data-name="Rectángulo 7028" width="21.574" height="4.583" transform="translate(28.12 74.755)" fill="#ffca28"/>
          <g id="Grupo_57743" data-name="Grupo 57743" transform="translate(30.27 96.527)">
            <g id="Grupo_57740" data-name="Grupo 57740" transform="translate(13.426 3.476)">
              <path id="Trazado_103414" data-name="Trazado 103414" d="M565.719,253.809v1.29l-4.723,1.8v-1.24l3.3-1.2-3.3-1.21v-1.231Z" transform="translate(-560.996 -252.013)" fill="#ffca28"/>
            </g>
            <g id="Grupo_57741" data-name="Grupo 57741" transform="translate(0 3.476)">
              <path id="Trazado_103415" data-name="Trazado 103415" d="M544.554,252.013v1.231l-3.3,1.21,3.3,1.2v1.24l-4.723-1.8v-1.29Z" transform="translate(-539.831 -252.013)" fill="#ffca28"/>
            </g>
            <g id="Grupo_57742" data-name="Grupo 57742" transform="translate(6.799)">
              <path id="Trazado_103416" data-name="Trazado 103416" d="M554.055,246.533h1.477l-3.507,10.012h-1.477Z" transform="translate(-550.548 -246.533)" fill="#ffca28"/>
            </g>
          </g>
          <g id="Grupo_57746" data-name="Grupo 57746" transform="translate(9.165 11.313)">
            <g id="Grupo_57744" data-name="Grupo 57744" transform="translate(11.381)">
              <path id="Trazado_103417" data-name="Trazado 103417" d="M530.691,114.558v1.691L524.5,118.6v-1.625l4.33-1.573-4.33-1.586V112.2Z" transform="translate(-524.502 -112.205)" fill="#ffca28"/>
            </g>
            <g id="Grupo_57745" data-name="Grupo 57745">
              <path id="Trazado_103418" data-name="Trazado 103418" d="M512.751,112.2v1.613l-4.33,1.586,4.33,1.573V118.6l-6.19-2.353v-1.691Z" transform="translate(-506.561 -112.205)" fill="#ffca28"/>
            </g>
          </g>
        </g>
      </g>
      <g id="Grupo_57770" data-name="Grupo 57770" transform="translate(290.082 127.56)">
        <path id="Trazado_103432" data-name="Trazado 103432" d="M636.41,308.924c0-.045.006-.084.006-.129s-.006-.085-.006-.124a15.424,15.424,0,0,0,1.948-1.061,16.026,16.026,0,0,0,2.038-1.649l-.141-.553a14.109,14.109,0,0,0-.6-1.835c-.124-.294-.271-.582-.412-.87a5.846,5.846,0,0,0-.463-.847l-.294-.485a14.973,14.973,0,0,0-2.6.271,13.8,13.8,0,0,0-2.122.627l-.18-.181a14.111,14.111,0,0,0,.621-2.123,14.5,14.5,0,0,0,.277-2.6l-.486-.294a6.162,6.162,0,0,0-.847-.462c-.288-.141-.575-.288-.875-.412a14.1,14.1,0,0,0-1.829-.6l-.554-.141a15.7,15.7,0,0,0-1.649,2.038,14.716,14.716,0,0,0-1.061,1.948c-.039,0-.084-.011-.124-.011s-.085.011-.13.011a14.025,14.025,0,0,0-1.061-1.948,15.586,15.586,0,0,0-1.643-2.038l-.553.141a13.864,13.864,0,0,0-1.835.6c-.294.124-.582.271-.875.412a6.548,6.548,0,0,0-.847.462l-.485.294a15.547,15.547,0,0,0,.277,2.6,13.98,13.98,0,0,0,.627,2.123c-.062.062-.124.119-.181.181a13.956,13.956,0,0,0-2.123-.627,15.019,15.019,0,0,0-2.6-.271l-.3.485a7.11,7.11,0,0,0-.463.847c-.135.288-.282.576-.407.87a13.318,13.318,0,0,0-.6,1.835l-.141.553a15.634,15.634,0,0,0,2.038,1.649,15.021,15.021,0,0,0,1.942,1.061c0,.039-.005.079-.005.124s.005.084.005.129a14.372,14.372,0,0,0-1.942,1.061,15.577,15.577,0,0,0-2.038,1.643l.141.553a13.356,13.356,0,0,0,.6,1.835c.124.293.272.581.407.875a7.5,7.5,0,0,0,.463.841l.3.485a15.025,15.025,0,0,0,2.6-.271,13.963,13.963,0,0,0,2.123-.627c.056.062.119.124.181.181a13.976,13.976,0,0,0-.627,2.123,15.61,15.61,0,0,0-.277,2.6l.485.3a7.269,7.269,0,0,0,.847.457c.294.141.582.287.875.412a13.063,13.063,0,0,0,1.835.6l.553.141a15.588,15.588,0,0,0,1.643-2.038,13.992,13.992,0,0,0,1.061-1.948.994.994,0,0,0,.13.011.9.9,0,0,0,.124-.011,14.68,14.68,0,0,0,1.061,1.948,15.7,15.7,0,0,0,1.649,2.038l.554-.141a13.269,13.269,0,0,0,1.829-.6c.3-.124.587-.271.875-.412a6.8,6.8,0,0,0,.847-.457l.486-.3a14.553,14.553,0,0,0-.277-2.6,14.107,14.107,0,0,0-.621-2.123c.062-.056.119-.119.18-.181a13.807,13.807,0,0,0,2.122.627,14.979,14.979,0,0,0,2.6.271l.294-.485a6.1,6.1,0,0,0,.463-.841c.141-.294.287-.582.412-.875a14.151,14.151,0,0,0,.6-1.835l.141-.553a15.968,15.968,0,0,0-2.038-1.643A14.743,14.743,0,0,0,636.41,308.924Zm-9.354,4.347a4.477,4.477,0,1,1,4.477-4.477A4.477,4.477,0,0,1,627.056,313.271Z" transform="translate(-613.716 -295.454)" fill="#21214b"/>
      </g>
      <g id="Grupo_57774" data-name="Grupo 57774" transform="translate(271.721 161.085)">
        <g id="Grupo_57771" data-name="Grupo 57771" transform="translate(0.002 22.203)">
          <path id="Trazado_103434" data-name="Trazado 103434" d="M609.515,414.984a16.945,16.945,0,0,1-10.473-2.463c-11.653-7.211-14.085-27.551-14.252-29.078.1.469,1.251,2.956,13.364,11.1q1.512,1.02,2.774,2.067l.043.034C611.526,405.39,609.515,414.984,609.515,414.984Z" transform="translate(-584.781 -383.354)" fill="#0c8068"/>
          <path id="Trazado_103435" data-name="Trazado 103435" d="M584.776,383.3s10.881,26.7,22.953,29.515" transform="translate(-584.776 -383.302)" fill="none" stroke="#0a6d53" stroke-miterlimit="10" stroke-width="1"/>
          <path id="Trazado_103436" data-name="Trazado 103436" d="M617.729,422.576a16.946,16.946,0,0,1-10.473-2.463c2.32-5.489,1.885-15.906,1.885-15.906l.043.034C619.74,412.982,617.729,422.576,617.729,422.576Z" transform="translate(-592.995 -390.946)" fill="#0a6d53" opacity="0.5"/>
        </g>
        <g id="Grupo_57772" data-name="Grupo 57772" transform="translate(30.442 23.779)">
          <path id="Trazado_103437" data-name="Trazado 103437" d="M657.986,385.786c-.046.284-.209,1.271-.534,2.723v.005c-1.72,7.7-7.925,28.418-24.621,26.341a13.405,13.405,0,0,1,.282-4.437c.826-3.91,3.481-9.732,11.556-14.615C656.652,388.555,657.864,386.228,657.986,385.786Z" transform="translate(-632.76 -385.786)" fill="#0c8068"/>
          <path id="Trazado_103438" data-name="Trazado 103438" d="M658.177,388.379s-8.568,22.2-23.432,26.728" transform="translate(-633.486 -386.734)" fill="none" stroke="#0a6d53" stroke-miterlimit="10" stroke-width="1"/>
          <path id="Trazado_103439" data-name="Trazado 103439" d="M657.451,390.078v.005c-1.72,7.7-7.925,28.418-24.621,26.341a13.4,13.4,0,0,1,.282-4.437h.017C647.02,412.729,657.451,390.078,657.451,390.078Z" transform="translate(-632.76 -387.355)" fill="#0a6d53" opacity="0.5"/>
        </g>
        <g id="Grupo_57773" data-name="Grupo 57773" transform="translate(19.034)">
          <path id="Trazado_103440" data-name="Trazado 103440" d="M625.359,401.892c-.413.716-6.509-1.817-9.256-9.147h0c-1.649-4.4-2.089-10.539.636-18.736,7.16-21.53,4.209-25.589,4.121-25.7a26.164,26.164,0,0,1,10.379,10.674s0,.01.017.029C635.667,367.3,637.389,380.967,625.359,401.892Z" transform="translate(-614.777 -348.304)" fill="#159a7a"/>
          <path id="Trazado_103441" data-name="Trazado 103441" d="M624.358,348.3s9.337,11.781,5.782,34.188-1.278,19.4-1.278,19.4" transform="translate(-618.28 -348.302)" fill="none" stroke="#0c8068" stroke-miterlimit="10" stroke-width="1"/>
          <path id="Trazado_103442" data-name="Trazado 103442" d="M626.123,408.045c-.413.716-6.509-1.817-9.256-9.147C632.239,403.265,632,365.134,632,365.134s0,.01.016.029C636.431,373.455,638.153,387.12,626.123,408.045Z" transform="translate(-615.541 -354.456)" fill="#0c8068" opacity="0.5"/>
        </g>
        <path id="Trazado_103443" data-name="Trazado 103443" d="M584.773,383.3l.007.076A.2.2,0,0,1,584.773,383.3Z" transform="translate(-584.772 -361.099)" fill="#0c8068"/>
        <path id="Trazado_103444" data-name="Trazado 103444" d="M634.913,432.271v17.208A9.115,9.115,0,0,1,625.8,458.6H617.7a9.107,9.107,0,0,1-7.784-4.372h0a9.087,9.087,0,0,1-1.328-4.744V432.271Z" transform="translate(-593.48 -379.004)" fill="#ffa726"/>
        <rect id="Rectángulo_7083" data-name="Rectángulo 7083" width="29.58" height="2.232" rx="1.059" transform="translate(13.481 51.035)" fill="#eba154"/>
        <path id="Trazado_103445" data-name="Trazado 103445" d="M635.68,432.271v17.208a9.115,9.115,0,0,1-9.115,9.116h-8.093a9.106,9.106,0,0,1-7.784-4.372c19.28,6.055,23.468-8.122,22.722-13.745s-7.69-8.207-7.69-8.207Z" transform="translate(-594.248 -379.004)" fill="#ffc064"/>
      </g>
    </g>
  </g>
</svg>
