<svg xmlns="http://www.w3.org/2000/svg" width="258" height="258" viewBox="0 0 258 258">
  <g id="Grupo_57828" data-name="Grupo 57828" transform="translate(-235 -563)">
    <rect id="Rectángulo_7128" data-name="Rectángulo 7128" width="258" height="258" rx="16" transform="translate(235 563)" fill="#f3f9ff"/>
    <g id="cms" transform="translate(290.547 617.668)">
      <path id="Trazado_103536" data-name="Trazado 103536" d="M8,88H92.089V206.714H8Zm0,0" transform="translate(-5.527 -60.795)" fill="#91e8ed"/>
      <path id="Trazado_103537" data-name="Trazado 103537" d="M8,8H92.089V32.732H8ZM8,8" transform="translate(-5.527 -5.527)" fill="#ffca28"/>
      <path id="Trazado_103538" data-name="Trazado 103538" d="M236.669,143.42v7.42H167.42v61.83a7.42,7.42,0,0,1-7.42,7.42h98.928a7.42,7.42,0,0,0,7.42-7.42V136H244.089A7.42,7.42,0,0,0,236.669,143.42Zm0,0" transform="translate(-110.536 -93.956)" fill="#4dd0e1"/>
      <path id="Trazado_103539" data-name="Trazado 103539" d="M220.089,161.893V152H136v71.723a7.42,7.42,0,1,0,14.839,0v-61.83Zm0,0" transform="translate(-93.956 -105.009)" fill="#ffca28"/>
      <g id="Grupo_57827" data-name="Grupo 57827" transform="translate(9.893 34.625)">
        <path id="Trazado_103540" data-name="Trazado 103540" d="M64,432h4.946v4.946H64Zm0,0" transform="translate(-54.107 -333.072)" fill="#fff"/>
        <path id="Trazado_103541" data-name="Trazado 103541" d="M96,432h4.946v4.946H96Zm0,0" transform="translate(-76.214 -333.072)" fill="#fff"/>
        <path id="Trazado_103542" data-name="Trazado 103542" d="M128,432h4.946v4.946H128Zm0,0" transform="translate(-98.322 -333.072)" fill="#fff"/>
        <path id="Trazado_103543" data-name="Trazado 103543" d="M32,432h4.946v4.946H32Zm0,0" transform="translate(-32 -333.072)" fill="#fff"/>
        <path id="Trazado_103544" data-name="Trazado 103544" d="M64,368h4.946v4.946H64Zm0,0" transform="translate(-54.107 -288.857)" fill="#fff"/>
        <path id="Trazado_103545" data-name="Trazado 103545" d="M96,368h4.946v4.946H96Zm0,0" transform="translate(-76.214 -288.857)" fill="#fff"/>
        <path id="Trazado_103546" data-name="Trazado 103546" d="M32,368h4.946v4.946H32Zm0,0" transform="translate(-32 -288.857)" fill="#fff"/>
        <path id="Trazado_103547" data-name="Trazado 103547" d="M64,304h4.946v4.946H64Zm0,0" transform="translate(-54.107 -244.643)" fill="#fff"/>
        <path id="Trazado_103548" data-name="Trazado 103548" d="M32,304h4.946v4.946H32Zm0,0" transform="translate(-32 -244.643)" fill="#fff"/>
        <path id="Trazado_103549" data-name="Trazado 103549" d="M96,304h4.946v4.946H96Zm0,0" transform="translate(-76.214 -244.643)" fill="#fff"/>
        <path id="Trazado_103550" data-name="Trazado 103550" d="M64,240h4.946v4.946H64Zm0,0" transform="translate(-54.107 -200.429)" fill="#fff"/>
        <path id="Trazado_103551" data-name="Trazado 103551" d="M32,240h4.946v4.946H32Zm0,0" transform="translate(-32 -200.429)" fill="#fff"/>
        <path id="Trazado_103552" data-name="Trazado 103552" d="M96,240h4.946v4.946H96Zm0,0" transform="translate(-76.214 -200.429)" fill="#fff"/>
        <path id="Trazado_103553" data-name="Trazado 103553" d="M64,112h4.946v4.946H64Zm0,0" transform="translate(-54.107 -112)" fill="#fff"/>
        <path id="Trazado_103554" data-name="Trazado 103554" d="M32,112h4.946v4.946H32Zm0,0" transform="translate(-32 -112)" fill="#fff"/>
        <path id="Trazado_103555" data-name="Trazado 103555" d="M96,112h4.946v4.946H96Zm0,0" transform="translate(-76.214 -112)" fill="#fff"/>
        <path id="Trazado_103556" data-name="Trazado 103556" d="M128,112h4.946v4.946H128Zm0,0" transform="translate(-98.322 -112)" fill="#fff"/>
        <path id="Trazado_103557" data-name="Trazado 103557" d="M64,176h4.946v4.946H64Zm0,0" transform="translate(-54.107 -156.214)" fill="#fff"/>
        <path id="Trazado_103558" data-name="Trazado 103558" d="M32,176h4.946v4.946H32Zm0,0" transform="translate(-32 -156.214)" fill="#fff"/>
        <path id="Trazado_103559" data-name="Trazado 103559" d="M96,176h4.946v4.946H96Zm0,0" transform="translate(-76.214 -156.214)" fill="#fff"/>
        <path id="Trazado_103560" data-name="Trazado 103560" d="M243.786,280.732h-7.42a12.366,12.366,0,0,1,0-24.732h7.42v4.946h-7.42a7.42,7.42,0,0,0,0,14.839h7.42Zm0,0" transform="translate(-164.643 -211.482)" fill="#fff"/>
        <path id="Trazado_103561" data-name="Trazado 103561" d="M318.839,280.732h-4.946V263.42a2.473,2.473,0,1,0-4.946,0v17.312H304V263.42a7.42,7.42,0,1,1,14.839,0Zm0,0" transform="translate(-219.911 -211.482)" fill="#fff"/>
        <path id="Trazado_103562" data-name="Trazado 103562" d="M350.839,280.732h-4.946V263.42a2.473,2.473,0,0,0-4.946,0v17.312H336V263.42a7.42,7.42,0,0,1,14.839,0Zm0,0" transform="translate(-242.018 -211.482)" fill="#fff"/>
        <path id="Trazado_103563" data-name="Trazado 103563" d="M412.366,280.732H400v-4.946h12.366a2.473,2.473,0,0,0,0-4.946H407.42a7.42,7.42,0,0,1,0-14.839h12.366v4.946H407.42a2.473,2.473,0,0,0,0,4.946h4.946a7.42,7.42,0,0,1,0,14.839Zm0,0" transform="translate(-286.233 -211.482)" fill="#fff"/>
      </g>
      <path id="Trazado_103564" data-name="Trazado 103564" d="M133.553,39.571a9.86,9.86,0,0,0-8.517,4.946h-36V0H0V148.392H89.035V128.607h59.357a9.893,9.893,0,0,0,9.893-9.893V39.571Zm-9.893,9.893v4.946H54.411v64.3a4.946,4.946,0,0,1-9.893,0V49.464ZM4.946,14.839H9.893V9.893H4.946V4.946H84.089V9.893H79.143v4.946h4.946v9.893H4.946Zm0,14.839H84.089V44.518H4.946Zm0,19.786H39.571V64.3H4.946Zm0,19.786H39.571V84.089H4.946Zm0,19.786H39.571v14.839H4.946Zm0,19.786H39.571v9.893a9.789,9.789,0,0,0,1.375,4.946h-36Zm79.143,34.625H4.946V128.607H84.089Zm69.25-24.732a4.947,4.947,0,0,1-4.946,4.946H58.029a9.952,9.952,0,0,0,.512-1.029c0-.03.03-.057.042-.087a9.812,9.812,0,0,0,.51-1.634c.031-.141.059-.28.083-.421a9.727,9.727,0,0,0,.181-1.775V59.357h69.25V49.464a4.947,4.947,0,0,1,4.946-4.946h19.786Zm0,0" fill="#21214b"/>
      <path id="Trazado_103565" data-name="Trazado 103565" d="M16,496H30.839v4.946H16Zm0,0" transform="translate(-11.054 -342.661)"/>
      <path id="Trazado_103566" data-name="Trazado 103566" d="M224,496h14.839v4.946H224Zm0,0" transform="translate(-154.75 -342.661)"/>
      <path id="Trazado_103567" data-name="Trazado 103567" d="M160,432h29.678v4.946H160Zm0,0" transform="translate(-110.536 -298.447)"/>
      <path id="Trazado_103568" data-name="Trazado 103568" d="M160,112h24.732v4.946H160Zm0,0" transform="translate(-110.536 -77.375)"/>
      <path id="Trazado_103569" data-name="Trazado 103569" d="M48,32h59.357v4.946H48Zm0,0" transform="translate(-33.161 -22.107)"/>
    </g>
  </g>
</svg>
