<svg xmlns="http://www.w3.org/2000/svg" width="258" height="258" viewBox="0 0 258 258">
  <g id="Grupo_57951" data-name="Grupo 57951" transform="translate(-180 -563)">
    <g id="Grupo_57948" data-name="Grupo 57948" transform="translate(-55)">
      <rect id="Rectángulo_7128" data-name="Rectángulo 7128" width="258" height="258" rx="16" transform="translate(235 563)" fill="#f3f9ff"/>
    </g>
    <g id="red-global" transform="translate(211.987 604)">
      <g id="Grupo_57950" data-name="Grupo 57950" transform="translate(16.666 2.659)">
        <circle id="Elipse_1568" data-name="Elipse 1568" cx="64.355" cy="64.355" r="64.355" transform="translate(15.909 20.705)" fill="#a9ebf4"/>
        <path id="Trazado_103736" data-name="Trazado 103736" d="M95.631,132.544A64.375,64.375,0,0,1,146.264,69.66a64.355,64.355,0,1,0,0,125.767A64.375,64.375,0,0,1,95.631,132.544Z" transform="translate(-52.278 -47.484)" fill="#4dd0e1"/>
        <g id="Grupo_57949" data-name="Grupo 57949" transform="translate(0)">
          <ellipse id="Elipse_1569" data-name="Elipse 1569" cx="7.694" cy="8.052" rx="7.694" ry="8.052" transform="translate(145.14)" fill="#ffe181"/>
          <ellipse id="Elipse_1570" data-name="Elipse 1570" cx="7.694" cy="8.052" rx="7.694" ry="8.052" fill="#ffe181"/>
          <ellipse id="Elipse_1571" data-name="Elipse 1571" cx="7.694" cy="8.052" rx="7.694" ry="8.052" transform="translate(145.14 154.017)" fill="#ffe181"/>
          <ellipse id="Elipse_1572" data-name="Elipse 1572" cx="7.694" cy="8.052" rx="7.694" ry="8.052" transform="translate(0 154.017)" fill="#ffe181"/>
        </g>
        <path id="Trazado_103737" data-name="Trazado 103737" d="M453.048,15.811a8.12,8.12,0,0,1,3.847-6.972,7.4,7.4,0,0,0-3.847-1.08,7.879,7.879,0,0,0-7.694,8.052,7.879,7.879,0,0,0,7.694,8.052,7.4,7.4,0,0,0,3.847-1.08,8.121,8.121,0,0,1-3.847-6.972Z" transform="translate(-300.214 -7.759)" fill="#fec458"/>
        <path id="Trazado_103738" data-name="Trazado 103738" d="M29.45,15.811A8.12,8.12,0,0,1,33.3,8.839a7.4,7.4,0,0,0-3.847-1.08,7.879,7.879,0,0,0-7.694,8.052,7.879,7.879,0,0,0,7.694,8.052,7.4,7.4,0,0,0,3.847-1.08,8.12,8.12,0,0,1-3.847-6.972Z" transform="translate(-21.756 -7.759)" fill="#fec458"/>
        <path id="Trazado_103739" data-name="Trazado 103739" d="M453.048,465.318a8.12,8.12,0,0,1,3.847-6.972,7.4,7.4,0,0,0-3.847-1.08,8.06,8.06,0,0,0,0,16.1,7.4,7.4,0,0,0,3.847-1.08A8.12,8.12,0,0,1,453.048,465.318Z" transform="translate(-300.214 -303.249)" fill="#fec458"/>
        <path id="Trazado_103740" data-name="Trazado 103740" d="M29.45,465.318a8.119,8.119,0,0,1,3.847-6.972,7.4,7.4,0,0,0-3.847-1.08,8.06,8.06,0,0,0,0,16.1,7.4,7.4,0,0,0,3.847-1.08A8.119,8.119,0,0,1,29.45,465.318Z" transform="translate(-21.756 -303.249)" fill="#fec458"/>
      </g>
      <path id="Trazado_103741" data-name="Trazado 103741" d="M34.25,162.231a10.363,10.363,0,0,0-9.966-8.06,10.636,10.636,0,0,0,0,21.259,10.363,10.363,0,0,0,9.966-8.06H56.185a2.57,2.57,0,0,0,2.57-2.57V142.772a67.023,67.023,0,0,0,76.345,0V164.8a2.57,2.57,0,0,0,2.57,2.57H159.6a10.635,10.635,0,1,0,0-5.14H140.239V138.817a67.05,67.05,0,0,0,20.432-71.739,2.57,2.57,0,1,0-4.89,1.582,61.717,61.717,0,0,1,2.942,16.486H135.472a108.367,108.367,0,0,0-4.223-28.228,66.714,66.714,0,0,0,12.484-9.627,62.009,62.009,0,0,1,7.5,10.8,2.57,2.57,0,1,0,4.509-2.466,67.075,67.075,0,0,0-15.5-19.01V13.2H159.6a10.24,10.24,0,0,0,20.237-2.57A10.24,10.24,0,0,0,159.6,8.06H137.669a2.57,2.57,0,0,0-2.57,2.57V32.659a67.023,67.023,0,0,0-76.345,0V10.63a2.57,2.57,0,0,0-2.57-2.57H34.25A10.363,10.363,0,0,0,24.284,0,10.467,10.467,0,0,0,14.013,10.63a10.467,10.467,0,0,0,10.271,10.63,10.363,10.363,0,0,0,9.966-8.06H53.615V36.614a66.983,66.983,0,0,0,0,102.2v23.415Zm-9.966,8.06a5.5,5.5,0,0,1,0-10.98,5.5,5.5,0,0,1,0,10.98Zm145.285-10.98a5.5,5.5,0,1,1-5.132,5.49A5.326,5.326,0,0,1,169.569,159.311Zm0-154.171a5.326,5.326,0,0,1,5.132,5.49,5.144,5.144,0,1,1-10.264,0A5.326,5.326,0,0,1,169.569,5.14ZM115.29,146.782c6.549-6.11,11.249-14.783,14.321-23.277a62.246,62.246,0,0,1,10.585,8.358A61.914,61.914,0,0,1,115.29,146.782Zm20.182-56.5h23.247a61.58,61.58,0,0,1-15,37.838,66.7,66.7,0,0,0-12.466-9.61A108.351,108.351,0,0,0,135.472,90.285Zm4.746-46.739a62.244,62.244,0,0,1-10.607,8.379c-3.071-8.49-7.768-17.16-14.312-23.268A61.85,61.85,0,0,1,140.217,43.546ZM99.5,26.053c12.693,1.827,21.3,16.206,25.578,28.442A61.3,61.3,0,0,1,99.5,61.169Zm0,64.232h8.8a2.57,2.57,0,1,0,0-5.14H99.5V66.311a66.333,66.333,0,0,0,27.134-6.881,103.766,103.766,0,0,1,3.7,25.716H120.292a2.57,2.57,0,1,0,0,5.14h10.039a103.766,103.766,0,0,1-3.7,25.716A66.335,66.335,0,0,0,99.5,109.119Zm0,23.977a61.3,61.3,0,0,1,25.578,6.674C120.8,133.159,112.2,147.55,99.5,149.377ZM24.284,16.12a5.326,5.326,0,0,1-5.132-5.49,5.327,5.327,0,0,1,5.132-5.49,5.326,5.326,0,0,1,5.132,5.49A5.326,5.326,0,0,1,24.284,16.12ZM53.658,131.863a62.247,62.247,0,0,1,10.585-8.358c3.072,8.492,7.771,17.166,14.321,23.277A61.913,61.913,0,0,1,53.658,131.863Zm40.7,17.514c-12.695-1.827-21.3-16.21-25.579-28.442a61.3,61.3,0,0,1,25.579-6.674Zm0-40.258A66.333,66.333,0,0,0,67.223,116a103.766,103.766,0,0,1-3.7-25.716H94.358V109.12Zm0-23.975H63.522a103.766,103.766,0,0,1,3.7-25.716,66.336,66.336,0,0,0,27.134,6.881V85.145Zm0-59.093V61.169A61.3,61.3,0,0,1,68.778,54.5C73.054,42.271,81.659,27.88,94.357,26.053Zm-15.793,2.6c-6.55,6.111-11.249,14.783-14.321,23.277a62.26,62.26,0,0,1-10.585-8.358A61.91,61.91,0,0,1,78.564,28.648ZM50.139,47.307a66.713,66.713,0,0,0,12.466,9.61,108.353,108.353,0,0,0-4.223,28.228H35.135A61.583,61.583,0,0,1,50.139,47.307Zm0,80.816a61.581,61.581,0,0,1-15-37.838H58.382a108.353,108.353,0,0,0,4.223,28.228,66.725,66.725,0,0,0-12.466,9.61Z"/>
    </g>
  </g>
</svg>
