<svg xmlns="http://www.w3.org/2000/svg" width="839" height="634" viewBox="0 0 839 634">
  <g id="Grupo_57856" data-name="Grupo 57856" transform="translate(-381 -712)">
    <path id="Trazado_103625" data-name="Trazado 103625" d="M26,0H813a26,26,0,0,1,26,26V287a26,26,0,0,1-26,26H26A26,26,0,0,1,0,287V26A26,26,0,0,1,26,0Z" transform="translate(381 712)" fill="#f5f5f5"/>
    <path id="Trazado_103627" data-name="Trazado 103627" d="M-102.121,0h-2.344V-4.875h-4.57V0h-2.344V-11.375h2.344v4.609h4.57v-4.609h2.344Zm5.789.156A4.15,4.15,0,0,1-99.359-.984a4.054,4.054,0,0,1-1.168-3.039v-.219a5.106,5.106,0,0,1,.492-2.277,3.612,3.612,0,0,1,1.395-1.547,3.914,3.914,0,0,1,2.059-.543,3.508,3.508,0,0,1,2.73,1.094,4.444,4.444,0,0,1,1,3.1v.922h-5.383a2.1,2.1,0,0,0,.66,1.328,2,2,0,0,0,1.395.5,2.437,2.437,0,0,0,2.039-.945l1.109,1.242A3.389,3.389,0,0,1-94.41-.246,4.511,4.511,0,0,1-96.332.156Zm-.258-6.937a1.414,1.414,0,0,0-1.09.453,2.341,2.341,0,0,0-.535,1.3h3.141v-.18a1.669,1.669,0,0,0-.406-1.16A1.459,1.459,0,0,0-96.59-6.781Zm9.766.445a6.134,6.134,0,0,0-.812-.062,1.654,1.654,0,0,0-1.68.867V0h-2.258V-8.453h2.133l.063,1.008A2.092,2.092,0,0,1-87.5-8.609a2.366,2.366,0,0,1,.7.1Zm5.836,0A6.134,6.134,0,0,0-81.8-6.4a1.654,1.654,0,0,0-1.68.867V0h-2.258V-8.453h2.133l.063,1.008A2.092,2.092,0,0,1-81.66-8.609a2.366,2.366,0,0,1,.7.1ZM-75.238,0a2.507,2.507,0,0,1-.227-.758A2.732,2.732,0,0,1-77.6.156a3,3,0,0,1-2.059-.719,2.312,2.312,0,0,1-.816-1.812,2.389,2.389,0,0,1,1-2.062A4.915,4.915,0,0,1-76.6-5.164h1.039v-.484a1.393,1.393,0,0,0-.3-.937,1.183,1.183,0,0,0-.949-.352,1.345,1.345,0,0,0-.895.273.929.929,0,0,0-.324.75h-2.258a2.268,2.268,0,0,1,.453-1.359,3,3,0,0,1,1.281-.98,4.669,4.669,0,0,1,1.859-.355,3.689,3.689,0,0,1,2.48.785,2.747,2.747,0,0,1,.918,2.207v3.664a4.041,4.041,0,0,0,.336,1.82V0Zm-1.867-1.57a1.945,1.945,0,0,0,.922-.223,1.462,1.462,0,0,0,.625-.6V-3.844H-76.4q-1.7,0-1.8,1.172l-.008.133a.9.9,0,0,0,.3.7A1.153,1.153,0,0,0-77.105-1.57Zm7.664-6.883.07.945a2.971,2.971,0,0,1,2.43-1.1A2.255,2.255,0,0,1-64.7-7.32,2.9,2.9,0,0,1-62.16-8.609a2.521,2.521,0,0,1,2.047.8,3.681,3.681,0,0,1,.672,2.41V0h-2.266V-5.391a1.61,1.61,0,0,0-.281-1.051,1.246,1.246,0,0,0-.992-.332,1.409,1.409,0,0,0-1.406.969l.008,5.8h-2.258V-5.383a1.59,1.59,0,0,0-.289-1.062,1.259,1.259,0,0,0-.984-.328,1.463,1.463,0,0,0-1.391.8V0h-2.258V-8.453ZM-55.324,0H-57.59V-8.453h2.266Zm-2.4-10.641a1.112,1.112,0,0,1,.34-.836,1.277,1.277,0,0,1,.926-.328,1.28,1.28,0,0,1,.922.328,1.105,1.105,0,0,1,.344.836,1.108,1.108,0,0,1-.348.844,1.283,1.283,0,0,1-.918.328,1.283,1.283,0,0,1-.918-.328A1.108,1.108,0,0,1-57.723-10.641Zm8.148,10.8A4.15,4.15,0,0,1-52.6-.984,4.054,4.054,0,0,1-53.77-4.023v-.219a5.106,5.106,0,0,1,.492-2.277,3.612,3.612,0,0,1,1.395-1.547,3.914,3.914,0,0,1,2.059-.543,3.508,3.508,0,0,1,2.73,1.094,4.444,4.444,0,0,1,1,3.1v.922H-51.48a2.1,2.1,0,0,0,.66,1.328,2,2,0,0,0,1.395.5,2.437,2.437,0,0,0,2.039-.945l1.109,1.242A3.389,3.389,0,0,1-47.652-.246,4.511,4.511,0,0,1-49.574.156Zm-.258-6.937a1.414,1.414,0,0,0-1.09.453,2.341,2.341,0,0,0-.535,1.3h3.141v-.18a1.669,1.669,0,0,0-.406-1.16A1.459,1.459,0,0,0-49.832-6.781Zm7.094-1.672.07.977a2.951,2.951,0,0,1,2.43-1.133,2.453,2.453,0,0,1,2,.789,3.682,3.682,0,0,1,.672,2.359V0h-2.258V-5.406a1.465,1.465,0,0,0-.312-1.043,1.4,1.4,0,0,0-1.039-.324,1.553,1.553,0,0,0-1.43.813V0h-2.258V-8.453Zm9.586-2.078v2.078h1.445V-6.8h-1.445v4.219a1.007,1.007,0,0,0,.18.672.9.9,0,0,0,.688.2,3.6,3.6,0,0,0,.664-.055V-.047a4.648,4.648,0,0,1-1.367.2,2.156,2.156,0,0,1-2.422-2.4V-6.8h-1.234V-8.453h1.234v-2.078ZM-25.551,0a2.507,2.507,0,0,1-.227-.758A2.732,2.732,0,0,1-27.91.156a3,3,0,0,1-2.059-.719,2.312,2.312,0,0,1-.816-1.812,2.389,2.389,0,0,1,1-2.062,4.915,4.915,0,0,1,2.879-.727h1.039v-.484a1.393,1.393,0,0,0-.3-.937,1.183,1.183,0,0,0-.949-.352,1.345,1.345,0,0,0-.895.273.929.929,0,0,0-.324.75H-30.6a2.268,2.268,0,0,1,.453-1.359,3,3,0,0,1,1.281-.98A4.669,4.669,0,0,1-27-8.609a3.689,3.689,0,0,1,2.48.785,2.747,2.747,0,0,1,.918,2.207v3.664a4.041,4.041,0,0,0,.336,1.82V0Zm-1.867-1.57a1.945,1.945,0,0,0,.922-.223,1.462,1.462,0,0,0,.625-.6V-3.844h-.844q-1.7,0-1.8,1.172l-.008.133a.9.9,0,0,0,.3.7A1.153,1.153,0,0,0-27.418-1.57Zm10.125-.766a.727.727,0,0,0-.41-.652,4.659,4.659,0,0,0-1.316-.426q-3.016-.633-3.016-2.562A2.323,2.323,0,0,1-21.1-7.855a3.766,3.766,0,0,1,2.441-.754,4.053,4.053,0,0,1,2.574.758,2.388,2.388,0,0,1,.965,1.969h-2.258a1.092,1.092,0,0,0-.312-.8A1.322,1.322,0,0,0-18.668-7a1.351,1.351,0,0,0-.883.258.814.814,0,0,0-.312.656.7.7,0,0,0,.355.605,3.657,3.657,0,0,0,1.2.4,9.8,9.8,0,0,1,1.422.379A2.336,2.336,0,0,1-15.1-2.43,2.2,2.2,0,0,1-16.09-.559a4.28,4.28,0,0,1-2.562.715,4.47,4.47,0,0,1-1.887-.379,3.166,3.166,0,0,1-1.293-1.039A2.414,2.414,0,0,1-22.3-2.687h2.141a1.179,1.179,0,0,0,.445.922,1.766,1.766,0,0,0,1.109.32,1.635,1.635,0,0,0,.98-.246A.766.766,0,0,0-17.293-2.336Zm7.281-1.953a5.094,5.094,0,0,1,.887-3.148A2.877,2.877,0,0,1-6.7-8.609a2.589,2.589,0,0,1,2.039.922V-12h2.266V0H-4.434l-.109-.9A2.657,2.657,0,0,1-6.715.156,2.869,2.869,0,0,1-9.109-1.02,5.258,5.258,0,0,1-10.012-4.289Zm2.258.164A3.328,3.328,0,0,0-7.34-2.3a1.349,1.349,0,0,0,1.2.633A1.511,1.511,0,0,0-4.66-2.555V-5.891a1.489,1.489,0,0,0-1.461-.883Q-7.754-6.773-7.754-4.125Zm11,4.281A4.15,4.15,0,0,1,.219-.984,4.054,4.054,0,0,1-.949-4.023v-.219A5.106,5.106,0,0,1-.457-6.52,3.612,3.612,0,0,1,.938-8.066,3.914,3.914,0,0,1,3-8.609a3.508,3.508,0,0,1,2.73,1.094,4.444,4.444,0,0,1,1,3.1v.922H1.34A2.1,2.1,0,0,0,2-2.164a2,2,0,0,0,1.395.5,2.437,2.437,0,0,0,2.039-.945L6.543-1.367A3.389,3.389,0,0,1,5.168-.246,4.511,4.511,0,0,1,3.246.156ZM2.988-6.781a1.414,1.414,0,0,0-1.09.453,2.341,2.341,0,0,0-.535,1.3H4.5v-.18A1.669,1.669,0,0,0,4.1-6.371,1.459,1.459,0,0,0,2.988-6.781ZM15.152-2.758l1.57-5.7h2.359L16.23,0H14.074L11.223-8.453h2.359ZM22.457,0H20.191V-8.453h2.266Zm-2.4-10.641a1.112,1.112,0,0,1,.34-.836,1.277,1.277,0,0,1,.926-.328,1.28,1.28,0,0,1,.922.328,1.105,1.105,0,0,1,.344.836,1.108,1.108,0,0,1-.348.844,1.283,1.283,0,0,1-.918.328,1.283,1.283,0,0,1-.918-.328A1.108,1.108,0,0,1,20.059-10.641Zm9.008,4.3a6.134,6.134,0,0,0-.812-.062,1.654,1.654,0,0,0-1.68.867V0H24.316V-8.453h2.133l.063,1.008a2.092,2.092,0,0,1,1.883-1.164,2.366,2.366,0,0,1,.7.1Zm4.18-4.2v2.078h1.445V-6.8H33.246v4.219a1.007,1.007,0,0,0,.18.672.9.9,0,0,0,.688.2,3.6,3.6,0,0,0,.664-.055V-.047a4.648,4.648,0,0,1-1.367.2,2.156,2.156,0,0,1-2.422-2.4V-6.8H29.754V-8.453h1.234v-2.078ZM41.012-.859A2.831,2.831,0,0,1,38.7.156a2.67,2.67,0,0,1-2.074-.781,3.335,3.335,0,0,1-.73-2.289V-8.453h2.258v5.461q0,1.32,1.2,1.32a1.631,1.631,0,0,0,1.578-.8V-8.453H43.2V0H41.074ZM49.8,0a2.507,2.507,0,0,1-.227-.758,2.732,2.732,0,0,1-2.133.914,3,3,0,0,1-2.059-.719,2.312,2.312,0,0,1-.816-1.812,2.389,2.389,0,0,1,1-2.062,4.915,4.915,0,0,1,2.879-.727H49.48v-.484a1.393,1.393,0,0,0-.3-.937,1.183,1.183,0,0,0-.949-.352,1.345,1.345,0,0,0-.895.273.929.929,0,0,0-.324.75H44.754a2.268,2.268,0,0,1,.453-1.359,3,3,0,0,1,1.281-.98,4.669,4.669,0,0,1,1.859-.355,3.689,3.689,0,0,1,2.48.785,2.747,2.747,0,0,1,.918,2.207v3.664a4.041,4.041,0,0,0,.336,1.82V0ZM47.934-1.57a1.945,1.945,0,0,0,.922-.223,1.462,1.462,0,0,0,.625-.6V-3.844h-.844q-1.7,0-1.8,1.172l-.008.133a.9.9,0,0,0,.3.7A1.153,1.153,0,0,0,47.934-1.57ZM55.863,0H53.6V-12h2.266Zm4.242,0H57.84V-8.453h2.266Zm-2.4-10.641a1.112,1.112,0,0,1,.34-.836,1.277,1.277,0,0,1,.926-.328,1.28,1.28,0,0,1,.922.328,1.105,1.105,0,0,1,.344.836,1.108,1.108,0,0,1-.348.844,1.283,1.283,0,0,1-.918.328,1.283,1.283,0,0,1-.918-.328A1.108,1.108,0,0,1,57.707-10.641Zm6.852,8.82h4.133V0H61.676V-1.375l3.977-5.25H61.793V-8.453h6.773v1.336ZM75,0a2.507,2.507,0,0,1-.227-.758,2.732,2.732,0,0,1-2.133.914,3,3,0,0,1-2.059-.719,2.312,2.312,0,0,1-.816-1.812,2.389,2.389,0,0,1,1-2.062,4.915,4.915,0,0,1,2.879-.727h1.039v-.484a1.393,1.393,0,0,0-.3-.937,1.183,1.183,0,0,0-.949-.352,1.345,1.345,0,0,0-.895.273.929.929,0,0,0-.324.75H69.957a2.268,2.268,0,0,1,.453-1.359,3,3,0,0,1,1.281-.98,4.669,4.669,0,0,1,1.859-.355,3.689,3.689,0,0,1,2.48.785,2.747,2.747,0,0,1,.918,2.207v3.664a4.041,4.041,0,0,0,.336,1.82V0ZM73.137-1.57a1.945,1.945,0,0,0,.922-.223,1.462,1.462,0,0,0,.625-.6V-3.844H73.84q-1.7,0-1.8,1.172l-.008.133a.9.9,0,0,0,.3.7A1.153,1.153,0,0,0,73.137-1.57ZM82.2-1.664a1.481,1.481,0,0,0,1.016-.344,1.2,1.2,0,0,0,.406-.914h2.117a2.9,2.9,0,0,1-.469,1.574A3.093,3.093,0,0,1,84.008-.238a3.949,3.949,0,0,1-1.77.395A3.67,3.67,0,0,1,79.379-1,4.56,4.56,0,0,1,78.332-4.18v-.148a4.508,4.508,0,0,1,1.039-3.117,3.627,3.627,0,0,1,2.852-1.164,3.555,3.555,0,0,1,2.543.9,3.2,3.2,0,0,1,.973,2.4H83.621a1.539,1.539,0,0,0-.406-1.066,1.358,1.358,0,0,0-1.031-.41,1.361,1.361,0,0,0-1.191.574,3.324,3.324,0,0,0-.4,1.863v.234a3.366,3.366,0,0,0,.4,1.875A1.378,1.378,0,0,0,82.2-1.664ZM89.41,0H87.145V-8.453H89.41Zm-2.4-10.641a1.112,1.112,0,0,1,.34-.836,1.277,1.277,0,0,1,.926-.328,1.28,1.28,0,0,1,.922.328,1.105,1.105,0,0,1,.344.836A1.108,1.108,0,0,1,89.2-9.8a1.283,1.283,0,0,1-.918.328,1.283,1.283,0,0,1-.918-.328A1.108,1.108,0,0,1,87.012-10.641ZM90.918-4.3A5.013,5.013,0,0,1,91.4-6.547,3.546,3.546,0,0,1,92.8-8.07a4.069,4.069,0,0,1,2.113-.539A3.849,3.849,0,0,1,97.7-7.562,4.2,4.2,0,0,1,98.91-4.719l.016.578A4.418,4.418,0,0,1,97.84-1.02,3.775,3.775,0,0,1,94.926.156a3.793,3.793,0,0,1-2.918-1.172A4.5,4.5,0,0,1,90.918-4.2Zm2.258.164a3.151,3.151,0,0,0,.453,1.84,1.5,1.5,0,0,0,1.3.637,1.5,1.5,0,0,0,1.281-.629A3.448,3.448,0,0,0,96.668-4.3a3.12,3.12,0,0,0-.461-1.828,1.5,1.5,0,0,0-1.3-.648,1.475,1.475,0,0,0-1.281.645A3.506,3.506,0,0,0,93.176-4.141ZM95.355-12h2.461L95.652-9.578H93.816Zm7.039,3.547.07.977a2.951,2.951,0,0,1,2.43-1.133,2.453,2.453,0,0,1,2,.789,3.682,3.682,0,0,1,.672,2.359V0h-2.258V-5.406A1.465,1.465,0,0,0,105-6.449a1.4,1.4,0,0,0-1.039-.324,1.553,1.553,0,0,0-1.43.813V0H100.27V-8.453ZM-56.457,18.336a1.481,1.481,0,0,0,1.016-.344,1.2,1.2,0,0,0,.406-.914h2.117a2.9,2.9,0,0,1-.469,1.574,3.093,3.093,0,0,1-1.262,1.109,3.949,3.949,0,0,1-1.77.395A3.67,3.67,0,0,1-59.277,19a4.56,4.56,0,0,1-1.047-3.184v-.148a4.508,4.508,0,0,1,1.039-3.117,3.627,3.627,0,0,1,2.852-1.164,3.555,3.555,0,0,1,2.543.9,3.2,3.2,0,0,1,.973,2.4h-2.117a1.539,1.539,0,0,0-.406-1.066,1.358,1.358,0,0,0-1.031-.41,1.361,1.361,0,0,0-1.191.574,3.324,3.324,0,0,0-.4,1.863v.234a3.366,3.366,0,0,0,.4,1.875A1.378,1.378,0,0,0-56.457,18.336ZM-51.98,15.7a5.013,5.013,0,0,1,.484-2.242A3.546,3.546,0,0,1-50.1,11.93a4.069,4.069,0,0,1,2.113-.539A3.849,3.849,0,0,1-45.2,12.438a4.2,4.2,0,0,1,1.207,2.844l.016.578a4.418,4.418,0,0,1-1.086,3.121,3.775,3.775,0,0,1-2.914,1.176,3.793,3.793,0,0,1-2.918-1.172A4.5,4.5,0,0,1-51.98,15.8Zm2.258.164a3.151,3.151,0,0,0,.453,1.84,1.5,1.5,0,0,0,1.3.637,1.5,1.5,0,0,0,1.281-.629A3.448,3.448,0,0,0-46.23,15.7a3.12,3.12,0,0,0-.461-1.828,1.5,1.5,0,0,0-1.3-.648,1.475,1.475,0,0,0-1.281.645A3.506,3.506,0,0,0-49.723,15.859Zm9.219-4.312.07.977A2.951,2.951,0,0,1-38,11.391a2.453,2.453,0,0,1,2,.789,3.682,3.682,0,0,1,.672,2.359V20H-37.59V14.594a1.465,1.465,0,0,0-.312-1.043,1.4,1.4,0,0,0-1.039-.324,1.553,1.553,0,0,0-1.43.813V20h-2.258V11.547ZM-20.23,20h-2.344V15.125h-4.57V20h-2.344V8.625h2.344v4.609h4.57V8.625h2.344Zm4.281,0h-2.266V11.547h2.266Zm-2.4-10.641a1.112,1.112,0,0,1,.34-.836,1.277,1.277,0,0,1,.926-.328,1.28,1.28,0,0,1,.922.328,1.105,1.105,0,0,1,.344.836,1.108,1.108,0,0,1-.348.844,1.283,1.283,0,0,1-.918.328A1.283,1.283,0,0,1-18,10.2,1.108,1.108,0,0,1-18.348,9.359ZM-6.48,15.852a5.07,5.07,0,0,1-.887,3.129,2.843,2.843,0,0,1-2.395,1.176,2.633,2.633,0,0,1-2.07-.891V23.25H-14.09v-11.7H-12l.078.828a2.654,2.654,0,0,1,2.141-.984,2.862,2.862,0,0,1,2.43,1.156,5.207,5.207,0,0,1,.867,3.188Zm-2.258-.164a3.327,3.327,0,0,0-.418-1.82,1.361,1.361,0,0,0-1.215-.641,1.478,1.478,0,0,0-1.461.813V17.5a1.5,1.5,0,0,0,1.477.836Q-8.738,18.336-8.738,15.688Zm7.547,4.469a4.15,4.15,0,0,1-3.027-1.141,4.054,4.054,0,0,1-1.168-3.039v-.219a5.106,5.106,0,0,1,.492-2.277A3.612,3.612,0,0,1-3.5,11.934a3.914,3.914,0,0,1,2.059-.543,3.508,3.508,0,0,1,2.73,1.094,4.444,4.444,0,0,1,1,3.1v.922H-3.1a2.1,2.1,0,0,0,.66,1.328,2,2,0,0,0,1.395.5A2.437,2.437,0,0,0,1,17.391l1.109,1.242A3.389,3.389,0,0,1,.73,19.754,4.511,4.511,0,0,1-1.191,20.156Zm-.258-6.937a1.414,1.414,0,0,0-1.09.453,2.341,2.341,0,0,0-.535,1.3H.066v-.18a1.669,1.669,0,0,0-.406-1.16A1.459,1.459,0,0,0-1.449,13.219Zm9.766.445A6.134,6.134,0,0,0,7.5,13.6a1.654,1.654,0,0,0-1.68.867V20H3.566V11.547H5.7l.063,1.008a2.092,2.092,0,0,1,1.883-1.164,2.366,2.366,0,0,1,.7.1Zm4.391,3.578,1.57-5.7h2.359L13.785,20H11.629L8.777,11.547h2.359ZM20.012,20H17.746V11.547h2.266Zm-2.4-10.641a1.112,1.112,0,0,1,.34-.836,1.465,1.465,0,0,1,1.848,0,1.193,1.193,0,0,1,0,1.68,1.448,1.448,0,0,1-1.836,0A1.108,1.108,0,0,1,17.613,9.359Zm8.836,8.3a.727.727,0,0,0-.41-.652,4.659,4.659,0,0,0-1.316-.426q-3.016-.633-3.016-2.562a2.323,2.323,0,0,1,.934-1.879,3.766,3.766,0,0,1,2.441-.754,4.053,4.053,0,0,1,2.574.758,2.388,2.388,0,0,1,.965,1.969H26.363a1.092,1.092,0,0,0-.312-.8A1.322,1.322,0,0,0,25.074,13a1.351,1.351,0,0,0-.883.258.814.814,0,0,0-.312.656.7.7,0,0,0,.355.605,3.657,3.657,0,0,0,1.2.4,9.8,9.8,0,0,1,1.422.379,2.336,2.336,0,0,1,1.789,2.273,2.2,2.2,0,0,1-.992,1.871,4.28,4.28,0,0,1-2.562.715,4.47,4.47,0,0,1-1.887-.379,3.166,3.166,0,0,1-1.293-1.039,2.414,2.414,0,0,1-.469-1.426h2.141a1.179,1.179,0,0,0,.445.922,1.766,1.766,0,0,0,1.109.32,1.635,1.635,0,0,0,.98-.246A.766.766,0,0,0,26.449,17.664Zm3.3-1.969a5.013,5.013,0,0,1,.484-2.242,3.546,3.546,0,0,1,1.395-1.523,4.069,4.069,0,0,1,2.113-.539,3.849,3.849,0,0,1,2.793,1.047,4.2,4.2,0,0,1,1.207,2.844l.016.578a4.418,4.418,0,0,1-1.086,3.121,3.775,3.775,0,0,1-2.914,1.176,3.793,3.793,0,0,1-2.918-1.172,4.5,4.5,0,0,1-1.09-3.187ZM32,15.859a3.151,3.151,0,0,0,.453,1.84,1.629,1.629,0,0,0,2.578.008A3.448,3.448,0,0,0,35.5,15.7a3.12,3.12,0,0,0-.461-1.828,1.5,1.5,0,0,0-1.3-.648,1.475,1.475,0,0,0-1.281.645A3.506,3.506,0,0,0,32,15.859Zm11.891-2.2a6.134,6.134,0,0,0-.812-.062,1.654,1.654,0,0,0-1.68.867V20H39.145V11.547h2.133l.063,1.008a2.092,2.092,0,0,1,1.883-1.164,2.366,2.366,0,0,1,.7.1Zm4.828,6.492A4.15,4.15,0,0,1,45.7,19.016a4.054,4.054,0,0,1-1.168-3.039v-.219a5.106,5.106,0,0,1,.492-2.277,3.612,3.612,0,0,1,1.395-1.547,3.914,3.914,0,0,1,2.059-.543,3.508,3.508,0,0,1,2.73,1.094,4.444,4.444,0,0,1,1,3.1v.922H46.816a2.1,2.1,0,0,0,.66,1.328,2,2,0,0,0,1.395.5,2.437,2.437,0,0,0,2.039-.945l1.109,1.242a3.389,3.389,0,0,1-1.375,1.121A4.511,4.511,0,0,1,48.723,20.156Zm-.258-6.937a1.414,1.414,0,0,0-1.09.453,2.341,2.341,0,0,0-.535,1.3H49.98v-.18a1.669,1.669,0,0,0-.406-1.16A1.459,1.459,0,0,0,48.465,13.219Zm9.594,4.445a.727.727,0,0,0-.41-.652,4.659,4.659,0,0,0-1.316-.426q-3.016-.633-3.016-2.562a2.323,2.323,0,0,1,.934-1.879,3.766,3.766,0,0,1,2.441-.754,4.053,4.053,0,0,1,2.574.758,2.388,2.388,0,0,1,.965,1.969H57.973a1.092,1.092,0,0,0-.312-.8A1.322,1.322,0,0,0,56.684,13a1.351,1.351,0,0,0-.883.258.814.814,0,0,0-.312.656.7.7,0,0,0,.355.605,3.657,3.657,0,0,0,1.2.4,9.8,9.8,0,0,1,1.422.379,2.336,2.336,0,0,1,1.789,2.273,2.2,2.2,0,0,1-.992,1.871,4.28,4.28,0,0,1-2.562.715,4.47,4.47,0,0,1-1.887-.379,3.166,3.166,0,0,1-1.293-1.039,2.414,2.414,0,0,1-.469-1.426h2.141a1.179,1.179,0,0,0,.445.922,1.766,1.766,0,0,0,1.109.32,1.635,1.635,0,0,0,.98-.246A.766.766,0,0,0,58.059,17.664Z" transform="translate(800 967)" fill="#12263f"/>
    <g id="Grupo_57847" data-name="Grupo 57847" transform="translate(464.351 804.919)">
      <g id="cd-reader" transform="translate(0 0)">
        <path id="Trazado_103570" data-name="Trazado 103570" d="M8,8H117.546V73.728H8ZM8,8" transform="translate(-5.809 -5.809)" fill="#a9ebf4"/>
        <path id="Trazado_103571" data-name="Trazado 103571" d="M8,248v30.673H117.546V248Zm0,0" transform="translate(-5.809 -180.081)" fill="#4dd0e1"/>
        <path id="Trazado_103572" data-name="Trazado 103572" d="M40,280h92.019v13.146H40Zm0,0" transform="translate(-29.045 -203.317)" fill="#ffca28"/>
        <path id="Trazado_103573" data-name="Trazado 103573" d="M72,280h74.492v48.2H72Zm0,0" transform="translate(-52.282 -203.317)" fill="#c8d1da"/>
        <path id="Trazado_103574" data-name="Trazado 103574" d="M158.768,280H106.186a28.482,28.482,0,1,0,52.582,0Zm-26.291,15.337a4.382,4.382,0,1,1,4.382-4.382A4.382,4.382,0,0,1,132.477,295.337Zm0,0" transform="translate(-75.513 -203.317)" fill="#e4e8ed"/>
        <path id="Trazado_103575" data-name="Trazado 103575" d="M40,456h92.019v13.146H40Zm0,0" transform="translate(-29.045 -331.117)" fill="#4dd0e1"/>
        <path id="Trazado_103576" data-name="Trazado 103576" d="M180.4,280H165.886a13.146,13.146,0,1,0,14.513,0Zm-7.256,15.337a4.382,4.382,0,1,1,4.382-4.382A4.382,4.382,0,0,1,173.143,295.337Zm0,0" transform="translate(-116.179 -203.317)" fill="#ffca28"/>
        <g id="Grupo_57840" data-name="Grupo 57840" transform="translate(13.146 13.146)">
          <path id="Trazado_103577" data-name="Trazado 103577" d="M48,48h8.764v4.382H48Zm0,0" transform="translate(-48 -48)" fill="#fff"/>
          <path id="Trazado_103578" data-name="Trazado 103578" d="M336,48h8.764v4.382H336Zm0,0" transform="translate(-257.127 -48)" fill="#fff"/>
          <path id="Trazado_103579" data-name="Trazado 103579" d="M336,192h8.764v4.382H336Zm0,0" transform="translate(-257.127 -152.563)" fill="#fff"/>
          <path id="Trazado_103580" data-name="Trazado 103580" d="M48,192h8.764v4.382H48Zm0,0" transform="translate(-48 -152.563)" fill="#fff"/>
        </g>
        <path id="Trazado_103581" data-name="Trazado 103581" d="M0,0V100.783H17.527v21.909H8.764V140.22h96.4V122.692H96.4V100.783h17.527V0ZM100.783,127.074v8.764H13.146v-8.764ZM17.527,87.637H13.146V78.874h4.382ZM56.964,118.31A30.674,30.674,0,0,0,86.358,78.874h5.661v43.819H21.909V78.874h5.661A30.674,30.674,0,0,0,56.964,118.31Zm0-15.337a15.337,15.337,0,0,0,12.576-24.1H81.721a26.291,26.291,0,1,1-49.514,0H44.388a15.337,15.337,0,0,0,12.576,24.1ZM46.01,87.637a10.924,10.924,0,0,1,4.43-8.764H63.489A10.944,10.944,0,1,1,46.01,87.637ZM109.546,96.4H96.4V92.019h8.764V74.492H8.764V92.019h8.764V96.4H4.382V70.11H109.546ZM96.4,87.637V78.874h4.382v8.764Zm13.146-21.909H4.382V4.382H109.546Zm0,0" fill="#21214b"/>
        <path id="Trazado_103582" data-name="Trazado 103582" d="M190.573,309.146A6.573,6.573,0,1,0,184,302.573,6.573,6.573,0,0,0,190.573,309.146Zm0-8.764a2.191,2.191,0,1,1-2.191,2.191A2.191,2.191,0,0,1,190.573,300.382Zm0,0" transform="translate(-133.609 -214.935)"/>
      </g>
      <path id="Trazado_103621" data-name="Trazado 103621" d="M6,.406H1.636V-17.768H6Zm12.419-4.83a1.8,1.8,0,0,0-.68-1.5,8.455,8.455,0,0,0-2.39-1.111,22.932,22.932,0,0,1-2.8-1.111Q9.025-9.879,9.025-12.913a4.276,4.276,0,0,1,.88-2.665,5.692,5.692,0,0,1,2.49-1.8,9.69,9.69,0,0,1,3.62-.643,8.476,8.476,0,0,1,3.514.7,5.563,5.563,0,0,1,2.415,1.991,5.2,5.2,0,0,1,.861,2.952H18.436a2.2,2.2,0,0,0-.68-1.722,2.652,2.652,0,0,0-1.841-.612,2.99,2.99,0,0,0-1.854.518,1.589,1.589,0,0,0-.68,1.317,1.6,1.6,0,0,0,.749,1.267,9.444,9.444,0,0,0,2.634,1.173,16.133,16.133,0,0,1,3.1,1.3A5.2,5.2,0,0,1,22.8-4.45a4.438,4.438,0,0,1-1.8,3.745A8,8,0,0,1,16.077.655a9.782,9.782,0,0,1-4-.793,6.031,6.031,0,0,1-2.7-2.172,5.659,5.659,0,0,1-.9-3.177h4.394a2.787,2.787,0,0,0,.755,2.153,3.569,3.569,0,0,0,2.453.693,2.82,2.82,0,0,0,1.716-.468A1.545,1.545,0,0,0,18.424-4.425ZM40.442-8.307A10.717,10.717,0,0,1,39.456-3.6a7.288,7.288,0,0,1-2.8,3.152,7.8,7.8,0,0,1-4.138,1.1A7.913,7.913,0,0,1,28.4-.412a7.275,7.275,0,0,1-2.8-3.052A10.409,10.409,0,0,1,24.54-8.02V-9.043a10.764,10.764,0,0,1,.98-4.712,7.27,7.27,0,0,1,2.808-3.152,7.857,7.857,0,0,1,4.163-1.111,7.781,7.781,0,0,1,4.119,1.1,7.4,7.4,0,0,1,2.815,3.127,10.455,10.455,0,0,1,1.017,4.649Zm-4.456-.761a7.642,7.642,0,0,0-.9-4.113,2.9,2.9,0,0,0-2.59-1.4q-3.3,0-3.482,4.943L29-8.307A7.86,7.86,0,0,0,29.882-4.2a2.9,2.9,0,0,0,2.634,1.435,2.863,2.863,0,0,0,2.559-1.41,7.645,7.645,0,0,0,.911-4.057Z" transform="translate(36.03 43.497)" fill="#12263f"/>
    </g>
    <g id="flecha-correcta" transform="translate(621.153 850.273)">
      <g id="Grupo_57841" data-name="Grupo 57841" transform="translate(1.128 1.128)">
        <path id="Trazado_103583" data-name="Trazado 103583" d="M54.241,146.312a6.513,6.513,0,0,1-6.513-6.513V138H14.289A6.788,6.788,0,0,1,7.5,131.215V114.248a6.789,6.789,0,0,1,6.789-6.789H47.728v-1.8a6.508,6.508,0,0,1,10.561-5.1l21.47,17.069a6.51,6.51,0,0,1,0,10.191L58.289,144.9a6.531,6.531,0,0,1-4.048,1.415Z" transform="translate(-7.5 -99.151)" fill="#f5f5f5"/>
      </g>
      <g id="Grupo_57842" data-name="Grupo 57842" transform="translate(6.891 6.891)">
        <path id="Trazado_103584" data-name="Trazado 103584" d="M108.748,154.721l-21.47-17.069a.746.746,0,0,0-1.211.584v6.814a.746.746,0,0,1-.746.746H47.911a2.072,2.072,0,0,0-2.072,2.072v14.872a2.072,2.072,0,0,0,2.072,2.072H85.32a.746.746,0,0,1,.746.746v6.814a.746.746,0,0,0,1.211.584l21.47-17.069A.746.746,0,0,0,108.748,154.721Z" transform="translate(-45.839 -137.488)" fill="#ffca28"/>
      </g>
      <g id="Grupo_57843" data-name="Grupo 57843" transform="translate(45.605 1.128)">
        <path id="Trazado_103585" data-name="Trazado 103585" d="M331.133,117.636l-21.47-17.069a6.5,6.5,0,0,0-6.309-1.01,6.523,6.523,0,0,1,1.8,1.01l21.47,17.069a6.51,6.51,0,0,1,0,10.191L305.153,144.9a6.524,6.524,0,0,1-1.8,1.011,6.5,6.5,0,0,0,2.263.4h0a6.53,6.53,0,0,0,4.048-1.416l21.471-17.069a6.51,6.51,0,0,0,0-10.191Z" transform="translate(-303.352 -99.151)" fill="#ebe5ed"/>
      </g>
      <g id="Grupo_57844" data-name="Grupo 57844" transform="translate(47.119 6.891)">
        <path id="Trazado_103586" data-name="Trazado 103586" d="M336.1,154.721l-21.47-17.069a.746.746,0,0,0-1.211.584v2.039l18.171,14.446a.746.746,0,0,1,0,1.168l-18.171,14.446v2.039a.746.746,0,0,0,1.211.584l21.47-17.069A.746.746,0,0,0,336.1,154.721Z" transform="translate(-313.421 -137.488)" fill="#fcce63"/>
      </g>
      <g id="Grupo_57845" data-name="Grupo 57845" transform="translate(0 0)">
        <path id="Trazado_103587" data-name="Trazado 103587" d="M47.869,141.067a7.649,7.649,0,0,1-7.641-7.641v-.668h-8.95a1.128,1.128,0,1,1,0-2.255H41.355a1.127,1.127,0,0,1,1.128,1.128v1.8a5.381,5.381,0,0,0,8.732,4.215l21.471-17.069a5.382,5.382,0,0,0,0-8.426L51.215,95.077a5.381,5.381,0,0,0-8.732,4.213v1.8a1.127,1.127,0,0,1-1.128,1.128H7.916a5.668,5.668,0,0,0-5.661,5.661v16.967A5.667,5.667,0,0,0,7.916,130.5H26.768a1.128,1.128,0,0,1,0,2.255H7.916A7.925,7.925,0,0,1,0,124.842V107.875a7.925,7.925,0,0,1,7.916-7.916H40.228V99.29a7.636,7.636,0,0,1,12.39-5.978l21.47,17.069a7.637,7.637,0,0,1,0,11.956L52.618,139.406a7.663,7.663,0,0,1-4.749,1.66Z" transform="translate(0 -91.651)"/>
      </g>
      <g id="Grupo_57846" data-name="Grupo 57846" transform="translate(5.764 5.763)">
        <path id="Trazado_103588" data-name="Trazado 103588" d="M80.443,167.873a1.88,1.88,0,0,1-.818-.189A1.86,1.86,0,0,1,78.566,166v-6.433H41.538a3.2,3.2,0,0,1-3.2-3.2V141.491a3.2,3.2,0,0,1,3.2-3.2h7.769a1.128,1.128,0,0,1,0,2.255H41.538a.946.946,0,0,0-.945.945v14.872a.946.946,0,0,0,.945.945H78.947a1.876,1.876,0,0,1,1.874,1.874v6.024L101.3,148.927,80.821,132.648v6.024a1.876,1.876,0,0,1-1.874,1.874H53.817a1.128,1.128,0,1,1,0-2.255H78.566v-6.433a1.874,1.874,0,0,1,3.04-1.467l21.47,17.069a1.874,1.874,0,0,1,0,2.933L81.606,167.463A1.865,1.865,0,0,1,80.443,167.873Z" transform="translate(-38.338 -129.982)"/>
      </g>
    </g>
    <g id="caja" transform="translate(741 805.07)">
      <path id="Trazado_103589" data-name="Trazado 103589" d="M79.363,9.665,24.654,36.076a1.985,1.985,0,0,0-1.122,1.787v64.988a1.985,1.985,0,0,0,1.122,1.787l54.709,26.412a3.969,3.969,0,0,0,3.451,0l54.709-26.411a1.985,1.985,0,0,0,1.122-1.787V37.864a1.985,1.985,0,0,0-1.122-1.787L82.814,9.665A3.969,3.969,0,0,0,79.363,9.665Z" transform="translate(-21.675 -6.976)" fill="#ffe17d"/>
      <path id="Trazado_103590" data-name="Trazado 103590" d="M23.862,120.368a1.976,1.976,0,0,0-.33,1.086v64.988a1.985,1.985,0,0,0,1.122,1.787l54.709,26.412a3.968,3.968,0,0,0,1.726.395V147.995Z" transform="translate(-21.675 -90.567)" fill="#ffc350"/>
      <path id="Trazado_103591" data-name="Trazado 103591" d="M313.226,120.368a1.976,1.976,0,0,1,.33,1.086v64.988a1.985,1.985,0,0,1-1.122,1.787l-54.709,26.412a3.968,3.968,0,0,1-1.726.395V147.995Z" transform="translate(-196.587 -90.567)" fill="#ffd164"/>
      <path id="Trazado_103592" data-name="Trazado 103592" d="M188.283,73.743,130.856,46l-15.138,7.338,57.556,27.786Z" transform="translate(-91.037 -34.611)" fill="#ff8087"/>
      <path id="Trazado_103593" data-name="Trazado 103593" d="M348.185,165.433v21.525a.992.992,0,0,0,1.424.894l12.464-6.017a1.985,1.985,0,0,0,1.122-1.787v-22Z" transform="translate(-265.948 -118.92)" fill="#e6646e"/>
      <path id="Trazado_103594" data-name="Trazado 103594" d="M133.809,27.97,76.253.185a1.858,1.858,0,0,0-1.615,0L17.082,27.97a1.857,1.857,0,0,0-1.05,1.672v67.48a1.857,1.857,0,0,0,1.05,1.672l57.556,27.786a1.857,1.857,0,0,0,1.615,0l57.556-27.786a1.857,1.857,0,0,0,1.05-1.672V29.643A1.858,1.858,0,0,0,133.809,27.97ZM75.445,3.919l53.285,25.724L113.284,37.1a1.841,1.841,0,0,0-.314-.2L60.047,11.353ZM55.853,13.453l53.208,25.686L98.163,44.4,44.977,18.724Zm44.273,34.123,10.179-4.914V62.109l-10.179,4.914ZM77.3,121.95V58.594l12.843-6.2a1.857,1.857,0,1,0-1.615-3.344L75.445,55.367,70.3,52.881a1.857,1.857,0,0,0-1.615,3.344l4.907,2.369V121.95L19.746,95.957V32.6l41,19.793a1.857,1.857,0,0,0,1.615-3.344L22.16,29.643l18.447-8.905,55.78,26.929c.008.011.017.022.026.033V69.982a1.857,1.857,0,0,0,2.664,1.672l13.893-6.707a1.857,1.857,0,0,0,1.05-1.672V40.869L131.145,32.6V95.958Z" transform="translate(-16.032 -0.001)"/>
      <path id="Trazado_103595" data-name="Trazado 103595" d="M59.159,345.525l-8.446-4.078a1.857,1.857,0,0,0-1.615,3.344l8.446,4.078a1.857,1.857,0,0,0,1.615-3.344Z" transform="translate(-40.121 -256.77)"/>
      <path id="Trazado_103596" data-name="Trazado 103596" d="M66.969,313.7,50.76,305.875a1.857,1.857,0,0,0-1.615,3.345l16.208,7.825a1.857,1.857,0,0,0,1.615-3.345Z" transform="translate(-40.157 -230.005)"/>
    </g>
    <g id="flecha-correcta-2" data-name="flecha-correcta" transform="translate(892.937 850.273)">
      <g id="Grupo_57841-2" data-name="Grupo 57841" transform="translate(1.128 1.128)">
        <path id="Trazado_103583-2" data-name="Trazado 103583" d="M54.241,146.312a6.513,6.513,0,0,1-6.513-6.513V138H14.289A6.788,6.788,0,0,1,7.5,131.215V114.248a6.789,6.789,0,0,1,6.789-6.789H47.728v-1.8a6.508,6.508,0,0,1,10.561-5.1l21.47,17.069a6.51,6.51,0,0,1,0,10.191L58.289,144.9a6.531,6.531,0,0,1-4.048,1.415Z" transform="translate(-7.5 -99.151)" fill="#f5f5f5"/>
      </g>
      <g id="Grupo_57842-2" data-name="Grupo 57842" transform="translate(6.891 6.891)">
        <path id="Trazado_103584-2" data-name="Trazado 103584" d="M108.748,154.721l-21.47-17.069a.746.746,0,0,0-1.211.584v6.814a.746.746,0,0,1-.746.746H47.911a2.072,2.072,0,0,0-2.072,2.072v14.872a2.072,2.072,0,0,0,2.072,2.072H85.32a.746.746,0,0,1,.746.746v6.814a.746.746,0,0,0,1.211.584l21.47-17.069A.746.746,0,0,0,108.748,154.721Z" transform="translate(-45.839 -137.488)" fill="#ffca28"/>
      </g>
      <g id="Grupo_57843-2" data-name="Grupo 57843" transform="translate(45.605 1.128)">
        <path id="Trazado_103585-2" data-name="Trazado 103585" d="M331.133,117.636l-21.47-17.069a6.5,6.5,0,0,0-6.309-1.01,6.523,6.523,0,0,1,1.8,1.01l21.47,17.069a6.51,6.51,0,0,1,0,10.191L305.153,144.9a6.524,6.524,0,0,1-1.8,1.011,6.5,6.5,0,0,0,2.263.4h0a6.53,6.53,0,0,0,4.048-1.416l21.471-17.069a6.51,6.51,0,0,0,0-10.191Z" transform="translate(-303.352 -99.151)" fill="#ebe5ed"/>
      </g>
      <g id="Grupo_57844-2" data-name="Grupo 57844" transform="translate(47.119 6.891)">
        <path id="Trazado_103586-2" data-name="Trazado 103586" d="M336.1,154.721l-21.47-17.069a.746.746,0,0,0-1.211.584v2.039l18.171,14.446a.746.746,0,0,1,0,1.168l-18.171,14.446v2.039a.746.746,0,0,0,1.211.584l21.47-17.069A.746.746,0,0,0,336.1,154.721Z" transform="translate(-313.421 -137.488)" fill="#fcce63"/>
      </g>
      <g id="Grupo_57845-2" data-name="Grupo 57845" transform="translate(0 0)">
        <path id="Trazado_103587-2" data-name="Trazado 103587" d="M47.869,141.067a7.649,7.649,0,0,1-7.641-7.641v-.668h-8.95a1.128,1.128,0,1,1,0-2.255H41.355a1.127,1.127,0,0,1,1.128,1.128v1.8a5.381,5.381,0,0,0,8.732,4.215l21.471-17.069a5.382,5.382,0,0,0,0-8.426L51.215,95.077a5.381,5.381,0,0,0-8.732,4.213v1.8a1.127,1.127,0,0,1-1.128,1.128H7.916a5.668,5.668,0,0,0-5.661,5.661v16.967A5.667,5.667,0,0,0,7.916,130.5H26.768a1.128,1.128,0,0,1,0,2.255H7.916A7.925,7.925,0,0,1,0,124.842V107.875a7.925,7.925,0,0,1,7.916-7.916H40.228V99.29a7.636,7.636,0,0,1,12.39-5.978l21.47,17.069a7.637,7.637,0,0,1,0,11.956L52.618,139.406a7.663,7.663,0,0,1-4.749,1.66Z" transform="translate(0 -91.651)"/>
      </g>
      <g id="Grupo_57846-2" data-name="Grupo 57846" transform="translate(5.764 5.763)">
        <path id="Trazado_103588-2" data-name="Trazado 103588" d="M80.443,167.873a1.88,1.88,0,0,1-.818-.189A1.86,1.86,0,0,1,78.566,166v-6.433H41.538a3.2,3.2,0,0,1-3.2-3.2V141.491a3.2,3.2,0,0,1,3.2-3.2h7.769a1.128,1.128,0,0,1,0,2.255H41.538a.946.946,0,0,0-.945.945v14.872a.946.946,0,0,0,.945.945H78.947a1.876,1.876,0,0,1,1.874,1.874v6.024L101.3,148.927,80.821,132.648v6.024a1.876,1.876,0,0,1-1.874,1.874H53.817a1.128,1.128,0,1,1,0-2.255H78.566v-6.433a1.874,1.874,0,0,1,3.04-1.467l21.47,17.069a1.874,1.874,0,0,1,0,2.933L81.606,167.463A1.865,1.865,0,0,1,80.443,167.873Z" transform="translate(-38.338 -129.982)"/>
      </g>
    </g>
    <g id="ordenador" transform="translate(1003.021 804.919)">
      <path id="Trazado_103597" data-name="Trazado 103597" d="M147.557,270.333H10.062c-1-1-1.561-1.561-2.562-2.562V250.516H150.12V267.77C149.119,268.771,148.558,269.333,147.557,270.333Zm0,0" transform="translate(-5.348 -178.627)" fill="#cad8ea"/>
      <path id="Trazado_103598" data-name="Trazado 103598" d="M16.109,250.516H7.5V267.77l2.562,2.562h8.609l-2.562-2.562Zm0,0" transform="translate(-5.348 -178.627)" fill="#b0c4e0"/>
      <path id="Trazado_103599" data-name="Trazado 103599" d="M224.878,340.927H183.242l2.87-21.353h35.9Zm0,0" transform="translate(-130.659 -227.868)" fill="#e5ebf5"/>
      <path id="Trazado_103600" data-name="Trazado 103600" d="M201.6,393.984H143.943l-4.584,4.585v7.121h66.822v-7.121Zm0,0" transform="translate(-99.369 -280.926)" fill="#e5ebf5"/>
      <path id="Trazado_103601" data-name="Trazado 103601" d="M186.112,319.574l-2.87,21.353h8.609l2.87-21.353Zm0,0" transform="translate(-130.659 -227.868)" fill="#cad8ea"/>
      <path id="Trazado_103602" data-name="Trazado 103602" d="M152.552,393.984h-8.609l-4.584,4.585v7.121h8.609v-7.121Zm0,0" transform="translate(-99.369 -280.926)" fill="#cad8ea"/>
      <path id="Trazado_103603" data-name="Trazado 103603" d="M7.5,10.062V77.236H150.12V10.062L147.557,7.5H10.062Zm0,0" transform="translate(-5.348 -5.348)" fill="#96d1f3"/>
      <path id="Trazado_103604" data-name="Trazado 103604" d="M246.8,77.363V97.5H238.98v8.34h38.234V77.363Zm0,0" transform="translate(-170.402 -55.163)" fill="#d15573"/>
      <path id="Trazado_103605" data-name="Trazado 103605" d="M255.407,97.5V77.363H246.8V97.5H238.98v8.34h8.609V97.5Zm0,0" transform="translate(-170.402 -55.163)" fill="#c21d44"/>
      <path id="Trazado_103606" data-name="Trazado 103606" d="M18.671,7.5H10.062L7.5,10.062V77.236h8.609V10.062Zm0,0" transform="translate(-5.348 -5.348)" fill="#3ca6e6"/>
      <path id="Trazado_103607" data-name="Trazado 103607" d="M139.781,49.41h36.284v28.16H139.781Zm0,0" transform="translate(-99.669 -35.231)" fill="#d15573"/>
      <path id="Trazado_103608" data-name="Trazado 103608" d="M139.781,49.41h8.609v28.16h-8.609Zm0,0" transform="translate(-99.669 -35.231)" fill="#c21d44"/>
      <path id="Trazado_103609" data-name="Trazado 103609" d="M139.781,49.41h36.284v8.609H139.781Zm0,0" transform="translate(-99.669 -35.231)" fill="#e5ebf5"/>
      <path id="Trazado_103610" data-name="Trazado 103610" d="M139.781,49.41h8.609v8.609h-8.609Zm0,0" transform="translate(-99.669 -35.231)" fill="#cad8ea"/>
      <path id="Trazado_103611" data-name="Trazado 103611" d="M266.223,77.363h30.417v8.609H266.223Zm0,0" transform="translate(-189.827 -55.163)" fill="#e5ebf5"/>
      <path id="Trazado_103612" data-name="Trazado 103612" d="M266.223,77.363h8.609v8.609h-8.609Zm0,0" transform="translate(-189.827 -55.163)" fill="#cad8ea"/>
      <path id="Trazado_103613" data-name="Trazado 103613" d="M108.715,220.516h84.53v8.609h-84.53Zm0,0" transform="translate(-77.518 -157.236)" fill="#e5ebf5"/>
      <path id="Trazado_103614" data-name="Trazado 103614" d="M108.715,220.516h8.609v8.609h-8.609Zm0,0" transform="translate(-77.518 -157.236)" fill="#cad8ea"/>
      <path id="Trazado_103615" data-name="Trazado 103615" d="M247.478,281.851h-4.3v-4.3h4.3Zm-7.174,0H236v-4.3h4.3Zm0,0" transform="translate(-168.277 -197.901)" fill="#fff"/>
      <path id="Trazado_103616" data-name="Trazado 103616" d="M190.123,357.673l-1.558-11.6-4.266.573,1.481,11.022H149.065l1.482-11.022-4.266-.573-1.558,11.6H137.7l-5.845,5.845v10.166h71.126V363.518l-5.845-5.845Zm8.558,11.706H136.164V365.3l3.322-3.324h55.871l3.324,3.324Zm0,0" transform="translate(-94.021 -246.767)"/>
      <path id="Trazado_103617" data-name="Trazado 103617" d="M132.281,74.375h40.588V41.91H132.281Zm36.284-4.3H136.586V54.823h31.979ZM136.586,46.215h31.979v4.3H136.586Zm0,0" transform="translate(-94.322 -29.883)"/>
      <path id="Trazado_103618" data-name="Trazado 103618" d="M117.879,213.016H29.045v8.609H0v20.3l3.824,3.824H143.1l3.824-3.824v-20.3H117.879Zm-84.53,4.3h80.226v4.3H33.349Zm109.271,8.609V240.14l-1.3,1.3H5.606l-1.3-1.3V225.929Zm0,0" transform="translate(0 -151.888)"/>
      <path id="Trazado_103619" data-name="Trazado 103619" d="M143.1,0H3.824L0,3.824V64H4.3V5.606l1.3-1.3H141.318l1.3,1.3V64h4.3V3.824Zm0,0" transform="translate(0 0)"/>
      <path id="Trazado_103620" data-name="Trazado 103620" d="M238.98,98.342v4.3h40.386V69.863H254.689v4.3h20.373v4.3H254.689v4.3h20.373V98.342Zm0,0" transform="translate(-170.402 -49.815)"/>
    </g>
    <path id="Trazado_103631" data-name="Trazado 103631" d="M-51.965-11.375l2.922,8.25,2.906-8.25h3.078V0H-45.41V-3.109l.234-5.367L-48.246,0h-1.609l-3.062-8.469.234,5.359V0h-2.344V-11.375ZM-36.262,0a2.507,2.507,0,0,1-.227-.758,2.732,2.732,0,0,1-2.133.914A3,3,0,0,1-40.68-.562,2.312,2.312,0,0,1-41.5-2.375a2.389,2.389,0,0,1,1-2.062,4.915,4.915,0,0,1,2.879-.727h1.039v-.484a1.393,1.393,0,0,0-.3-.937,1.183,1.183,0,0,0-.949-.352,1.345,1.345,0,0,0-.895.273.929.929,0,0,0-.324.75h-2.258a2.268,2.268,0,0,1,.453-1.359,3,3,0,0,1,1.281-.98,4.669,4.669,0,0,1,1.859-.355,3.689,3.689,0,0,1,2.48.785,2.747,2.747,0,0,1,.918,2.207v3.664a4.041,4.041,0,0,0,.336,1.82V0Zm-1.867-1.57a1.945,1.945,0,0,0,.922-.223,1.462,1.462,0,0,0,.625-.6V-3.844h-.844q-1.7,0-1.8,1.172l-.008.133a.9.9,0,0,0,.3.7A1.153,1.153,0,0,0-38.129-1.57ZM-37.27-12h2.461l-2.164,2.422h-1.836Zm4.336,7.7a5.053,5.053,0,0,1,.887-3.148,2.9,2.9,0,0,1,2.434-1.156A2.6,2.6,0,0,1-27.449-7.57l.148-.883h1.984V3.25h-2.266V-.727a2.6,2.6,0,0,1-2.047.883,2.878,2.878,0,0,1-2.406-1.172A5.3,5.3,0,0,1-32.934-4.3Zm2.258.164A3.305,3.305,0,0,0-30.25-2.3a1.364,1.364,0,0,0,1.2.633,1.519,1.519,0,0,0,1.469-.828V-5.984a1.506,1.506,0,0,0-1.453-.8,1.38,1.38,0,0,0-1.211.633A3.65,3.65,0,0,0-30.676-4.141Zm12.2,3.281A2.831,2.831,0,0,1-20.793.156a2.67,2.67,0,0,1-2.074-.781,3.335,3.335,0,0,1-.73-2.289V-8.453h2.258v5.461q0,1.32,1.2,1.32a1.631,1.631,0,0,0,1.578-.8V-8.453h2.266V0h-2.125ZM-12.207,0h-2.266V-8.453h2.266Zm-2.4-10.641a1.112,1.112,0,0,1,.34-.836,1.277,1.277,0,0,1,.926-.328,1.28,1.28,0,0,1,.922.328,1.105,1.105,0,0,1,.344.836,1.108,1.108,0,0,1-.348.844,1.283,1.283,0,0,1-.918.328,1.283,1.283,0,0,1-.918-.328A1.108,1.108,0,0,1-14.605-10.641ZM-8.27-8.453l.07.977A2.951,2.951,0,0,1-5.77-8.609a2.453,2.453,0,0,1,2,.789A3.682,3.682,0,0,1-3.1-5.461V0H-5.355V-5.406a1.465,1.465,0,0,0-.312-1.043,1.4,1.4,0,0,0-1.039-.324,1.553,1.553,0,0,0-1.43.813V0h-2.258V-8.453ZM3.512,0a2.507,2.507,0,0,1-.227-.758A2.732,2.732,0,0,1,1.152.156,3,3,0,0,1-.906-.562a2.312,2.312,0,0,1-.816-1.812,2.389,2.389,0,0,1,1-2.062,4.915,4.915,0,0,1,2.879-.727H3.191v-.484a1.393,1.393,0,0,0-.3-.937,1.183,1.183,0,0,0-.949-.352,1.345,1.345,0,0,0-.895.273.929.929,0,0,0-.324.75H-1.535a2.268,2.268,0,0,1,.453-1.359A3,3,0,0,1,.2-8.254a4.669,4.669,0,0,1,1.859-.355,3.689,3.689,0,0,1,2.48.785,2.747,2.747,0,0,1,.918,2.207v3.664a4.041,4.041,0,0,0,.336,1.82V0ZM1.645-1.57a1.945,1.945,0,0,0,.922-.223,1.462,1.462,0,0,0,.625-.6V-3.844H2.348q-1.7,0-1.8,1.172l-.008.133a.9.9,0,0,0,.3.7A1.153,1.153,0,0,0,1.645-1.57Zm12.7-1.187,1.57-5.7H18.27L15.418,0H13.262L10.41-8.453H12.77ZM21.645,0H19.379V-8.453h2.266Zm-2.4-10.641a1.112,1.112,0,0,1,.34-.836,1.277,1.277,0,0,1,.926-.328,1.28,1.28,0,0,1,.922.328,1.105,1.105,0,0,1,.344.836,1.108,1.108,0,0,1-.348.844,1.283,1.283,0,0,1-.918.328,1.283,1.283,0,0,1-.918-.328A1.108,1.108,0,0,1,19.246-10.641Zm9.008,4.3a6.134,6.134,0,0,0-.812-.062,1.654,1.654,0,0,0-1.68.867V0H23.5V-8.453h2.133L25.7-7.445a2.092,2.092,0,0,1,1.883-1.164,2.366,2.366,0,0,1,.7.1Zm4.18-4.2v2.078h1.445V-6.8H32.434v4.219a1.007,1.007,0,0,0,.18.672.9.9,0,0,0,.688.2,3.6,3.6,0,0,0,.664-.055V-.047a4.648,4.648,0,0,1-1.367.2,2.156,2.156,0,0,1-2.422-2.4V-6.8H28.941V-8.453h1.234v-2.078ZM40.2-.859A2.831,2.831,0,0,1,37.887.156a2.67,2.67,0,0,1-2.074-.781,3.335,3.335,0,0,1-.73-2.289V-8.453H37.34v5.461q0,1.32,1.2,1.32a1.631,1.631,0,0,0,1.578-.8V-8.453h2.266V0H40.262ZM48.988,0a2.507,2.507,0,0,1-.227-.758,2.732,2.732,0,0,1-2.133.914A3,3,0,0,1,44.57-.562a2.312,2.312,0,0,1-.816-1.812,2.389,2.389,0,0,1,1-2.062,4.915,4.915,0,0,1,2.879-.727h1.039v-.484a1.393,1.393,0,0,0-.3-.937,1.183,1.183,0,0,0-.949-.352,1.345,1.345,0,0,0-.895.273.929.929,0,0,0-.324.75H43.941a2.268,2.268,0,0,1,.453-1.359,3,3,0,0,1,1.281-.98,4.669,4.669,0,0,1,1.859-.355,3.689,3.689,0,0,1,2.48.785,2.747,2.747,0,0,1,.918,2.207v3.664a4.041,4.041,0,0,0,.336,1.82V0ZM47.121-1.57a1.945,1.945,0,0,0,.922-.223,1.462,1.462,0,0,0,.625-.6V-3.844h-.844q-1.7,0-1.8,1.172l-.008.133a.9.9,0,0,0,.3.7A1.153,1.153,0,0,0,47.121-1.57ZM55.051,0H52.785V-12h2.266Z" transform="translate(1076.021 967)" fill="#12263f"/>
    <path id="Trazado_103626" data-name="Trazado 103626" d="M-75.564-5.546h-5.062v3.428h5.941V0h-8.578V-12.8H-74.7v2.136h-5.924v3.05h5.063Zm7.409,2.918a.818.818,0,0,0-.461-.734A5.241,5.241,0,0,0-70.1-3.841q-3.393-.712-3.393-2.883a2.613,2.613,0,0,1,1.05-2.114,4.237,4.237,0,0,1,2.747-.848,4.56,4.56,0,0,1,2.9.853,2.687,2.687,0,0,1,1.085,2.215h-2.54a1.229,1.229,0,0,0-.352-.9,1.488,1.488,0,0,0-1.1-.356,1.52,1.52,0,0,0-.993.29.916.916,0,0,0-.352.738.783.783,0,0,0,.4.681,4.114,4.114,0,0,0,1.349.448,11.019,11.019,0,0,1,1.6.426,2.628,2.628,0,0,1,2.013,2.558A2.481,2.481,0,0,1-66.8-.628a4.815,4.815,0,0,1-2.883.8A5.029,5.029,0,0,1-71.807-.25a3.561,3.561,0,0,1-1.455-1.169,2.716,2.716,0,0,1-.527-1.6h2.408a1.326,1.326,0,0,0,.5,1.037,1.987,1.987,0,0,0,1.248.36,1.839,1.839,0,0,0,1.1-.277A.861.861,0,0,0-68.155-2.628Zm3.709-2.215a5.684,5.684,0,0,1,1-3.542,3.261,3.261,0,0,1,2.738-1.3,2.92,2.92,0,0,1,2.435,1.169l.167-.993h2.232V3.656h-2.549V-.817a2.928,2.928,0,0,1-2.3.993,3.237,3.237,0,0,1-2.707-1.318A5.963,5.963,0,0,1-64.446-4.843Zm2.54.185a3.719,3.719,0,0,0,.479,2.074,1.534,1.534,0,0,0,1.349.712A1.709,1.709,0,0,0-58.425-2.8V-6.732a1.7,1.7,0,0,0-1.635-.9,1.553,1.553,0,0,0-1.362.712A4.107,4.107,0,0,0-61.906-4.658Zm13.72,3.691a3.185,3.185,0,0,1-2.6,1.143A3,3,0,0,1-53.121-.7a3.752,3.752,0,0,1-.822-2.575V-9.51h2.54v6.144q0,1.485,1.354,1.485a1.835,1.835,0,0,0,1.775-.9V-9.51h2.549V0h-2.391ZM-39.432.176a4.668,4.668,0,0,1-3.406-1.283,4.561,4.561,0,0,1-1.314-3.419v-.246A5.745,5.745,0,0,1-43.6-7.334a4.064,4.064,0,0,1,1.569-1.74,4.4,4.4,0,0,1,2.316-.611,3.947,3.947,0,0,1,3.072,1.23,5,5,0,0,1,1.121,3.489v1.037h-6.056a2.36,2.36,0,0,0,.743,1.494,2.245,2.245,0,0,0,1.569.563,2.742,2.742,0,0,0,2.294-1.063l1.248,1.4A3.813,3.813,0,0,1-37.27-.277,5.075,5.075,0,0,1-39.432.176Zm-.29-7.8a1.591,1.591,0,0,0-1.226.51,2.634,2.634,0,0,0-.6,1.459h3.533v-.2a1.878,1.878,0,0,0-.457-1.305A1.642,1.642,0,0,0-39.722-7.629ZM-31.7-9.51l.079,1.063a3.342,3.342,0,0,1,2.733-1.239,2.536,2.536,0,0,1,2.522,1.45,3.265,3.265,0,0,1,2.856-1.45,2.836,2.836,0,0,1,2.3.9,4.141,4.141,0,0,1,.756,2.711V0H-23V-6.064a1.811,1.811,0,0,0-.316-1.182,1.4,1.4,0,0,0-1.116-.374,1.585,1.585,0,0,0-1.582,1.09L-26,0h-2.54V-6.056a1.789,1.789,0,0,0-.325-1.2,1.416,1.416,0,0,0-1.107-.369,1.646,1.646,0,0,0-1.564.9V0h-2.54V-9.51ZM-12.986,0a2.821,2.821,0,0,1-.255-.853A3.073,3.073,0,0,1-15.64.176a3.376,3.376,0,0,1-2.316-.809,2.6,2.6,0,0,1-.918-2.039,2.687,2.687,0,0,1,1.121-2.32,5.529,5.529,0,0,1,3.239-.817h1.169v-.545a1.567,1.567,0,0,0-.338-1.055,1.331,1.331,0,0,0-1.068-.4,1.513,1.513,0,0,0-1.006.308,1.045,1.045,0,0,0-.365.844h-2.54a2.551,2.551,0,0,1,.51-1.529,3.37,3.37,0,0,1,1.441-1.1,5.253,5.253,0,0,1,2.092-.4A4.15,4.15,0,0,1-11.83-8.8,3.09,3.09,0,0,1-10.8-6.319V-2.2a4.546,4.546,0,0,0,.378,2.048V0Zm-2.1-1.767a2.188,2.188,0,0,0,1.037-.25,1.645,1.645,0,0,0,.7-.672V-4.324H-14.3q-1.907,0-2.03,1.318l-.009.149A1.017,1.017,0,0,0-16-2.074,1.3,1.3,0,0,0-15.086-1.767Zm20-8.895H.989V0H-1.648V-10.661H-5.515V-12.8H4.909Zm6.108,3.533A6.9,6.9,0,0,0,10.1-7.2a1.86,1.86,0,0,0-1.89.976V0H5.673V-9.51h2.4l.07,1.134a2.354,2.354,0,0,1,2.118-1.31,2.662,2.662,0,0,1,.791.114ZM17.486,0a2.821,2.821,0,0,1-.255-.853,3.073,3.073,0,0,1-2.4,1.028,3.376,3.376,0,0,1-2.316-.809A2.6,2.6,0,0,1,11.6-2.672a2.687,2.687,0,0,1,1.121-2.32,5.529,5.529,0,0,1,3.239-.817h1.169v-.545a1.567,1.567,0,0,0-.338-1.055,1.331,1.331,0,0,0-1.068-.4,1.513,1.513,0,0,0-1.006.308,1.045,1.045,0,0,0-.365.844h-2.54a2.551,2.551,0,0,1,.51-1.529,3.37,3.37,0,0,1,1.441-1.1,5.253,5.253,0,0,1,2.092-.4,4.15,4.15,0,0,1,2.791.883,3.09,3.09,0,0,1,1.033,2.483V-2.2a4.546,4.546,0,0,0,.378,2.048V0Zm-2.1-1.767a2.188,2.188,0,0,0,1.037-.25,1.645,1.645,0,0,0,.7-.672V-4.324h-.949q-1.907,0-2.03,1.318l-.009.149a1.017,1.017,0,0,0,.334.782A1.3,1.3,0,0,0,15.385-1.767ZM21.23-4.825a5.731,5.731,0,0,1,1-3.542,3.237,3.237,0,0,1,2.729-1.318A2.913,2.913,0,0,1,27.25-8.648V-13.5H29.8V0H27.505l-.123-1.011A2.989,2.989,0,0,1,24.939.176a3.228,3.228,0,0,1-2.694-1.323A5.916,5.916,0,0,1,21.23-4.825Zm2.54.185a3.744,3.744,0,0,0,.466,2.048,1.518,1.518,0,0,0,1.354.712,1.7,1.7,0,0,0,1.661-.993V-6.627a1.676,1.676,0,0,0-1.644-.993Q23.77-7.62,23.77-4.641ZM34.449,0H31.9V-9.51h2.549Zm-2.7-11.971a1.251,1.251,0,0,1,.382-.94,1.436,1.436,0,0,1,1.042-.369,1.44,1.44,0,0,1,1.037.369,1.244,1.244,0,0,1,.387.94,1.247,1.247,0,0,1-.391.949,1.443,1.443,0,0,1-1.033.369,1.443,1.443,0,0,1-1.033-.369A1.247,1.247,0,0,1,31.75-11.971ZM40.5-1.872a1.666,1.666,0,0,0,1.143-.387A1.355,1.355,0,0,0,42.1-3.287h2.382a3.258,3.258,0,0,1-.527,1.771A3.48,3.48,0,0,1,42.53-.268,4.442,4.442,0,0,1,40.54.176a4.129,4.129,0,0,1-3.217-1.3A5.13,5.13,0,0,1,36.145-4.7v-.167a5.071,5.071,0,0,1,1.169-3.507,4.08,4.08,0,0,1,3.208-1.31A4,4,0,0,1,43.383-8.67a3.594,3.594,0,0,1,1.094,2.7H42.1a1.731,1.731,0,0,0-.457-1.2,1.528,1.528,0,0,0-1.16-.461,1.531,1.531,0,0,0-1.34.646,3.739,3.739,0,0,0-.453,2.1v.264a3.786,3.786,0,0,0,.448,2.109A1.55,1.55,0,0,0,40.5-1.872ZM48.608,0H46.059V-9.51h2.549Zm-2.7-11.971a1.251,1.251,0,0,1,.382-.94,1.436,1.436,0,0,1,1.042-.369,1.44,1.44,0,0,1,1.037.369,1.244,1.244,0,0,1,.387.94,1.247,1.247,0,0,1-.391.949,1.443,1.443,0,0,1-1.033.369,1.443,1.443,0,0,1-1.033-.369A1.247,1.247,0,0,1,45.91-11.971ZM50.3-4.843a5.64,5.64,0,0,1,.545-2.522,3.989,3.989,0,0,1,1.569-1.714A4.577,4.577,0,0,1,54.8-9.686a4.33,4.33,0,0,1,3.142,1.178,4.727,4.727,0,0,1,1.358,3.2l.018.65a4.97,4.97,0,0,1-1.222,3.511A4.247,4.247,0,0,1,54.813.176,4.268,4.268,0,0,1,51.53-1.143,5.058,5.058,0,0,1,50.3-4.729Zm2.54.185a3.545,3.545,0,0,0,.51,2.07,1.682,1.682,0,0,0,1.459.716,1.686,1.686,0,0,0,1.441-.708,3.879,3.879,0,0,0,.519-2.263A3.51,3.51,0,0,0,56.254-6.9,1.686,1.686,0,0,0,54.8-7.629a1.659,1.659,0,0,0-1.441.725A3.944,3.944,0,0,0,52.844-4.658ZM63.215-9.51l.079,1.1a3.32,3.32,0,0,1,2.733-1.274,2.759,2.759,0,0,1,2.25.888,4.142,4.142,0,0,1,.756,2.654V0h-2.54V-6.082a1.648,1.648,0,0,0-.352-1.173,1.574,1.574,0,0,0-1.169-.365,1.747,1.747,0,0,0-1.608.914V0h-2.54V-9.51ZM76.469,0a2.821,2.821,0,0,1-.255-.853,3.073,3.073,0,0,1-2.4,1.028A3.376,3.376,0,0,1,71.5-.633a2.6,2.6,0,0,1-.918-2.039A2.687,2.687,0,0,1,71.7-4.992,5.529,5.529,0,0,1,74.94-5.81h1.169v-.545a1.567,1.567,0,0,0-.338-1.055A1.331,1.331,0,0,0,74.7-7.8,1.513,1.513,0,0,0,73.7-7.5a1.045,1.045,0,0,0-.365.844h-2.54a2.551,2.551,0,0,1,.51-1.529,3.37,3.37,0,0,1,1.441-1.1,5.253,5.253,0,0,1,2.092-.4,4.15,4.15,0,0,1,2.791.883,3.09,3.09,0,0,1,1.033,2.483V-2.2a4.546,4.546,0,0,0,.378,2.048V0Zm-2.1-1.767a2.188,2.188,0,0,0,1.037-.25,1.645,1.645,0,0,0,.7-.672V-4.324H75.16q-1.907,0-2.03,1.318l-.009.149a1.017,1.017,0,0,0,.334.782A1.3,1.3,0,0,0,74.369-1.767ZM83.29,0H80.741V-13.5H83.29Z" transform="translate(800 766)" fill="#12263f"/>
    <path id="Trazado_103628" data-name="Trazado 103628" d="M26,0H813a26,26,0,0,1,26,26V287a26,26,0,0,1-26,26H26A26,26,0,0,1,0,287V26A26,26,0,0,1,26,0Z" transform="translate(381 1033)" fill="#f5f5f5"/>
    <g id="flecha-correcta-3" data-name="flecha-correcta" transform="translate(621.153 1171.273)">
      <g id="Grupo_57841-3" data-name="Grupo 57841" transform="translate(1.128 1.128)">
        <path id="Trazado_103583-3" data-name="Trazado 103583" d="M54.241,146.312a6.513,6.513,0,0,1-6.513-6.513V138H14.289A6.788,6.788,0,0,1,7.5,131.215V114.248a6.789,6.789,0,0,1,6.789-6.789H47.728v-1.8a6.508,6.508,0,0,1,10.561-5.1l21.47,17.069a6.51,6.51,0,0,1,0,10.191L58.289,144.9a6.531,6.531,0,0,1-4.048,1.415Z" transform="translate(-7.5 -99.151)" fill="#f5f5f5"/>
      </g>
      <g id="Grupo_57842-3" data-name="Grupo 57842" transform="translate(6.891 6.891)">
        <path id="Trazado_103584-3" data-name="Trazado 103584" d="M108.748,154.721l-21.47-17.069a.746.746,0,0,0-1.211.584v6.814a.746.746,0,0,1-.746.746H47.911a2.072,2.072,0,0,0-2.072,2.072v14.872a2.072,2.072,0,0,0,2.072,2.072H85.32a.746.746,0,0,1,.746.746v6.814a.746.746,0,0,0,1.211.584l21.47-17.069A.746.746,0,0,0,108.748,154.721Z" transform="translate(-45.839 -137.488)" fill="#ffca28"/>
      </g>
      <g id="Grupo_57843-3" data-name="Grupo 57843" transform="translate(45.605 1.128)">
        <path id="Trazado_103585-3" data-name="Trazado 103585" d="M331.133,117.636l-21.47-17.069a6.5,6.5,0,0,0-6.309-1.01,6.523,6.523,0,0,1,1.8,1.01l21.47,17.069a6.51,6.51,0,0,1,0,10.191L305.153,144.9a6.524,6.524,0,0,1-1.8,1.011,6.5,6.5,0,0,0,2.263.4h0a6.53,6.53,0,0,0,4.048-1.416l21.471-17.069a6.51,6.51,0,0,0,0-10.191Z" transform="translate(-303.352 -99.151)" fill="#ebe5ed"/>
      </g>
      <g id="Grupo_57844-3" data-name="Grupo 57844" transform="translate(47.119 6.891)">
        <path id="Trazado_103586-3" data-name="Trazado 103586" d="M336.1,154.721l-21.47-17.069a.746.746,0,0,0-1.211.584v2.039l18.171,14.446a.746.746,0,0,1,0,1.168l-18.171,14.446v2.039a.746.746,0,0,0,1.211.584l21.47-17.069A.746.746,0,0,0,336.1,154.721Z" transform="translate(-313.421 -137.488)" fill="#fcce63"/>
      </g>
      <g id="Grupo_57845-3" data-name="Grupo 57845" transform="translate(0 0)">
        <path id="Trazado_103587-3" data-name="Trazado 103587" d="M47.869,141.067a7.649,7.649,0,0,1-7.641-7.641v-.668h-8.95a1.128,1.128,0,1,1,0-2.255H41.355a1.127,1.127,0,0,1,1.128,1.128v1.8a5.381,5.381,0,0,0,8.732,4.215l21.471-17.069a5.382,5.382,0,0,0,0-8.426L51.215,95.077a5.381,5.381,0,0,0-8.732,4.213v1.8a1.127,1.127,0,0,1-1.128,1.128H7.916a5.668,5.668,0,0,0-5.661,5.661v16.967A5.667,5.667,0,0,0,7.916,130.5H26.768a1.128,1.128,0,0,1,0,2.255H7.916A7.925,7.925,0,0,1,0,124.842V107.875a7.925,7.925,0,0,1,7.916-7.916H40.228V99.29a7.636,7.636,0,0,1,12.39-5.978l21.47,17.069a7.637,7.637,0,0,1,0,11.956L52.618,139.406a7.663,7.663,0,0,1-4.749,1.66Z" transform="translate(0 -91.651)"/>
      </g>
      <g id="Grupo_57846-3" data-name="Grupo 57846" transform="translate(5.764 5.763)">
        <path id="Trazado_103588-3" data-name="Trazado 103588" d="M80.443,167.873a1.88,1.88,0,0,1-.818-.189A1.86,1.86,0,0,1,78.566,166v-6.433H41.538a3.2,3.2,0,0,1-3.2-3.2V141.491a3.2,3.2,0,0,1,3.2-3.2h7.769a1.128,1.128,0,0,1,0,2.255H41.538a.946.946,0,0,0-.945.945v14.872a.946.946,0,0,0,.945.945H78.947a1.876,1.876,0,0,1,1.874,1.874v6.024L101.3,148.927,80.821,132.648v6.024a1.876,1.876,0,0,1-1.874,1.874H53.817a1.128,1.128,0,1,1,0-2.255H78.566v-6.433a1.874,1.874,0,0,1,3.04-1.467l21.47,17.069a1.874,1.874,0,0,1,0,2.933L81.606,167.463A1.865,1.865,0,0,1,80.443,167.873Z" transform="translate(-38.338 -129.982)"/>
      </g>
    </g>
    <g id="flecha-correcta-4" data-name="flecha-correcta" transform="translate(892.937 1171.273)">
      <g id="Grupo_57841-4" data-name="Grupo 57841" transform="translate(1.128 1.128)">
        <path id="Trazado_103583-4" data-name="Trazado 103583" d="M54.241,146.312a6.513,6.513,0,0,1-6.513-6.513V138H14.289A6.788,6.788,0,0,1,7.5,131.215V114.248a6.789,6.789,0,0,1,6.789-6.789H47.728v-1.8a6.508,6.508,0,0,1,10.561-5.1l21.47,17.069a6.51,6.51,0,0,1,0,10.191L58.289,144.9a6.531,6.531,0,0,1-4.048,1.415Z" transform="translate(-7.5 -99.151)" fill="#f5f5f5"/>
      </g>
      <g id="Grupo_57842-4" data-name="Grupo 57842" transform="translate(6.891 6.891)">
        <path id="Trazado_103584-4" data-name="Trazado 103584" d="M108.748,154.721l-21.47-17.069a.746.746,0,0,0-1.211.584v6.814a.746.746,0,0,1-.746.746H47.911a2.072,2.072,0,0,0-2.072,2.072v14.872a2.072,2.072,0,0,0,2.072,2.072H85.32a.746.746,0,0,1,.746.746v6.814a.746.746,0,0,0,1.211.584l21.47-17.069A.746.746,0,0,0,108.748,154.721Z" transform="translate(-45.839 -137.488)" fill="#ffca28"/>
      </g>
      <g id="Grupo_57843-4" data-name="Grupo 57843" transform="translate(45.605 1.128)">
        <path id="Trazado_103585-4" data-name="Trazado 103585" d="M331.133,117.636l-21.47-17.069a6.5,6.5,0,0,0-6.309-1.01,6.523,6.523,0,0,1,1.8,1.01l21.47,17.069a6.51,6.51,0,0,1,0,10.191L305.153,144.9a6.524,6.524,0,0,1-1.8,1.011,6.5,6.5,0,0,0,2.263.4h0a6.53,6.53,0,0,0,4.048-1.416l21.471-17.069a6.51,6.51,0,0,0,0-10.191Z" transform="translate(-303.352 -99.151)" fill="#ebe5ed"/>
      </g>
      <g id="Grupo_57844-4" data-name="Grupo 57844" transform="translate(47.119 6.891)">
        <path id="Trazado_103586-4" data-name="Trazado 103586" d="M336.1,154.721l-21.47-17.069a.746.746,0,0,0-1.211.584v2.039l18.171,14.446a.746.746,0,0,1,0,1.168l-18.171,14.446v2.039a.746.746,0,0,0,1.211.584l21.47-17.069A.746.746,0,0,0,336.1,154.721Z" transform="translate(-313.421 -137.488)" fill="#fcce63"/>
      </g>
      <g id="Grupo_57845-4" data-name="Grupo 57845" transform="translate(0 0)">
        <path id="Trazado_103587-4" data-name="Trazado 103587" d="M47.869,141.067a7.649,7.649,0,0,1-7.641-7.641v-.668h-8.95a1.128,1.128,0,1,1,0-2.255H41.355a1.127,1.127,0,0,1,1.128,1.128v1.8a5.381,5.381,0,0,0,8.732,4.215l21.471-17.069a5.382,5.382,0,0,0,0-8.426L51.215,95.077a5.381,5.381,0,0,0-8.732,4.213v1.8a1.127,1.127,0,0,1-1.128,1.128H7.916a5.668,5.668,0,0,0-5.661,5.661v16.967A5.667,5.667,0,0,0,7.916,130.5H26.768a1.128,1.128,0,0,1,0,2.255H7.916A7.925,7.925,0,0,1,0,124.842V107.875a7.925,7.925,0,0,1,7.916-7.916H40.228V99.29a7.636,7.636,0,0,1,12.39-5.978l21.47,17.069a7.637,7.637,0,0,1,0,11.956L52.618,139.406a7.663,7.663,0,0,1-4.749,1.66Z" transform="translate(0 -91.651)"/>
      </g>
      <g id="Grupo_57846-4" data-name="Grupo 57846" transform="translate(5.764 5.763)">
        <path id="Trazado_103588-4" data-name="Trazado 103588" d="M80.443,167.873a1.88,1.88,0,0,1-.818-.189A1.86,1.86,0,0,1,78.566,166v-6.433H41.538a3.2,3.2,0,0,1-3.2-3.2V141.491a3.2,3.2,0,0,1,3.2-3.2h7.769a1.128,1.128,0,0,1,0,2.255H41.538a.946.946,0,0,0-.945.945v14.872a.946.946,0,0,0,.945.945H78.947a1.876,1.876,0,0,1,1.874,1.874v6.024L101.3,148.927,80.821,132.648v6.024a1.876,1.876,0,0,1-1.874,1.874H53.817a1.128,1.128,0,1,1,0-2.255H78.566v-6.433a1.874,1.874,0,0,1,3.04-1.467l21.47,17.069a1.874,1.874,0,0,1,0,2.933L81.606,167.463A1.865,1.865,0,0,1,80.443,167.873Z" transform="translate(-38.338 -129.982)"/>
      </g>
    </g>
    <path id="Trazado_103629" data-name="Trazado 103629" d="M-87.372-5.546h-5.062v3.428h5.941V0h-8.578V-12.8h8.561v2.136h-5.924v3.05h5.063Zm7.409,2.918a.818.818,0,0,0-.461-.734,5.241,5.241,0,0,0-1.481-.479Q-85.3-4.553-85.3-6.724a2.613,2.613,0,0,1,1.05-2.114A4.237,4.237,0,0,1-81.5-9.686a4.56,4.56,0,0,1,2.9.853A2.687,2.687,0,0,1-77.52-6.618h-2.54a1.229,1.229,0,0,0-.352-.9,1.488,1.488,0,0,0-1.1-.356,1.52,1.52,0,0,0-.993.29.916.916,0,0,0-.352.738.783.783,0,0,0,.4.681,4.114,4.114,0,0,0,1.349.448,11.019,11.019,0,0,1,1.6.426,2.628,2.628,0,0,1,2.013,2.558,2.481,2.481,0,0,1-1.116,2.1,4.815,4.815,0,0,1-2.883.8A5.029,5.029,0,0,1-83.615-.25a3.561,3.561,0,0,1-1.455-1.169,2.716,2.716,0,0,1-.527-1.6h2.408a1.326,1.326,0,0,0,.5,1.037,1.987,1.987,0,0,0,1.248.36,1.839,1.839,0,0,0,1.1-.277A.861.861,0,0,0-79.963-2.628Zm3.709-2.215a5.684,5.684,0,0,1,1-3.542,3.261,3.261,0,0,1,2.738-1.3,2.92,2.92,0,0,1,2.435,1.169l.167-.993h2.232V3.656h-2.549V-.817a2.928,2.928,0,0,1-2.3.993,3.237,3.237,0,0,1-2.707-1.318A5.963,5.963,0,0,1-76.254-4.843Zm2.54.185a3.719,3.719,0,0,0,.479,2.074,1.534,1.534,0,0,0,1.349.712A1.709,1.709,0,0,0-70.233-2.8V-6.732a1.7,1.7,0,0,0-1.635-.9,1.553,1.553,0,0,0-1.362.712A4.107,4.107,0,0,0-73.714-4.658Zm13.72,3.691A3.185,3.185,0,0,1-62.6.176,3,3,0,0,1-64.929-.7a3.752,3.752,0,0,1-.822-2.575V-9.51h2.54v6.144q0,1.485,1.354,1.485a1.835,1.835,0,0,0,1.775-.9V-9.51h2.549V0h-2.391ZM-51.24.176a4.668,4.668,0,0,1-3.406-1.283A4.561,4.561,0,0,1-55.96-4.526v-.246a5.745,5.745,0,0,1,.554-2.562,4.064,4.064,0,0,1,1.569-1.74,4.4,4.4,0,0,1,2.316-.611,3.947,3.947,0,0,1,3.072,1.23,5,5,0,0,1,1.121,3.489v1.037h-6.056a2.36,2.36,0,0,0,.743,1.494,2.245,2.245,0,0,0,1.569.563,2.742,2.742,0,0,0,2.294-1.063l1.248,1.4A3.813,3.813,0,0,1-49.078-.277,5.075,5.075,0,0,1-51.24.176Zm-.29-7.8a1.591,1.591,0,0,0-1.226.51,2.634,2.634,0,0,0-.6,1.459h3.533v-.2a1.878,1.878,0,0,0-.457-1.305A1.642,1.642,0,0,0-51.53-7.629Zm8.024-1.881.079,1.063a3.342,3.342,0,0,1,2.733-1.239,2.536,2.536,0,0,1,2.522,1.45,3.265,3.265,0,0,1,2.856-1.45,2.836,2.836,0,0,1,2.3.9,4.141,4.141,0,0,1,.756,2.711V0H-34.8V-6.064a1.811,1.811,0,0,0-.316-1.182,1.4,1.4,0,0,0-1.116-.374,1.585,1.585,0,0,0-1.582,1.09L-37.811,0h-2.54V-6.056a1.789,1.789,0,0,0-.325-1.2,1.416,1.416,0,0,0-1.107-.369,1.646,1.646,0,0,0-1.564.9V0h-2.54V-9.51ZM-24.794,0a2.821,2.821,0,0,1-.255-.853,3.073,3.073,0,0,1-2.4,1.028,3.376,3.376,0,0,1-2.316-.809,2.6,2.6,0,0,1-.918-2.039,2.687,2.687,0,0,1,1.121-2.32,5.529,5.529,0,0,1,3.239-.817h1.169v-.545a1.567,1.567,0,0,0-.338-1.055,1.331,1.331,0,0,0-1.068-.4,1.513,1.513,0,0,0-1.006.308,1.045,1.045,0,0,0-.365.844h-2.54a2.551,2.551,0,0,1,.51-1.529,3.37,3.37,0,0,1,1.441-1.1,5.253,5.253,0,0,1,2.092-.4,4.15,4.15,0,0,1,2.791.883,3.09,3.09,0,0,1,1.033,2.483V-2.2a4.546,4.546,0,0,0,.378,2.048V0Zm-2.1-1.767a2.188,2.188,0,0,0,1.037-.25,1.645,1.645,0,0,0,.7-.672V-4.324H-26.1q-1.907,0-2.03,1.318l-.009.149a1.017,1.017,0,0,0,.334.782A1.3,1.3,0,0,0-26.895-1.767Zm20.936-2.5A4.528,4.528,0,0,1-7.484-1.011,5.355,5.355,0,0,1-11.109.176a4.816,4.816,0,0,1-3.872-1.657,6.793,6.793,0,0,1-1.411-4.548v-.782a7.671,7.671,0,0,1,.65-3.252,4.874,4.874,0,0,1,1.859-2.158,5.207,5.207,0,0,1,2.808-.751,5.217,5.217,0,0,1,3.568,1.187A4.866,4.866,0,0,1-5.941-8.455H-8.578a2.673,2.673,0,0,0-.69-1.8,2.555,2.555,0,0,0-1.806-.558,2.24,2.24,0,0,0-1.973.945,5.3,5.3,0,0,0-.672,2.931v.967a5.667,5.667,0,0,0,.628,3.032,2.2,2.2,0,0,0,1.982.958,2.6,2.6,0,0,0,1.824-.558A2.521,2.521,0,0,0-8.6-4.263Zm1.169-.58a5.64,5.64,0,0,1,.545-2.522A3.989,3.989,0,0,1-2.676-9.079,4.577,4.577,0,0,1-.3-9.686,4.33,4.33,0,0,1,2.843-8.508,4.727,4.727,0,0,1,4.2-5.309l.018.65A4.97,4.97,0,0,1,3-1.147,4.247,4.247,0,0,1-.281.176,4.268,4.268,0,0,1-3.564-1.143,5.058,5.058,0,0,1-4.79-4.729Zm2.54.185a3.545,3.545,0,0,0,.51,2.07,1.682,1.682,0,0,0,1.459.716A1.686,1.686,0,0,0,1.16-2.58a3.879,3.879,0,0,0,.519-2.263A3.51,3.51,0,0,0,1.16-6.9,1.686,1.686,0,0,0-.3-7.629,1.659,1.659,0,0,0-1.74-6.9,3.944,3.944,0,0,0-2.25-4.658ZM8.121-9.51l.079,1.1a3.32,3.32,0,0,1,2.733-1.274,2.759,2.759,0,0,1,2.25.888,4.142,4.142,0,0,1,.756,2.654V0H11.4V-6.082a1.648,1.648,0,0,0-.352-1.173A1.574,1.574,0,0,0,9.879-7.62a1.747,1.747,0,0,0-1.608.914V0H5.73V-9.51Zm10.784-2.338V-9.51h1.626v1.863H18.905V-2.9a1.133,1.133,0,0,0,.2.756,1.015,1.015,0,0,0,.773.229,4.051,4.051,0,0,0,.747-.062V-.053A5.229,5.229,0,0,1,19.09.176a2.425,2.425,0,0,1-2.725-2.7V-7.646H14.977V-9.51h1.389v-2.338ZM26.323.176a4.668,4.668,0,0,1-3.406-1.283A4.561,4.561,0,0,1,21.6-4.526v-.246a5.745,5.745,0,0,1,.554-2.562,4.064,4.064,0,0,1,1.569-1.74,4.4,4.4,0,0,1,2.316-.611,3.947,3.947,0,0,1,3.072,1.23,5,5,0,0,1,1.121,3.489v1.037H24.179a2.36,2.36,0,0,0,.743,1.494,2.245,2.245,0,0,0,1.569.563,2.742,2.742,0,0,0,2.294-1.063l1.248,1.4A3.813,3.813,0,0,1,28.485-.277,5.075,5.075,0,0,1,26.323.176Zm-.29-7.8a1.591,1.591,0,0,0-1.226.51,2.634,2.634,0,0,0-.6,1.459h3.533v-.2a1.878,1.878,0,0,0-.457-1.305A1.642,1.642,0,0,0,26.033-7.629Zm7.98-1.881.079,1.1a3.32,3.32,0,0,1,2.733-1.274,2.759,2.759,0,0,1,2.25.888,4.142,4.142,0,0,1,.756,2.654V0h-2.54V-6.082a1.648,1.648,0,0,0-.352-1.173,1.574,1.574,0,0,0-1.169-.365,1.747,1.747,0,0,0-1.608.914V0h-2.54V-9.51ZM46.134.176a4.668,4.668,0,0,1-3.406-1.283,4.561,4.561,0,0,1-1.314-3.419v-.246a5.745,5.745,0,0,1,.554-2.562,4.064,4.064,0,0,1,1.569-1.74,4.4,4.4,0,0,1,2.316-.611,3.947,3.947,0,0,1,3.072,1.23,5,5,0,0,1,1.121,3.489v1.037H43.989a2.36,2.36,0,0,0,.743,1.494,2.245,2.245,0,0,0,1.569.563,2.742,2.742,0,0,0,2.294-1.063l1.248,1.4A3.813,3.813,0,0,1,48.3-.277,5.075,5.075,0,0,1,46.134.176Zm-.29-7.8a1.591,1.591,0,0,0-1.226.51,2.634,2.634,0,0,0-.6,1.459h3.533v-.2a1.878,1.878,0,0,0-.457-1.305A1.642,1.642,0,0,0,45.844-7.629Zm5.247,2.8a5.731,5.731,0,0,1,1-3.542,3.237,3.237,0,0,1,2.729-1.318,2.913,2.913,0,0,1,2.294,1.037V-13.5H59.66V0H57.366l-.123-1.011A2.989,2.989,0,0,1,54.8.176a3.228,3.228,0,0,1-2.694-1.323A5.916,5.916,0,0,1,51.091-4.825Zm2.54.185A3.744,3.744,0,0,0,54.1-2.593a1.518,1.518,0,0,0,1.354.712,1.7,1.7,0,0,0,1.661-.993V-6.627a1.676,1.676,0,0,0-1.644-.993Q53.631-7.62,53.631-4.641Zm7.6-.2a5.64,5.64,0,0,1,.545-2.522,3.989,3.989,0,0,1,1.569-1.714,4.577,4.577,0,0,1,2.377-.606,4.33,4.33,0,0,1,3.142,1.178,4.727,4.727,0,0,1,1.358,3.2l.018.65a4.97,4.97,0,0,1-1.222,3.511A4.247,4.247,0,0,1,65.742.176a4.268,4.268,0,0,1-3.283-1.318,5.058,5.058,0,0,1-1.226-3.586Zm2.54.185a3.545,3.545,0,0,0,.51,2.07,1.682,1.682,0,0,0,1.459.716,1.686,1.686,0,0,0,1.441-.708A3.879,3.879,0,0,0,67.7-4.843,3.51,3.51,0,0,0,67.184-6.9a1.686,1.686,0,0,0-1.459-.729,1.659,1.659,0,0,0-1.441.725A3.944,3.944,0,0,0,63.773-4.658ZM77.15-7.128a6.9,6.9,0,0,0-.914-.07,1.86,1.86,0,0,0-1.89.976V0h-2.54V-9.51h2.4l.07,1.134a2.354,2.354,0,0,1,2.118-1.31,2.662,2.662,0,0,1,.791.114Zm5.432,7.3a4.668,4.668,0,0,1-3.406-1.283,4.561,4.561,0,0,1-1.314-3.419v-.246a5.745,5.745,0,0,1,.554-2.562,4.064,4.064,0,0,1,1.569-1.74A4.4,4.4,0,0,1,82.3-9.686a3.947,3.947,0,0,1,3.072,1.23,5,5,0,0,1,1.121,3.489v1.037H80.438a2.36,2.36,0,0,0,.743,1.494,2.245,2.245,0,0,0,1.569.563,2.742,2.742,0,0,0,2.294-1.063l1.248,1.4A3.813,3.813,0,0,1,84.744-.277,5.075,5.075,0,0,1,82.582.176Zm-.29-7.8a1.591,1.591,0,0,0-1.226.51,2.634,2.634,0,0,0-.6,1.459H84v-.2a1.878,1.878,0,0,0-.457-1.305A1.642,1.642,0,0,0,82.292-7.629Zm10.793,5a.818.818,0,0,0-.461-.734,5.241,5.241,0,0,0-1.481-.479Q87.75-4.553,87.75-6.724A2.613,2.613,0,0,1,88.8-8.837a4.237,4.237,0,0,1,2.747-.848,4.56,4.56,0,0,1,2.9.853,2.687,2.687,0,0,1,1.085,2.215h-2.54a1.229,1.229,0,0,0-.352-.9,1.488,1.488,0,0,0-1.1-.356,1.52,1.52,0,0,0-.993.29.916.916,0,0,0-.352.738.783.783,0,0,0,.4.681,4.114,4.114,0,0,0,1.349.448,11.019,11.019,0,0,1,1.6.426,2.628,2.628,0,0,1,2.013,2.558,2.481,2.481,0,0,1-1.116,2.1,4.815,4.815,0,0,1-2.883.8A5.029,5.029,0,0,1,89.433-.25a3.561,3.561,0,0,1-1.455-1.169,2.716,2.716,0,0,1-.527-1.6h2.408a1.326,1.326,0,0,0,.5,1.037,1.987,1.987,0,0,0,1.248.36,1.839,1.839,0,0,0,1.1-.277A.861.861,0,0,0,93.085-2.628Z" transform="translate(800 1087)" fill="#12263f"/>
    <g id="Grupo_57793" data-name="Grupo 57793" transform="translate(1012.784 1071.783)">
      <g id="envase_1_" data-name="envase (1)" transform="translate(0 41.79)">
        <path id="Trazado_103456" data-name="Trazado 103456" d="M162.434,376.112H57.777a2.18,2.18,0,0,1-2.18-2.18V330.324a2.18,2.18,0,0,1,2.18-2.18H162.434a2.18,2.18,0,0,1,2.18,2.18v43.607A2.18,2.18,0,0,1,162.434,376.112Z" transform="translate(-53.557 -238.89)" fill="#96c3f0"/>
        <ellipse id="Elipse_1557" data-name="Elipse 1557" cx="4.36" cy="4.36" rx="4.36" ry="4.36" transform="translate(52.189 28.203)" fill="#867e88"/>
        <path id="Trazado_103457" data-name="Trazado 103457" d="M241.079,127.741h-10.83a2.18,2.18,0,0,0-2,3.039l4.672,10.9a2.18,2.18,0,0,0,2,1.321h1.485a2.18,2.18,0,0,0,2-1.321l4.672-10.9A2.18,2.18,0,0,0,241.079,127.741Z" transform="translate(-179.115 -92.996)" fill="#ffd164"/>
        <path id="Trazado_103458" data-name="Trazado 103458" d="M156.974,87.214h-1.644l-44.4-25.1a6.4,6.4,0,0,0-4.2-7.263.361.361,0,0,1-.042-.171V51.842a4.214,4.214,0,0,0,2.582-2.352l4.672-10.9a4.219,4.219,0,0,0-2.893-5.766V2.04a2.04,2.04,0,0,0-4.08,0V26.6a6.375,6.375,0,0,0-4.641,0V2.04a2.04,2.04,0,0,0-4.08,0V32.823a4.219,4.219,0,0,0-2.893,5.765l4.672,10.9a4.213,4.213,0,0,0,2.582,2.352v2.843a4.182,4.182,0,0,0,2.777,4.023,2.321,2.321,0,1,1-3.058,2.2,2.04,2.04,0,0,0-4.08,0,6.4,6.4,0,0,0,.116,1.209l-44.4,25.1H52.317a4.225,4.225,0,0,0-4.22,4.22v43.607a4.225,4.225,0,0,0,4.22,4.22H156.974a4.225,4.225,0,0,0,4.22-4.22V91.434A4.225,4.225,0,0,0,156.974,87.214Zm-52.328-56.97a2.323,2.323,0,0,1,2.321,2.321v.14h-4.641v-.14A2.323,2.323,0,0,1,104.646,30.244ZM99.1,36.981a.14.14,0,0,1,.129-.2h10.83a.14.14,0,0,1,.129.2l-4.672,10.9a.14.14,0,0,1-.129.085H103.9a.14.14,0,0,1-.129-.085Zm1.269,28.688a6.386,6.386,0,0,0,8.549,0l38.119,21.545H62.253ZM80.8,91.294v43.888H73.981V91.294Zm4.08,0H91.7v43.888H84.882Zm10.9,0h6.822v43.888H95.784Zm10.9,0h6.822v43.888h-6.822Zm10.9,0h6.822v43.888h-6.822Zm10.9,0h6.822v43.888h-6.822ZM52.177,135.041V91.434a.14.14,0,0,1,.14-.14H59v30.665a2.04,2.04,0,1,0,4.08,0V91.294H69.9v43.888H63.078v-4.5a2.04,2.04,0,1,0-4.08,0v4.5H52.317A.141.141,0,0,1,52.177,135.041Zm104.938,0a.14.14,0,0,1-.14.14h-6.681V104.516a2.04,2.04,0,1,0-4.08,0v30.665h-6.822V91.294h6.822v4.5a2.04,2.04,0,0,0,4.08,0v-4.5h6.681a.14.14,0,0,1,.14.14v43.607Z" transform="translate(-48.097 0)"/>
      </g>
    </g>
    <path id="Trazado_103630" data-name="Trazado 103630" d="M-18.93,0h-2.344V-11.375h2.344Zm4.141-8.453.07.945a2.971,2.971,0,0,1,2.43-1.1A2.255,2.255,0,0,1-10.047-7.32,2.9,2.9,0,0,1-7.508-8.609a2.521,2.521,0,0,1,2.047.8A3.681,3.681,0,0,1-4.789-5.4V0H-7.055V-5.391a1.61,1.61,0,0,0-.281-1.051,1.246,1.246,0,0,0-.992-.332A1.409,1.409,0,0,0-9.734-5.8L-9.727,0h-2.258V-5.383a1.59,1.59,0,0,0-.289-1.062,1.259,1.259,0,0,0-.984-.328,1.463,1.463,0,0,0-1.391.8V0h-2.258V-8.453ZM1.844,0a2.507,2.507,0,0,1-.227-.758A2.732,2.732,0,0,1-.516.156,3,3,0,0,1-2.574-.562a2.312,2.312,0,0,1-.816-1.812,2.389,2.389,0,0,1,1-2.062A4.915,4.915,0,0,1,.484-5.164H1.523v-.484a1.393,1.393,0,0,0-.3-.937,1.183,1.183,0,0,0-.949-.352,1.345,1.345,0,0,0-.895.273.929.929,0,0,0-.324.75H-3.2A2.268,2.268,0,0,1-2.75-7.273a3,3,0,0,1,1.281-.98A4.669,4.669,0,0,1,.391-8.609a3.689,3.689,0,0,1,2.48.785,2.747,2.747,0,0,1,.918,2.207v3.664a4.041,4.041,0,0,0,.336,1.82V0ZM-.023-1.57A1.945,1.945,0,0,0,.9-1.793a1.462,1.462,0,0,0,.625-.6V-3.844H.68q-1.7,0-1.8,1.172l-.008.133a.9.9,0,0,0,.3.7A1.153,1.153,0,0,0-.023-1.57ZM5.2-4.289a4.954,4.954,0,0,1,.926-3.133,3,3,0,0,1,2.5-1.187,2.631,2.631,0,0,1,2.164.953l.094-.8h2.047V-.281a3.613,3.613,0,0,1-.5,1.93A3.236,3.236,0,0,1,11,2.9a4.985,4.985,0,0,1-2.141.43,4.635,4.635,0,0,1-1.812-.371A3.217,3.217,0,0,1,5.711,2l1-1.375a2.645,2.645,0,0,0,2.047.945,1.936,1.936,0,0,0,1.4-.48,1.8,1.8,0,0,0,.5-1.363V-.727A2.612,2.612,0,0,1,8.6.156,2.992,2.992,0,0,1,6.137-1.035,4.953,4.953,0,0,1,5.2-4.2Zm2.258.164a3.076,3.076,0,0,0,.461,1.8,1.467,1.467,0,0,0,1.266.652,1.568,1.568,0,0,0,1.477-.773V-6A1.565,1.565,0,0,0,9.2-6.773a1.476,1.476,0,0,0-1.277.664A3.467,3.467,0,0,0,7.453-4.125ZM18.547.156A4.15,4.15,0,0,1,15.52-.984a4.054,4.054,0,0,1-1.168-3.039v-.219a5.106,5.106,0,0,1,.492-2.277,3.612,3.612,0,0,1,1.395-1.547A3.914,3.914,0,0,1,18.3-8.609a3.508,3.508,0,0,1,2.73,1.094,4.444,4.444,0,0,1,1,3.1v.922H16.641a2.1,2.1,0,0,0,.66,1.328,2,2,0,0,0,1.395.5,2.437,2.437,0,0,0,2.039-.945l1.109,1.242A3.389,3.389,0,0,1,20.469-.246,4.511,4.511,0,0,1,18.547.156Zm-.258-6.937a1.414,1.414,0,0,0-1.09.453,2.341,2.341,0,0,0-.535,1.3H19.8v-.18a1.669,1.669,0,0,0-.406-1.16A1.459,1.459,0,0,0,18.289-6.781Z" transform="translate(526 1288)" fill="#12263f"/>
    <g id="Grupo_57848" data-name="Grupo 57848" transform="translate(-0.351 -7)">
      <g id="docker" transform="translate(464.351 1141.051)">
        <path id="Trazado_103446" data-name="Trazado 103446" d="M123.861,61.931a63.955,63.955,0,1,1-.01-1.054C123.859,61.228,123.861,61.579,123.861,61.931Z" fill="#1565c0"/>
        <g id="Grupo_57775" data-name="Grupo 57775" transform="translate(13.147 24.618)">
          <path id="Trazado_103447" data-name="Trazado 103447" d="M165.051,185.517c-5.288,6.441-15.65,5.938-15.65,5.938-6.39,27.53-44.982,41.542-71.776,34.658s-23.106-38.837-23.106-38.837h78.414c6.471,0,6.964-1.967,6.964-1.967-5.736-13.6,3.114-20.895,3.114-20.895,6.883,1.231,8.6,13.028,8.6,13.028a22.966,22.966,0,0,1,12.962,1.352A61.4,61.4,0,0,1,165.051,185.517Z" transform="translate(-54.347 -149.258)" fill="#f2f2f2"/>
          <rect id="Rectngulo_7084" data-name="Rectngulo 7084" width="10.981" height="9.996" transform="translate(8.528 25.563)" fill="#f2f2f2"/>
          <rect id="Rectngulo_7085" data-name="Rectngulo 7085" width="10.981" height="9.996" transform="translate(22.328 25.563)" fill="#f2f2f2"/>
          <rect id="Rectngulo_7086" data-name="Rectngulo 7086" width="10.981" height="9.996" transform="translate(63.72 25.563)" fill="#f2f2f2"/>
          <rect id="Rectngulo_7087" data-name="Rectngulo 7087" width="10.981" height="9.996" transform="translate(49.923 25.563)" fill="#f2f2f2"/>
          <rect id="Rectngulo_7088" data-name="Rectngulo 7088" width="10.981" height="9.996" transform="translate(49.923)" fill="#f2f2f2"/>
          <rect id="Rectngulo_7089" data-name="Rectngulo 7089" width="10.981" height="9.996" transform="translate(36.124 25.563)" fill="#f2f2f2"/>
          <rect id="Rectngulo_7090" data-name="Rectngulo 7090" width="10.981" height="9.996" transform="translate(22.328 12.78)" fill="#f2f2f2"/>
          <rect id="Rectngulo_7091" data-name="Rectngulo 7091" width="10.981" height="9.996" transform="translate(49.923 12.78)" fill="#f2f2f2"/>
          <rect id="Rectngulo_7092" data-name="Rectngulo 7092" width="10.981" height="9.996" transform="translate(36.124 12.78)" fill="#f2f2f2"/>
        </g>
      </g>
      <path id="Trazado_103622" data-name="Trazado 103622" d="M-27.725,0V-12.8H-23.6a6.064,6.064,0,0,1,3.05.769,5.406,5.406,0,0,1,2.114,2.171,6.554,6.554,0,0,1,.769,3.142v.589a6.592,6.592,0,0,1-.743,3.151A5.429,5.429,0,0,1-20.5-.8a5.93,5.93,0,0,1-3.01.8Zm3.085-10.415v8.042h1.072a2.4,2.4,0,0,0,2.039-.945,4.63,4.63,0,0,0,.712-2.808V-6.68a4.592,4.592,0,0,0-.712-2.795,2.442,2.442,0,0,0-2.074-.94ZM-16.6-4.843a5.613,5.613,0,0,1,.554-2.536,3.96,3.96,0,0,1,1.591-1.709,4.791,4.791,0,0,1,2.435-.6A4.373,4.373,0,0,1-8.653-8.363a5.076,5.076,0,0,1,1.23,3.6v.105A4.925,4.925,0,0,1-8.657-1.129,4.384,4.384,0,0,1-12,.176a4.434,4.434,0,0,1-3.261-1.217,4.761,4.761,0,0,1-1.327-3.3Zm2.962.185a3.538,3.538,0,0,0,.413,1.934A1.376,1.376,0,0,0-12-2.109q1.582,0,1.617-2.435v-.3q0-2.558-1.635-2.558-1.485,0-1.608,2.206ZM-2.1-2.109a1.317,1.317,0,0,0,.967-.338A1.241,1.241,0,0,0-.8-3.393H1.982A3.288,3.288,0,0,1,.861-.826a4.168,4.168,0,0,1-2.887,1,4.22,4.22,0,0,1-3.27-1.3,5.125,5.125,0,0,1-1.2-3.6v-.123A5.792,5.792,0,0,1-5.959-7.4a3.872,3.872,0,0,1,1.534-1.7,4.573,4.573,0,0,1,2.373-.593A4.116,4.116,0,0,1,.892-8.657a3.647,3.647,0,0,1,1.09,2.786H-.8A1.626,1.626,0,0,0-1.156-7a1.244,1.244,0,0,0-.967-.4q-1.151,0-1.345,1.468a10.357,10.357,0,0,0-.062,1.283,4.068,4.068,0,0,0,.343,1.986A1.187,1.187,0,0,0-2.1-2.109ZM7.053-3.542l-.835.835V0H3.256V-13.509H6.218v7.172l.3-.4L8.75-9.51H12.3L8.969-5.6,12.52,0H9.127ZM17.5.176a4.889,4.889,0,0,1-3.542-1.305,4.507,4.507,0,0,1-1.354-3.4v-.246a5.84,5.84,0,0,1,.541-2.575,3.955,3.955,0,0,1,1.578-1.727,4.763,4.763,0,0,1,2.461-.611,4.117,4.117,0,0,1,3.164,1.244,4.887,4.887,0,0,1,1.16,3.467v1.151H15.623a2.135,2.135,0,0,0,.694,1.257,2.066,2.066,0,0,0,1.389.457,2.662,2.662,0,0,0,2.2-.984l1.354,1.6A3.784,3.784,0,0,1,19.688-.277,5.3,5.3,0,0,1,17.5.176ZM17.169-7.4q-1.3,0-1.547,1.723h2.988v-.229a1.467,1.467,0,0,0-.36-1.1A1.434,1.434,0,0,0,17.169-7.4Zm11.285.571-.976-.07a1.752,1.752,0,0,0-1.793.879V0H22.724V-9.51H25.5l.1,1.222a2.294,2.294,0,0,1,2.083-1.4,2.888,2.888,0,0,1,.826.105Z" transform="translate(521 1224)" fill="#1565c0"/>
    </g>
    <g id="Grupo_57849" data-name="Grupo 57849" transform="translate(267.067 -7)">
      <g id="docker-2" data-name="docker" transform="translate(464.351 1141.051)">
        <path id="Trazado_103446-2" data-name="Trazado 103446" d="M123.861,61.931a63.955,63.955,0,1,1-.01-1.054C123.859,61.228,123.861,61.579,123.861,61.931Z" fill="#1565c0"/>
        <g id="Grupo_57775-2" data-name="Grupo 57775" transform="translate(13.147 24.618)">
          <path id="Trazado_103447-2" data-name="Trazado 103447" d="M165.051,185.517c-5.288,6.441-15.65,5.938-15.65,5.938-6.39,27.53-44.982,41.542-71.776,34.658s-23.106-38.837-23.106-38.837h78.414c6.471,0,6.964-1.967,6.964-1.967-5.736-13.6,3.114-20.895,3.114-20.895,6.883,1.231,8.6,13.028,8.6,13.028a22.966,22.966,0,0,1,12.962,1.352A61.4,61.4,0,0,1,165.051,185.517Z" transform="translate(-54.347 -149.258)" fill="#f2f2f2"/>
          <rect id="Rectngulo_7084-2" data-name="Rectngulo 7084" width="10.981" height="9.996" transform="translate(8.528 25.563)" fill="#f2f2f2"/>
          <rect id="Rectngulo_7085-2" data-name="Rectngulo 7085" width="10.981" height="9.996" transform="translate(22.328 25.563)" fill="#f2f2f2"/>
          <rect id="Rectngulo_7086-2" data-name="Rectngulo 7086" width="10.981" height="9.996" transform="translate(63.72 25.563)" fill="#f2f2f2"/>
          <rect id="Rectngulo_7087-2" data-name="Rectngulo 7087" width="10.981" height="9.996" transform="translate(49.923 25.563)" fill="#f2f2f2"/>
          <rect id="Rectngulo_7088-2" data-name="Rectngulo 7088" width="10.981" height="9.996" transform="translate(49.923)" fill="#f2f2f2"/>
          <rect id="Rectngulo_7089-2" data-name="Rectngulo 7089" width="10.981" height="9.996" transform="translate(36.124 25.563)" fill="#f2f2f2"/>
          <rect id="Rectngulo_7090-2" data-name="Rectngulo 7090" width="10.981" height="9.996" transform="translate(22.328 12.78)" fill="#f2f2f2"/>
          <rect id="Rectngulo_7091-2" data-name="Rectngulo 7091" width="10.981" height="9.996" transform="translate(49.923 12.78)" fill="#f2f2f2"/>
          <rect id="Rectngulo_7092-2" data-name="Rectngulo 7092" width="10.981" height="9.996" transform="translate(36.124 12.78)" fill="#f2f2f2"/>
        </g>
      </g>
      <path id="Trazado_103623" data-name="Trazado 103623" d="M-27.725,0V-12.8H-23.6a6.064,6.064,0,0,1,3.05.769,5.406,5.406,0,0,1,2.114,2.171,6.554,6.554,0,0,1,.769,3.142v.589a6.592,6.592,0,0,1-.743,3.151A5.429,5.429,0,0,1-20.5-.8a5.93,5.93,0,0,1-3.01.8Zm3.085-10.415v8.042h1.072a2.4,2.4,0,0,0,2.039-.945,4.63,4.63,0,0,0,.712-2.808V-6.68a4.592,4.592,0,0,0-.712-2.795,2.442,2.442,0,0,0-2.074-.94ZM-16.6-4.843a5.613,5.613,0,0,1,.554-2.536,3.96,3.96,0,0,1,1.591-1.709,4.791,4.791,0,0,1,2.435-.6A4.373,4.373,0,0,1-8.653-8.363a5.076,5.076,0,0,1,1.23,3.6v.105A4.925,4.925,0,0,1-8.657-1.129,4.384,4.384,0,0,1-12,.176a4.434,4.434,0,0,1-3.261-1.217,4.761,4.761,0,0,1-1.327-3.3Zm2.962.185a3.538,3.538,0,0,0,.413,1.934A1.376,1.376,0,0,0-12-2.109q1.582,0,1.617-2.435v-.3q0-2.558-1.635-2.558-1.485,0-1.608,2.206ZM-2.1-2.109a1.317,1.317,0,0,0,.967-.338A1.241,1.241,0,0,0-.8-3.393H1.982A3.288,3.288,0,0,1,.861-.826a4.168,4.168,0,0,1-2.887,1,4.22,4.22,0,0,1-3.27-1.3,5.125,5.125,0,0,1-1.2-3.6v-.123A5.792,5.792,0,0,1-5.959-7.4a3.872,3.872,0,0,1,1.534-1.7,4.573,4.573,0,0,1,2.373-.593A4.116,4.116,0,0,1,.892-8.657a3.647,3.647,0,0,1,1.09,2.786H-.8A1.626,1.626,0,0,0-1.156-7a1.244,1.244,0,0,0-.967-.4q-1.151,0-1.345,1.468a10.357,10.357,0,0,0-.062,1.283,4.068,4.068,0,0,0,.343,1.986A1.187,1.187,0,0,0-2.1-2.109ZM7.053-3.542l-.835.835V0H3.256V-13.509H6.218v7.172l.3-.4L8.75-9.51H12.3L8.969-5.6,12.52,0H9.127ZM17.5.176a4.889,4.889,0,0,1-3.542-1.305,4.507,4.507,0,0,1-1.354-3.4v-.246a5.84,5.84,0,0,1,.541-2.575,3.955,3.955,0,0,1,1.578-1.727,4.763,4.763,0,0,1,2.461-.611,4.117,4.117,0,0,1,3.164,1.244,4.887,4.887,0,0,1,1.16,3.467v1.151H15.623a2.135,2.135,0,0,0,.694,1.257,2.066,2.066,0,0,0,1.389.457,2.662,2.662,0,0,0,2.2-.984l1.354,1.6A3.784,3.784,0,0,1,19.688-.277,5.3,5.3,0,0,1,17.5.176ZM17.169-7.4q-1.3,0-1.547,1.723h2.988v-.229a1.467,1.467,0,0,0-.36-1.1A1.434,1.434,0,0,0,17.169-7.4Zm11.285.571-.976-.07a1.752,1.752,0,0,0-1.793.879V0H22.724V-9.51H25.5l.1,1.222a2.294,2.294,0,0,1,2.083-1.4,2.888,2.888,0,0,1,.826.105Z" transform="translate(521 1224)" fill="#1565c0"/>
    </g>
  </g>
</svg>
