<svg xmlns="http://www.w3.org/2000/svg" width="292" height="247" viewBox="0 0 292 247">
  <g id="Grupo_57967" data-name="Grupo 57967" transform="translate(-650 -1713)">
    <rect id="Rectángulo_7125" data-name="Rectángulo 7125" width="292" height="247" rx="24" transform="translate(650 1713)" fill="#f3f9ff"/>
    <g id="envase_1_" data-name="envase (1)" transform="translate(731.001 1784.6)">
      <path id="Trazado_103456" data-name="Trazado 103456" d="M177.568,382.906H58.086a2.489,2.489,0,0,1-2.489-2.489V330.633a2.489,2.489,0,0,1,2.489-2.489H177.568a2.489,2.489,0,0,1,2.489,2.489v49.784A2.489,2.489,0,0,1,177.568,382.906Z" transform="translate(-53.268 -226.247)" fill="#d6d6d6"/>
      <ellipse id="Elipse_1557" data-name="Elipse 1557" cx="4.978" cy="4.978" rx="4.978" ry="4.978" transform="translate(59.582 32.198)" fill="#867e88"/>
      <path id="Trazado_103457" data-name="Trazado 103457" d="M242.922,127.741H230.558a2.489,2.489,0,0,0-2.288,3.47l5.334,12.446a2.489,2.489,0,0,0,2.288,1.509h1.7a2.489,2.489,0,0,0,2.288-1.509l5.334-12.446A2.489,2.489,0,0,0,242.922,127.741Z" transform="translate(-172.181 -88.074)" fill="#ffd164"/>
      <path id="Trazado_103458" data-name="Trazado 103458" d="M172.4,99.568h-1.876l-50.69-28.651a7.3,7.3,0,0,0-4.8-8.292.412.412,0,0,1-.048-.195V59.185a4.811,4.811,0,0,0,2.948-2.685l5.334-12.446a4.817,4.817,0,0,0-3.3-6.582V2.329a2.329,2.329,0,0,0-4.658,0V30.37a7.278,7.278,0,0,0-5.3,0V2.329a2.329,2.329,0,0,0-4.658,0V37.472a4.817,4.817,0,0,0-3.3,6.582L107.38,56.5a4.81,4.81,0,0,0,2.948,2.685v3.246a4.774,4.774,0,0,0,3.171,4.592,2.65,2.65,0,1,1-3.491,2.513,2.329,2.329,0,0,0-4.658,0,7.3,7.3,0,0,0,.133,1.38L54.792,99.568H52.915a4.823,4.823,0,0,0-4.818,4.818V154.17a4.823,4.823,0,0,0,4.818,4.818H172.4a4.823,4.823,0,0,0,4.818-4.818V104.386A4.823,4.823,0,0,0,172.4,99.568Zm-59.741-65.04a2.652,2.652,0,0,1,2.649,2.649v.16h-5.3v-.16A2.652,2.652,0,0,1,112.656,34.528Zm-6.329,7.691a.16.16,0,0,1,.147-.223h12.364a.16.16,0,0,1,.147.223l-5.334,12.446a.16.16,0,0,1-.147.1h-1.7a.16.16,0,0,1-.147-.1Zm1.449,32.752a7.291,7.291,0,0,0,9.76,0l43.518,24.6h-96.8ZM85.435,104.226v50.1H77.647v-50.1Zm4.658,0h7.789v50.1H90.093Zm12.446,0h7.788v50.1h-7.788Zm12.446,0h7.788v50.1h-7.788Zm12.446,0h7.788v50.1h-7.788Zm12.446,0h7.788v50.1h-7.788ZM52.755,154.17V104.386a.16.16,0,0,1,.16-.16h7.628v35.009a2.329,2.329,0,1,0,4.658,0V104.226h7.788v50.1H65.2v-5.139a2.329,2.329,0,1,0-4.658,0v5.139H52.915A.161.161,0,0,1,52.755,154.17Zm119.8,0a.16.16,0,0,1-.16.16h-7.628V119.321a2.329,2.329,0,1,0-4.658,0V154.33h-7.788v-50.1h7.788v5.139a2.329,2.329,0,0,0,4.658,0v-5.139H172.4a.16.16,0,0,1,.16.16V154.17Z" transform="translate(-48.097 0)"/>
    </g>
    <g id="Grupo_57962" data-name="Grupo 57962" transform="translate(115.561)">
      <rect id="Rectángulo_7250" data-name="Rectángulo 7250" width="64.539" height="67.305" rx="5" transform="translate(649.745 1730.554)" fill="#d4fbff"/>
      <path id="Rectángulo_7251" data-name="Rectángulo 7251" d="M5,0H58.617a5,5,0,0,1,5,5V17.518a0,0,0,0,1,0,0H0a0,0,0,0,1,0,0V5A5,5,0,0,1,5,0Z" transform="translate(649.745 1727.788)" fill="#bcbcbc"/>
      <g id="navegador" transform="translate(642.464 1726.457)">
        <path id="Trazado_103792" data-name="Trazado 103792" d="M67.007,0H8.064A8.073,8.073,0,0,0,0,8.064V67.007A8.073,8.073,0,0,0,8.064,75.07H67.007a8.073,8.073,0,0,0,8.064-8.064V8.064A8.073,8.073,0,0,0,67.007,0ZM8.064,4.4H67.007a3.669,3.669,0,0,1,3.665,3.665v9.678H4.4V8.064A3.669,3.669,0,0,1,8.064,4.4ZM67.007,70.672H8.064A3.669,3.669,0,0,1,4.4,67.007V22.14H70.672V67.007A3.669,3.669,0,0,1,67.007,70.672Zm0,0" transform="translate(0.001 0)" fill="#21214b"/>
        <path id="Trazado_103793" data-name="Trazado 103793" d="M425.4,63.2a2.2,2.2,0,1,1-2.2-2.2A2.2,2.2,0,0,1,425.4,63.2Zm0,0" transform="translate(-359.272 -52.056)" fill="#21214b"/>
        <path id="Trazado_103794" data-name="Trazado 103794" d="M365.4,63.2a2.2,2.2,0,1,1-2.2-2.2A2.2,2.2,0,0,1,365.4,63.2Zm0,0" transform="translate(-308.069 -52.056)" fill="#21214b"/>
        <path id="Trazado_103795" data-name="Trazado 103795" d="M305.4,63.2a2.2,2.2,0,1,1-2.2-2.2A2.2,2.2,0,0,1,305.4,63.2Zm0,0" transform="translate(-256.866 -52.056)" fill="#21214b"/>
      </g>
    </g>
    <g id="social-media" transform="translate(777.197 1753.961)">
      <g id="Grupo_57964" data-name="Grupo 57964" transform="translate(0.538 0.538)">
        <path id="Trazado_103796" data-name="Trazado 103796" d="M106.6,84.855A13.226,13.226,0,0,0,93.376,71.629c-7.3,0-12.567,5.921-12.567,13.226A12.2,12.2,0,0,0,93.376,97.508C100.68,97.508,106.6,92.159,106.6,84.855Z" transform="translate(-75.55 -67.029)" fill="#7ad7ee"/>
        <path id="Trazado_103797" data-name="Trazado 103797" d="M87.73,128.183a13.223,13.223,0,0,1-10.677-21.028,13.224,13.224,0,1,0,18.479,18.479A13.162,13.162,0,0,1,87.73,128.183Z" transform="translate(-67.029 -100.006)" fill="#4bc3ef"/>
        <circle id="Elipse_1578" data-name="Elipse 1578" cx="5.75" cy="5.75" r="5.75" transform="translate(0)" fill="#98db7c"/>
        <circle id="Elipse_1579" data-name="Elipse 1579" cx="1.15" cy="1.15" r="1.15" transform="translate(4.6 2.875)" fill="#fff"/>
        <path id="Trazado_103798" data-name="Trazado 103798" d="M14.623,31.337a5.745,5.745,0,0,1-4.691-9.069,5.747,5.747,0,1,0,8.009,8.009,5.717,5.717,0,0,1-3.318,1.059Z" transform="translate(-7.5 -21.209)" fill="#77cc7d"/>
        <path id="Trazado_103799" data-name="Trazado 103799" d="M51.03,103.694H49.88a2.3,2.3,0,0,0-2.3,2.3v1.525a5.717,5.717,0,0,0,5.75,0v-1.525A2.3,2.3,0,0,0,51.03,103.694Z" transform="translate(-44.705 -96.794)" fill="#fff"/>
        <path id="Trazado_103800" data-name="Trazado 103800" d="M50.457,127.8a5.694,5.694,0,0,0,2.875-.782v-.794a5.715,5.715,0,0,1-5.6-1.516,2.282,2.282,0,0,0-.149.793v1.525A5.717,5.717,0,0,0,50.457,127.8Z" transform="translate(-44.707 -116.301)" fill="#e9f8d8"/>
        <circle id="Elipse_1580" data-name="Elipse 1580" cx="5.75" cy="5.75" r="5.75" transform="translate(24.151)" fill="#f2d1ff"/>
        <circle id="Elipse_1581" data-name="Elipse 1581" cx="1.15" cy="1.15" r="1.15" transform="translate(28.751 2.875)" fill="#fff"/>
        <path id="Trazado_103801" data-name="Trazado 103801" d="M351.3,31.337a5.745,5.745,0,0,1-4.691-9.069,5.747,5.747,0,1,0,8.009,8.009A5.718,5.718,0,0,1,351.3,31.337Z" transform="translate(-320.027 -21.209)" fill="#dfbdf0"/>
        <path id="Trazado_103802" data-name="Trazado 103802" d="M387.708,103.694h-1.15a2.3,2.3,0,0,0-2.3,2.3v1.525a5.717,5.717,0,0,0,5.75,0v-1.525A2.3,2.3,0,0,0,387.708,103.694Z" transform="translate(-357.232 -96.794)" fill="#fff"/>
        <path id="Trazado_103803" data-name="Trazado 103803" d="M387.135,127.8a5.694,5.694,0,0,0,2.875-.782v-.794a5.715,5.715,0,0,1-5.6-1.516,2.282,2.282,0,0,0-.149.793v1.525A5.716,5.716,0,0,0,387.135,127.8Z" transform="translate(-357.234 -116.301)" fill="#fcf2ff"/>
        <circle id="Elipse_1582" data-name="Elipse 1582" cx="5.75" cy="5.75" r="5.75" transform="translate(0 24.151)" fill="#ffe077"/>
        <circle id="Elipse_1583" data-name="Elipse 1583" cx="1.15" cy="1.15" r="1.15" transform="translate(4.6 27.026)" fill="#fff"/>
        <path id="Trazado_103804" data-name="Trazado 103804" d="M14.623,368.014a5.745,5.745,0,0,1-4.691-9.069,5.747,5.747,0,1,0,8.009,8.009,5.718,5.718,0,0,1-3.318,1.059Z" transform="translate(-7.5 -333.735)" fill="#ffd05b"/>
        <path id="Trazado_103805" data-name="Trazado 103805" d="M51.03,440.371H49.88a2.3,2.3,0,0,0-2.3,2.3V444.2a5.717,5.717,0,0,0,5.75,0v-1.525A2.3,2.3,0,0,0,51.03,440.371Z" transform="translate(-44.705 -409.32)" fill="#fff"/>
        <path id="Trazado_103806" data-name="Trazado 103806" d="M50.457,464.479a5.694,5.694,0,0,0,2.875-.782V462.9a5.716,5.716,0,0,1-5.6-1.516,2.282,2.282,0,0,0-.149.793V463.7A5.716,5.716,0,0,0,50.457,464.479Z" transform="translate(-44.707 -428.827)" fill="#fff4d6"/>
        <circle id="Elipse_1584" data-name="Elipse 1584" cx="5.75" cy="5.75" r="5.75" transform="translate(24.151 24.151)" fill="#ff98a2"/>
        <circle id="Elipse_1585" data-name="Elipse 1585" cx="1.15" cy="1.15" r="1.15" transform="translate(28.751 27.026)" fill="#fff"/>
        <path id="Trazado_103807" data-name="Trazado 103807" d="M351.3,368.014a5.745,5.745,0,0,1-4.691-9.069,5.747,5.747,0,1,0,8.009,8.009A5.718,5.718,0,0,1,351.3,368.014Z" transform="translate(-320.027 -333.735)" fill="#ff7e92"/>
        <path id="Trazado_103808" data-name="Trazado 103808" d="M387.708,440.371h-1.15a2.3,2.3,0,0,0-2.3,2.3V444.2a5.717,5.717,0,0,0,5.75,0v-1.525A2.3,2.3,0,0,0,387.708,440.371Z" transform="translate(-357.232 -409.32)" fill="#fff"/>
        <path id="Trazado_103809" data-name="Trazado 103809" d="M387.135,464.479a5.694,5.694,0,0,0,2.875-.782V462.9a5.716,5.716,0,0,1-5.6-1.516,2.282,2.282,0,0,0-.149.793V463.7A5.715,5.715,0,0,0,387.135,464.479Z" transform="translate(-357.234 -428.827)" fill="#ffdbde"/>
      </g>
      <g id="Grupo_57965" data-name="Grupo 57965" transform="translate(0 0)">
        <path id="Trazado_103810" data-name="Trazado 103810" d="M6.288,12.577A6.288,6.288,0,1,0,0,6.288a6.3,6.3,0,0,0,6.288,6.288ZM3.951,10.945V9.738A1.764,1.764,0,0,1,5.713,7.976h1.15A1.764,1.764,0,0,1,8.625,9.738v1.207a5.194,5.194,0,0,1-4.674,0ZM6.288,1.076A5.209,5.209,0,0,1,9.7,10.223V9.738A2.841,2.841,0,0,0,6.863,6.9H5.713A2.841,2.841,0,0,0,2.875,9.738v.484A5.209,5.209,0,0,1,6.288,1.076Z" transform="translate(0 0)"/>
        <path id="Trazado_103811" data-name="Trazado 103811" d="M65.817,43.457a1.688,1.688,0,1,0-1.688-1.688A1.69,1.69,0,0,0,65.817,43.457Zm0-2.3a.612.612,0,1,1-.612.612A.613.613,0,0,1,65.817,41.157Z" transform="translate(-59.529 -37.206)"/>
        <path id="Trazado_103812" data-name="Trazado 103812" d="M342.965,12.577a6.288,6.288,0,1,0-6.288-6.288A6.3,6.3,0,0,0,342.965,12.577Zm-2.337-1.632V9.738a1.764,1.764,0,0,1,1.762-1.762h1.15A1.764,1.764,0,0,1,345.3,9.738v1.207a5.194,5.194,0,0,1-4.674,0Zm2.337-9.869a5.209,5.209,0,0,1,3.413,9.147V9.738A2.841,2.841,0,0,0,343.54,6.9h-1.15a2.841,2.841,0,0,0-2.838,2.838v.484a5.209,5.209,0,0,1,3.413-9.147Z" transform="translate(-312.526 0)"/>
        <path id="Trazado_103813" data-name="Trazado 103813" d="M402.495,43.457a1.688,1.688,0,1,0-1.688-1.688A1.69,1.69,0,0,0,402.495,43.457Zm0-2.3a.612.612,0,1,1-.612.612A.613.613,0,0,1,402.495,41.157Z" transform="translate(-372.056 -37.206)"/>
        <path id="Trazado_103814" data-name="Trazado 103814" d="M6.288,336.677a6.288,6.288,0,1,0,6.288,6.288,6.3,6.3,0,0,0-6.288-6.288ZM3.951,347.622v-1.207a1.764,1.764,0,0,1,1.762-1.762h1.15a1.764,1.764,0,0,1,1.762,1.762v1.207a5.194,5.194,0,0,1-4.674,0ZM9.7,346.9v-.484a2.841,2.841,0,0,0-2.838-2.838H5.713a2.841,2.841,0,0,0-2.838,2.838v.484a5.212,5.212,0,1,1,6.826,0Z" transform="translate(0 -312.526)"/>
        <path id="Trazado_103815" data-name="Trazado 103815" d="M65.817,376.758a1.688,1.688,0,1,0,1.688,1.688A1.69,1.69,0,0,0,65.817,376.758Zm0,2.3a.612.612,0,1,1,.612-.612A.613.613,0,0,1,65.817,379.058Z" transform="translate(-59.529 -349.732)"/>
        <path id="Trazado_103816" data-name="Trazado 103816" d="M342.965,336.677a6.288,6.288,0,1,0,6.288,6.288A6.3,6.3,0,0,0,342.965,336.677Zm-2.337,10.945v-1.207a1.764,1.764,0,0,1,1.762-1.762h1.15a1.764,1.764,0,0,1,1.762,1.762v1.207a5.194,5.194,0,0,1-4.674,0Zm5.75-.723v-.484a2.841,2.841,0,0,0-2.838-2.838h-1.15a2.841,2.841,0,0,0-2.838,2.838v.484a5.212,5.212,0,1,1,6.826,0Z" transform="translate(-312.526 -312.526)"/>
        <path id="Trazado_103817" data-name="Trazado 103817" d="M402.495,376.758a1.688,1.688,0,1,0,1.688,1.688A1.69,1.69,0,0,0,402.495,376.758Zm0,2.3a.612.612,0,1,1,.612-.612A.613.613,0,0,1,402.495,379.058Z" transform="translate(-372.056 -349.732)"/>
        <path id="Trazado_103818" data-name="Trazado 103818" d="M82.851,87.479a22.427,22.427,0,0,0,1.9-9.046h3.516a10.3,10.3,0,0,1-.821,3.543.538.538,0,1,0,.989.423,11.371,11.371,0,0,0,.909-3.967h1.225a12.671,12.671,0,0,1-.6,3.349A.538.538,0,1,0,91,82.111a13.784,13.784,0,0,0,0-8.432.538.538,0,0,0-1.024.329,12.67,12.67,0,0,1,.6,3.349H89.343a11.371,11.371,0,0,0-.909-3.967.538.538,0,0,0-.989.423,10.3,10.3,0,0,1,.821,3.543H84.75a22.427,22.427,0,0,0-1.9-9.046A9.917,9.917,0,0,0,81.023,65.6q.381.1.757.217a.538.538,0,0,0,.329-1.024,13.784,13.784,0,0,0-8.432,0,.538.538,0,0,0,.329,1.024q.375-.121.757-.217a9.92,9.92,0,0,0-1.828,2.712,22.428,22.428,0,0,0-1.9,9.046H67.519a10.3,10.3,0,0,1,.821-3.543.538.538,0,0,0-.989-.423,11.371,11.371,0,0,0-.909,3.967H65.217a12.671,12.671,0,0,1,.6-3.349.538.538,0,1,0-1.024-.329,13.784,13.784,0,0,0,0,8.432.538.538,0,1,0,1.024-.329,12.67,12.67,0,0,1-.6-3.349h1.225a11.371,11.371,0,0,0,.909,3.967.538.538,0,1,0,.989-.423,10.3,10.3,0,0,1-.821-3.543h3.516a22.427,22.427,0,0,0,1.9,9.046,9.917,9.917,0,0,0,1.828,2.712q-.381-.1-.757-.217A.538.538,0,1,0,73.677,91a13.784,13.784,0,0,0,8.432,0,.538.538,0,0,0-.329-1.024q-.375.121-.757.217a9.916,9.916,0,0,0,1.828-2.712Zm-4.42,3.044v-5.19h4.127a15.136,15.136,0,0,1-.678,1.681C80.93,89,79.7,90.246,78.431,90.524Zm4.454-6.266H78.431V78.433h5.244A24.276,24.276,0,0,1,82.885,84.258Zm-4.454-6.9V71.533h4.454a24.274,24.274,0,0,1,.79,5.824Zm3.449-8.582a15.139,15.139,0,0,1,.678,1.681H78.431v-5.19C79.7,65.545,80.93,66.789,81.88,68.776Zm-4.525-3.508v5.19H73.227a15.152,15.152,0,0,1,.678-1.681C74.855,66.789,76.089,65.545,77.355,65.267ZM72.9,71.533h4.454v5.824H72.111A24.273,24.273,0,0,1,72.9,71.533Zm4.454,6.9v5.824H72.9a24.277,24.277,0,0,1-.789-5.824Zm-3.449,8.582a15.149,15.149,0,0,1-.678-1.681h4.128v5.19C76.089,90.246,74.855,89,73.905,87.015Z" transform="translate(-59.529 -59.532)"/>
      </g>
    </g>
  </g>
</svg>
