<svg xmlns="http://www.w3.org/2000/svg" width="292" height="247" viewBox="0 0 292 247">
  <g id="Grupo_57968" data-name="Grupo 57968" transform="translate(-958 -1713)">
    <rect id="Rectángulo_7126" data-name="Rectángulo 7126" width="292" height="247" rx="24" transform="translate(958 1713)" fill="#f3f9ff"/>
    <g id="envase_1_" data-name="envase (1)" transform="translate(1039.001 1784.6)">
      <path id="Trazado_103456" data-name="Trazado 103456" d="M177.568,382.906H58.086a2.489,2.489,0,0,1-2.489-2.489V330.633a2.489,2.489,0,0,1,2.489-2.489H177.568a2.489,2.489,0,0,1,2.489,2.489v49.784A2.489,2.489,0,0,1,177.568,382.906Z" transform="translate(-53.268 -226.247)" fill="#d6d6d6"/>
      <ellipse id="Elipse_1557" data-name="Elipse 1557" cx="4.978" cy="4.978" rx="4.978" ry="4.978" transform="translate(59.582 32.198)" fill="#867e88"/>
      <path id="Trazado_103457" data-name="Trazado 103457" d="M242.922,127.741H230.558a2.489,2.489,0,0,0-2.288,3.47l5.334,12.446a2.489,2.489,0,0,0,2.288,1.509h1.7a2.489,2.489,0,0,0,2.288-1.509l5.334-12.446A2.489,2.489,0,0,0,242.922,127.741Z" transform="translate(-172.181 -88.074)" fill="#ffd164"/>
      <path id="Trazado_103458" data-name="Trazado 103458" d="M172.4,99.568h-1.876l-50.69-28.651a7.3,7.3,0,0,0-4.8-8.292.412.412,0,0,1-.048-.195V59.185a4.811,4.811,0,0,0,2.948-2.685l5.334-12.446a4.817,4.817,0,0,0-3.3-6.582V2.329a2.329,2.329,0,0,0-4.658,0V30.37a7.278,7.278,0,0,0-5.3,0V2.329a2.329,2.329,0,0,0-4.658,0V37.472a4.817,4.817,0,0,0-3.3,6.582L107.38,56.5a4.81,4.81,0,0,0,2.948,2.685v3.246a4.774,4.774,0,0,0,3.171,4.592,2.65,2.65,0,1,1-3.491,2.513,2.329,2.329,0,0,0-4.658,0,7.3,7.3,0,0,0,.133,1.38L54.792,99.568H52.915a4.823,4.823,0,0,0-4.818,4.818V154.17a4.823,4.823,0,0,0,4.818,4.818H172.4a4.823,4.823,0,0,0,4.818-4.818V104.386A4.823,4.823,0,0,0,172.4,99.568Zm-59.741-65.04a2.652,2.652,0,0,1,2.649,2.649v.16h-5.3v-.16A2.652,2.652,0,0,1,112.656,34.528Zm-6.329,7.691a.16.16,0,0,1,.147-.223h12.364a.16.16,0,0,1,.147.223l-5.334,12.446a.16.16,0,0,1-.147.1h-1.7a.16.16,0,0,1-.147-.1Zm1.449,32.752a7.291,7.291,0,0,0,9.76,0l43.518,24.6h-96.8ZM85.435,104.226v50.1H77.647v-50.1Zm4.658,0h7.789v50.1H90.093Zm12.446,0h7.788v50.1h-7.788Zm12.446,0h7.788v50.1h-7.788Zm12.446,0h7.788v50.1h-7.788Zm12.446,0h7.788v50.1h-7.788ZM52.755,154.17V104.386a.16.16,0,0,1,.16-.16h7.628v35.009a2.329,2.329,0,1,0,4.658,0V104.226h7.788v50.1H65.2v-5.139a2.329,2.329,0,1,0-4.658,0v5.139H52.915A.161.161,0,0,1,52.755,154.17Zm119.8,0a.16.16,0,0,1-.16.16h-7.628V119.321a2.329,2.329,0,1,0-4.658,0V154.33h-7.788v-50.1h7.788v5.139a2.329,2.329,0,0,0,4.658,0v-5.139H172.4a.16.16,0,0,1,.16.16V154.17Z" transform="translate(-48.097 0)"/>
    </g>
    <g id="Grupo_57963" data-name="Grupo 57963" transform="translate(423.561)">
      <rect id="Rectángulo_7250" data-name="Rectángulo 7250" width="64.539" height="67.305" rx="5" transform="translate(649.745 1730.554)" fill="#d4fbff"/>
      <path id="Rectángulo_7251" data-name="Rectángulo 7251" d="M5,0H58.617a5,5,0,0,1,5,5V17.518a0,0,0,0,1,0,0H0a0,0,0,0,1,0,0V5A5,5,0,0,1,5,0Z" transform="translate(649.745 1727.788)" fill="#bcbcbc"/>
      <g id="navegador" transform="translate(642.464 1726.457)">
        <path id="Trazado_103792" data-name="Trazado 103792" d="M67.007,0H8.064A8.073,8.073,0,0,0,0,8.064V67.007A8.073,8.073,0,0,0,8.064,75.07H67.007a8.073,8.073,0,0,0,8.064-8.064V8.064A8.073,8.073,0,0,0,67.007,0ZM8.064,4.4H67.007a3.669,3.669,0,0,1,3.665,3.665v9.678H4.4V8.064A3.669,3.669,0,0,1,8.064,4.4ZM67.007,70.672H8.064A3.669,3.669,0,0,1,4.4,67.007V22.14H70.672V67.007A3.669,3.669,0,0,1,67.007,70.672Zm0,0" transform="translate(0.001 0)" fill="#21214b"/>
        <path id="Trazado_103793" data-name="Trazado 103793" d="M425.4,63.2a2.2,2.2,0,1,1-2.2-2.2A2.2,2.2,0,0,1,425.4,63.2Zm0,0" transform="translate(-359.272 -52.056)" fill="#21214b"/>
        <path id="Trazado_103794" data-name="Trazado 103794" d="M365.4,63.2a2.2,2.2,0,1,1-2.2-2.2A2.2,2.2,0,0,1,365.4,63.2Zm0,0" transform="translate(-308.069 -52.056)" fill="#21214b"/>
        <path id="Trazado_103795" data-name="Trazado 103795" d="M305.4,63.2a2.2,2.2,0,1,1-2.2-2.2A2.2,2.2,0,0,1,305.4,63.2Zm0,0" transform="translate(-256.866 -52.056)" fill="#21214b"/>
      </g>
    </g>
    <g id="motivacion" transform="translate(1085.707 1752.961)">
      <path id="Trazado_103730" data-name="Trazado 103730" d="M45.921,31.673V25.248H42.206a14.526,14.526,0,0,0-1.9-4.586l2.63-2.63-4.543-4.543-2.63,2.629a14.519,14.519,0,0,0-4.586-1.9V10.5H24.748v3.712a14.527,14.527,0,0,0-4.594,1.9l-2.622-2.622-4.543,4.543,2.618,2.618a14.527,14.527,0,0,0-1.91,4.6H10v6.425h3.693a14.52,14.52,0,0,0,1.907,4.6l-2.611,2.611,4.543,4.543,2.611-2.611a14.517,14.517,0,0,0,4.605,1.907v3.693h6.425v-3.7a14.52,14.52,0,0,0,4.6-1.91l2.618,2.618,4.543-4.543L40.31,36.267a14.523,14.523,0,0,0,1.9-4.594Zm0,0" transform="translate(-9.27 -9.77)" fill="#72d8ff"/>
      <path id="Trazado_103731" data-name="Trazado 103731" d="M153.39,145.382a8.761,8.761,0,1,1-8.761-8.761A8.762,8.762,0,0,1,153.39,145.382Zm0,0" transform="translate(-125.947 -126.682)" fill="#fff"/>
      <path id="Trazado_103732" data-name="Trazado 103732" d="M45.923,145.6l-10.091,2.388,1.719,1.719-8.027,8.027-5.072-5.072L10,167.112l4.543,4.543,9.909-9.909,5.072,5.072,12.57-12.57,1.441,1.441Zm0,0" transform="translate(-9.27 -135.004)" fill="#ffca28"/>
      <path id="Trazado_103733" data-name="Trazado 103733" d="M246.593,128.081h.043a.73.73,0,0,0,0-1.46h-.047a.73.73,0,1,0,0,1.46Zm0,0" transform="translate(-227.912 -117.413)"/>
      <path id="Trazado_103734" data-name="Trazado 103734" d="M36.652,15.248H36.42l.943-3.986a.73.73,0,0,0-.878-.878l-4.469,1.057,2.162-2.162a.73.73,0,0,0,0-1.032L29.636,3.7a.73.73,0,0,0-1.032,0L26.379,5.927a15.222,15.222,0,0,0-3.745-1.554V1.23A.73.73,0,0,0,21.9.5H15.478a.73.73,0,0,0-.73.73V4.368A15.2,15.2,0,0,0,11,5.92L8.778,3.7a.73.73,0,0,0-1.032,0L3.2,8.246a.73.73,0,0,0,0,1.032l2.212,2.213a15.211,15.211,0,0,0-1.561,3.757H.73a.73.73,0,0,0-.73.73V22.4a.73.73,0,0,0,.73.73H3.85A15.21,15.21,0,0,0,5.409,26.9L.214,32.092a.73.73,0,0,0,0,1.032l4.543,4.543a.73.73,0,0,0,1.032,0l5.195-5.195a15.2,15.2,0,0,0,3.764,1.559v3.12a.73.73,0,0,0,.73.73H21.9a.73.73,0,0,0,.73-.73V34.027a15.205,15.205,0,0,0,3.757-1.561L28.6,34.679a.73.73,0,0,0,1.032,0l4.543-4.543a.73.73,0,0,0,0-1.032l-2.218-2.218a15.212,15.212,0,0,0,1.552-3.752h3.138a.73.73,0,0,0,.73-.73V15.978A.73.73,0,0,0,36.652,15.248Zm-31.516,7a.73.73,0,0,0-.713-.571H1.46V16.708H4.427a.73.73,0,0,0,.712-.57,13.761,13.761,0,0,1,1.814-4.367.731.731,0,0,0-.1-.908l-2.1-2.1L8.262,5.252l2.106,2.106a.73.73,0,0,0,.907.1,13.765,13.765,0,0,1,4.363-1.8.73.73,0,0,0,.571-.713V1.96h4.965V4.946a.73.73,0,0,0,.57.712A13.768,13.768,0,0,1,26.1,7.465a.73.73,0,0,0,.907-.1l2.113-2.113L32.63,8.762l-2.113,2.113a.731.731,0,0,0-.1.907l.02.032-4.043.957a.731.731,0,0,0-.447.319,9.5,9.5,0,0,0-3.776-2.72.73.73,0,1,0-.537,1.358,8.039,8.039,0,0,1,4.533,4.554L20.253,22.2,15.7,17.64a.73.73,0,0,0-1.033,0l-3.721,3.721a8.044,8.044,0,0,1,4.786-9.633.73.73,0,0,0-.537-1.358A9.5,9.5,0,0,0,9.787,22.519L6.481,25.825A13.76,13.76,0,0,1,5.136,22.244Zm.137,13.875L4.3,35.147,8.28,31.17a.73.73,0,0,0-1.032-1.033L3.269,34.115,1.763,32.608,15.182,19.189l4.555,4.555a.73.73,0,0,0,1.032,0L28.8,15.717a.73.73,0,0,0,0-1.032L28,13.891l7.666-1.814-1.814,7.666-.516-.516a.73.73,0,0,0-1.032,0L20.253,31.282,15.7,26.726a.73.73,0,0,0-1.032,0l-4.317,4.317h0ZM32.94,21.673a.73.73,0,0,0-.712.571,13.765,13.765,0,0,1-1.8,4.363.73.73,0,0,0,.1.906l2.106,2.106L29.119,33.13l-2.1-2.1a.73.73,0,0,0-.908-.1,13.774,13.774,0,0,1-4.367,1.814.73.73,0,0,0-.57.712v2.967H16.209V33.458a.73.73,0,0,0-.571-.712A13.761,13.761,0,0,1,12.057,31.4l3.125-3.125,4.555,4.555a.73.73,0,0,0,1.032,0L32.824,20.776l.9.9Zm1.867,0a.729.729,0,0,0,.169-.32l.946-4v4.317Zm0,0" transform="translate(0 -0.5)"/>
      <path id="Trazado_103735" data-name="Trazado 103735" d="M128.352,373.953a.73.73,0,1,0-.516.214A.735.735,0,0,0,128.352,373.953Zm0,0" transform="translate(-117.825 -345.531)"/>
    </g>
  </g>
</svg>
