<svg xmlns="http://www.w3.org/2000/svg" width="80.563" height="99.201" viewBox="0 0 80.563 99.201">
  <g id="Grupo_57969" data-name="Grupo 57969" transform="translate(-324.902 -1484.931)">
    <g id="envase_1_" data-name="envase (1)" transform="translate(324.902 1484.931)">
      <path id="Trazado_103456" data-name="Trazado 103456" d="M131.7,362.313H57.15A1.553,1.553,0,0,1,55.6,360.76V329.7a1.553,1.553,0,0,1,1.553-1.553H131.7a1.553,1.553,0,0,1,1.553,1.553V360.76A1.553,1.553,0,0,1,131.7,362.313Z" transform="translate(-54.144 -264.566)" fill="#ffca28"/>
      <ellipse id="Elipse_1557" data-name="Elipse 1557" cx="3.106" cy="3.106" rx="3.106" ry="3.106" transform="translate(37.176 20.09)" fill="#867e88"/>
      <path id="Trazado_103457" data-name="Trazado 103457" d="M237.335,127.741h-7.714a1.553,1.553,0,0,0-1.428,2.165l3.328,7.766a1.553,1.553,0,0,0,1.428.941h1.058a1.553,1.553,0,0,0,1.428-.941l3.328-7.766A1.553,1.553,0,0,0,237.335,127.741Z" transform="translate(-193.197 -102.991)" fill="#ffd164"/>
      <path id="Trazado_103458" data-name="Trazado 103458" d="M125.654,62.125h-1.171L92.855,44.249a4.556,4.556,0,0,0-2.993-5.174.257.257,0,0,1-.03-.121V36.929a3,3,0,0,0,1.839-1.676L95,27.487a3.006,3.006,0,0,0-2.061-4.107V1.453a1.453,1.453,0,0,0-2.906,0v17.5a4.541,4.541,0,0,0-3.306,0V1.453a1.453,1.453,0,0,0-2.906,0V23.381a3.006,3.006,0,0,0-2.061,4.107l3.328,7.766a3,3,0,0,0,1.839,1.675v2.025A2.979,2.979,0,0,0,88.9,41.819a1.653,1.653,0,1,1-2.178,1.568,1.453,1.453,0,0,0-2.906,0,4.556,4.556,0,0,0,.083.861L52.274,62.125H51.1A3.01,3.01,0,0,0,48.1,65.132V96.194A3.01,3.01,0,0,0,51.1,99.2h74.55a3.01,3.01,0,0,0,3.006-3.006V65.132A3.01,3.01,0,0,0,125.654,62.125ZM88.378,21.544A1.655,1.655,0,0,1,90.032,23.2v.1H86.725v-.1A1.655,1.655,0,0,1,88.378,21.544Zm-3.949,4.8a.1.1,0,0,1,.092-.139h7.714a.1.1,0,0,1,.092.139L89,34.108a.1.1,0,0,1-.092.061H87.849a.1.1,0,0,1-.092-.061Zm.9,20.435a4.549,4.549,0,0,0,6.09,0l27.153,15.347H58.18ZM71.394,65.032V96.294H66.535V65.032Zm2.906,0h4.86V96.294H74.3Zm7.766,0h4.859V96.294H82.066Zm7.766,0h4.859V96.294H89.831Zm7.766,0h4.859V96.294H97.6Zm7.766,0h4.859V96.294h-4.859ZM51,96.194V65.132a.1.1,0,0,1,.1-.1h4.759V86.876a1.453,1.453,0,0,0,2.906,0V65.032h4.859V96.294H58.769V93.088a1.453,1.453,0,1,0-2.906,0v3.206H51.1A.1.1,0,0,1,51,96.194Zm74.751,0a.1.1,0,0,1-.1.1h-4.759V74.45a1.453,1.453,0,1,0-2.906,0V96.294h-4.86V65.032h4.86v3.206a1.453,1.453,0,1,0,2.906,0V65.032h4.759a.1.1,0,0,1,.1.1V96.194Z" transform="translate(-48.097 0)" fill="#21214b"/>
    </g>
  </g>
</svg>
