<svg xmlns="http://www.w3.org/2000/svg" width="130.367" height="226.027" viewBox="0 0 130.367 226.027">
  <g id="Grupo_57960" data-name="Grupo 57960" transform="translate(-887.021 -1003.619)">
    <g id="envase_1_" data-name="envase (1)" transform="translate(887.021 1069.12)">
      <path id="Trazado_103456" data-name="Trazado 103456" d="M178.748,383.436H58.11a2.513,2.513,0,0,1-2.513-2.513V330.657a2.513,2.513,0,0,1,2.513-2.513H178.748a2.513,2.513,0,0,1,2.513,2.513v50.265A2.513,2.513,0,0,1,178.748,383.436Z" transform="translate(-53.246 -225.262)" fill="#2dd5c5"/>
      <ellipse id="Elipse_1557" data-name="Elipse 1557" cx="5.026" cy="5.026" rx="5.026" ry="5.026" transform="translate(60.158 32.51)" fill="#867e88"/>
      <path id="Trazado_103457" data-name="Trazado 103457" d="M243.065,127.741H230.582a2.513,2.513,0,0,0-2.31,3.5l5.386,12.566a2.513,2.513,0,0,0,2.31,1.523h1.712a2.513,2.513,0,0,0,2.31-1.523l5.386-12.566A2.513,2.513,0,0,0,243.065,127.741Z" transform="translate(-171.641 -87.691)" fill="#ffd164"/>
      <path id="Trazado_103458" data-name="Trazado 103458" d="M173.6,100.531H171.7L120.524,71.6a7.373,7.373,0,0,0-4.844-8.372.416.416,0,0,1-.049-.2V59.758a4.858,4.858,0,0,0,2.976-2.711l5.385-12.566a4.864,4.864,0,0,0-3.335-6.646V2.351a2.351,2.351,0,0,0-4.7,0V30.663a7.349,7.349,0,0,0-5.35,0V2.351a2.351,2.351,0,0,0-4.7,0V37.834a4.863,4.863,0,0,0-3.335,6.646l5.385,12.567a4.857,4.857,0,0,0,2.976,2.711v3.277a4.82,4.82,0,0,0,3.2,4.637,2.676,2.676,0,1,1-3.525,2.538,2.351,2.351,0,0,0-4.7,0,7.373,7.373,0,0,0,.134,1.394l-51.18,28.928H52.962A4.87,4.87,0,0,0,48.1,105.4v50.265a4.87,4.87,0,0,0,4.865,4.865H173.6a4.87,4.87,0,0,0,4.865-4.865V105.4A4.87,4.87,0,0,0,173.6,100.531ZM113.28,34.862a2.678,2.678,0,0,1,2.675,2.675V37.7h-5.35v-.162A2.678,2.678,0,0,1,113.28,34.862Zm-6.39,7.765a.162.162,0,0,1,.149-.225h12.483a.162.162,0,0,1,.149.225l-5.385,12.566a.162.162,0,0,1-.149.1h-1.712a.161.161,0,0,1-.149-.1ZM108.353,75.7a7.362,7.362,0,0,0,9.854,0l43.939,24.835H64.414ZM85.8,105.234v50.589H77.933V105.234Zm4.7,0h7.864v50.589H90.5Zm12.567,0h7.863v50.589h-7.863Zm12.566,0H123.5v50.589h-7.864Zm12.567,0h7.864v50.589H128.2Zm12.567,0h7.863v50.589h-7.863ZM52.8,155.661V105.4a.162.162,0,0,1,.162-.162h7.7v35.348a2.351,2.351,0,1,0,4.7,0V105.234H73.23v50.589H65.366v-5.188a2.351,2.351,0,1,0-4.7,0v5.188h-7.7A.162.162,0,0,1,52.8,155.661Zm120.961,0a.162.162,0,0,1-.162.162h-7.7V120.475a2.351,2.351,0,1,0-4.7,0v35.348h-7.864V105.234h7.864v5.188a2.351,2.351,0,0,0,4.7,0v-5.188h7.7a.162.162,0,0,1,.162.162v50.265Z" transform="translate(-48.097 0)" fill="#21214b"/>
    </g>
    <rect id="Rect치ngulo_7246" data-name="Rect치ngulo 7246" width="70" height="73" rx="5" transform="translate(919.392 1008.063)" fill="#d4fbff"/>
    <path id="Rect치ngulo_7247" data-name="Rect치ngulo 7247" d="M5,0H64a5,5,0,0,1,5,5V19a0,0,0,0,1,0,0H0a0,0,0,0,1,0,0V5A5,5,0,0,1,5,0Z" transform="translate(919.392 1005.063)" fill="#88fff4"/>
    <g id="navegador" transform="translate(911.494 1003.619)">
      <path id="Trazado_103792" data-name="Trazado 103792" d="M72.676,0H8.746A8.756,8.756,0,0,0,0,8.746v63.93a8.756,8.756,0,0,0,8.746,8.746h63.93a8.756,8.756,0,0,0,8.746-8.746V8.746A8.756,8.756,0,0,0,72.676,0ZM8.746,4.771h63.93a3.98,3.98,0,0,1,3.975,3.975v10.5H4.771V8.746A3.98,3.98,0,0,1,8.746,4.771Zm63.93,71.88H8.746a3.98,3.98,0,0,1-3.975-3.975V24.013h71.88V72.676A3.98,3.98,0,0,1,72.676,76.651Zm0,0" fill="#21214b"/>
      <path id="Trazado_103793" data-name="Trazado 103793" d="M425.771,63.385A2.385,2.385,0,1,1,423.385,61,2.385,2.385,0,0,1,425.771,63.385Zm0,0" transform="translate(-354.05 -51.299)" fill="#21214b"/>
      <path id="Trazado_103794" data-name="Trazado 103794" d="M365.771,63.385A2.385,2.385,0,1,1,363.385,61,2.385,2.385,0,0,1,365.771,63.385Zm0,0" transform="translate(-303.591 -51.299)" fill="#21214b"/>
      <path id="Trazado_103795" data-name="Trazado 103795" d="M305.771,63.385A2.385,2.385,0,1,1,303.385,61,2.385,2.385,0,0,1,305.771,63.385Zm0,0" transform="translate(-253.133 -51.299)" fill="#21214b"/>
    </g>
    <g id="Elipse_1576" data-name="Elipse 1576" transform="translate(930.661 1032.959)" fill="#88fff4" stroke="#21214b" stroke-width="4">
      <ellipse cx="21.145" cy="21.145" rx="21.145" ry="21.145" stroke="none"/>
      <ellipse cx="21.145" cy="21.145" rx="19.145" ry="19.145" fill="none"/>
    </g>
    <path id="Trazado_103822" data-name="Trazado 103822" d="M4.146-6.112h1.59v2.793H4.146V0H.526V-3.319H-5.521l-.215-2.213L.526-15.608v-.032h3.62Zm-6.435,0H.526v-4.812L.3-10.56Z" transform="translate(951.551 1060.801)" fill="#12263f"/>
  </g>
</svg>
