<svg xmlns="http://www.w3.org/2000/svg" width="1088.954" height="13.89" viewBox="0 0 1088.954 13.89">
  <g id="Grupo_57887" data-name="Grupo 57887" transform="translate(-258.831 -1234.705)">
    <g id="Grupo_57880" data-name="Grupo 57880" transform="translate(10987.888 10491)">
      <path id="Trazado_103649" data-name="Trazado 103649" d="M138.578,51c-4.836,0-7.287,3.046-9.26,5.493-1.933,2.405-3.151,3.766-5.646,3.766s-3.718-1.361-5.655-3.766C116.045,54.044,113.593,51,108.757,51s-7.29,3.044-9.259,5.493C97.56,58.9,96.343,60.26,93.843,60.26s-3.7-1.361-5.653-3.766C86.22,54.044,83.766,51,78.93,51s-7.292,3.044-9.26,5.493c-1.928,2.405-3.157,3.766-5.658,3.766S60.3,58.9,58.36,56.493C56.39,54.046,53.939,51,49.1,51s-7.292,3.044-9.26,5.493C37.9,58.9,36.681,60.26,34.177,60.26s-3.722-1.361-5.662-3.766C26.538,54.044,24.089,51,19.248,51s-7.3,3.044-9.259,5.491C8.04,58.9,6.82,60.26,4.315,60.26a2.315,2.315,0,0,0,0,4.63c4.84,0,7.3-3.044,9.259-5.493,1.949-2.405,3.169-3.766,5.674-3.766s3.725,1.361,5.665,3.769c1.972,2.447,4.428,5.491,9.264,5.491s7.292-3.044,9.259-5.493C45.383,56.991,46.6,55.63,49.1,55.63s3.715,1.361,5.653,3.766c1.97,2.449,4.421,5.493,9.26,5.493s7.29-3.044,9.26-5.493c1.938-2.405,3.155-3.766,5.655-3.766s3.715,1.361,5.653,3.766c1.97,2.449,4.424,5.493,9.259,5.493s7.29-3.044,9.26-5.493c1.938-2.405,3.155-3.766,5.655-3.766s3.7,1.361,5.653,3.766c1.972,2.447,4.424,5.493,9.259,5.493s7.285-3.046,9.259-5.493c1.945-2.405,3.151-3.766,5.648-3.766a2.315,2.315,0,0,0,0-4.63Z" transform="translate(-10731.057 -9307.295)" fill="#a9ebf4"/>
      <path id="Trazado_103651" data-name="Trazado 103651" d="M4.315,51c4.836,0,7.287,3.046,9.26,5.493,1.933,2.405,3.151,3.766,5.646,3.766s3.718-1.361,5.655-3.766C26.848,54.044,29.3,51,34.135,51s7.29,3.044,9.26,5.493C45.332,58.9,46.55,60.26,49.05,60.26s3.7-1.361,5.653-3.766C56.673,54.044,59.127,51,63.962,51s7.292,3.044,9.26,5.493c1.928,2.405,3.157,3.766,5.658,3.766s3.715-1.361,5.653-3.766C86.5,54.046,88.954,51,93.792,51s7.292,3.044,9.26,5.493c1.942,2.405,3.16,3.766,5.664,3.766s3.722-1.361,5.662-3.766C116.355,54.044,118.8,51,123.644,51s7.3,3.044,9.259,5.491c1.949,2.408,3.169,3.769,5.674,3.769a2.315,2.315,0,0,1,0,4.63c-4.84,0-7.3-3.044-9.26-5.493-1.949-2.405-3.169-3.766-5.674-3.766s-3.725,1.361-5.665,3.769c-1.972,2.447-4.428,5.491-9.264,5.491s-7.292-3.044-9.259-5.493c-1.947-2.405-3.164-3.766-5.667-3.766s-3.715,1.361-5.653,3.766c-1.97,2.449-4.421,5.493-9.26,5.493s-7.29-3.044-9.26-5.493c-1.938-2.405-3.155-3.766-5.655-3.766s-3.715,1.361-5.653,3.766c-1.97,2.449-4.424,5.493-9.259,5.493s-7.29-3.044-9.26-5.493c-1.938-2.405-3.155-3.766-5.655-3.766s-3.7,1.361-5.653,3.766c-1.972,2.447-4.424,5.493-9.26,5.493S11.938,61.843,9.963,59.4C8.019,56.991,6.813,55.63,4.315,55.63a2.315,2.315,0,0,1,0-4.63Z" transform="translate(-10594.164 -9307.295)" fill="#a9ebf4"/>
      <path id="Trazado_103652" data-name="Trazado 103652" d="M138.578,51c-4.836,0-7.287,3.046-9.26,5.493-1.933,2.405-3.151,3.766-5.646,3.766s-3.718-1.361-5.655-3.766C116.045,54.044,113.593,51,108.757,51s-7.29,3.044-9.259,5.493C97.56,58.9,96.343,60.26,93.843,60.26s-3.7-1.361-5.653-3.766C86.22,54.044,83.766,51,78.93,51s-7.292,3.044-9.26,5.493c-1.928,2.405-3.157,3.766-5.658,3.766S60.3,58.9,58.36,56.493C56.39,54.046,53.939,51,49.1,51s-7.292,3.044-9.26,5.493C37.9,58.9,36.681,60.26,34.177,60.26s-3.722-1.361-5.662-3.766C26.538,54.044,24.089,51,19.248,51s-7.3,3.044-9.259,5.491C8.04,58.9,6.82,60.26,4.315,60.26a2.315,2.315,0,0,0,0,4.63c4.84,0,7.3-3.044,9.259-5.493,1.949-2.405,3.169-3.766,5.674-3.766s3.725,1.361,5.665,3.769c1.972,2.447,4.428,5.491,9.264,5.491s7.292-3.044,9.259-5.493C45.383,56.991,46.6,55.63,49.1,55.63s3.715,1.361,5.653,3.766c1.97,2.449,4.421,5.493,9.26,5.493s7.29-3.044,9.26-5.493c1.938-2.405,3.155-3.766,5.655-3.766s3.715,1.361,5.653,3.766c1.97,2.449,4.424,5.493,9.259,5.493s7.29-3.044,9.26-5.493c1.938-2.405,3.155-3.766,5.655-3.766s3.7,1.361,5.653,3.766c1.972,2.447,4.424,5.493,9.259,5.493s7.285-3.046,9.259-5.493c1.945-2.405,3.151-3.766,5.648-3.766a2.315,2.315,0,0,0,0-4.63Z" transform="translate(-10459.057 -9307.295)" fill="#a9ebf4"/>
      <path id="Trazado_103653" data-name="Trazado 103653" d="M4.315,51c4.836,0,7.287,3.046,9.26,5.493,1.933,2.405,3.151,3.766,5.646,3.766s3.718-1.361,5.655-3.766C26.848,54.044,29.3,51,34.135,51s7.29,3.044,9.26,5.493C45.332,58.9,46.55,60.26,49.05,60.26s3.7-1.361,5.653-3.766C56.673,54.044,59.127,51,63.962,51s7.292,3.044,9.26,5.493c1.928,2.405,3.157,3.766,5.658,3.766s3.715-1.361,5.653-3.766C86.5,54.046,88.954,51,93.792,51s7.292,3.044,9.26,5.493c1.942,2.405,3.16,3.766,5.664,3.766s3.722-1.361,5.662-3.766C116.355,54.044,118.8,51,123.644,51s7.3,3.044,9.259,5.491c1.949,2.408,3.169,3.769,5.674,3.769a2.315,2.315,0,0,1,0,4.63c-4.84,0-7.3-3.044-9.26-5.493-1.949-2.405-3.169-3.766-5.674-3.766s-3.725,1.361-5.665,3.769c-1.972,2.447-4.428,5.491-9.264,5.491s-7.292-3.044-9.259-5.493c-1.947-2.405-3.164-3.766-5.667-3.766s-3.715,1.361-5.653,3.766c-1.97,2.449-4.421,5.493-9.26,5.493s-7.29-3.044-9.26-5.493c-1.938-2.405-3.155-3.766-5.655-3.766s-3.715,1.361-5.653,3.766c-1.97,2.449-4.424,5.493-9.259,5.493s-7.29-3.044-9.26-5.493c-1.938-2.405-3.155-3.766-5.655-3.766s-3.7,1.361-5.653,3.766c-1.972,2.447-4.424,5.493-9.26,5.493S11.938,61.843,9.963,59.4C8.019,56.991,6.813,55.63,4.315,55.63a2.315,2.315,0,0,1,0-4.63Z" transform="translate(-10322.164 -9307.295)" fill="#a9ebf4"/>
    </g>
    <g id="Grupo_57886" data-name="Grupo 57886" transform="translate(11529.057 10491)">
      <path id="Trazado_103649-2" data-name="Trazado 103649" d="M138.578,51c-4.836,0-7.287,3.046-9.26,5.493-1.933,2.405-3.151,3.766-5.646,3.766s-3.718-1.361-5.655-3.766C116.045,54.044,113.593,51,108.757,51s-7.29,3.044-9.259,5.493C97.56,58.9,96.343,60.26,93.843,60.26s-3.7-1.361-5.653-3.766C86.22,54.044,83.766,51,78.93,51s-7.292,3.044-9.26,5.493c-1.928,2.405-3.157,3.766-5.658,3.766S60.3,58.9,58.36,56.493C56.39,54.046,53.939,51,49.1,51s-7.292,3.044-9.26,5.493C37.9,58.9,36.681,60.26,34.177,60.26s-3.722-1.361-5.662-3.766C26.538,54.044,24.089,51,19.248,51s-7.3,3.044-9.259,5.491C8.04,58.9,6.82,60.26,4.315,60.26a2.315,2.315,0,0,0,0,4.63c4.84,0,7.3-3.044,9.259-5.493,1.949-2.405,3.169-3.766,5.674-3.766s3.725,1.361,5.665,3.769c1.972,2.447,4.428,5.491,9.264,5.491s7.292-3.044,9.259-5.493C45.383,56.991,46.6,55.63,49.1,55.63s3.715,1.361,5.653,3.766c1.97,2.449,4.421,5.493,9.26,5.493s7.29-3.044,9.26-5.493c1.938-2.405,3.155-3.766,5.655-3.766s3.715,1.361,5.653,3.766c1.97,2.449,4.424,5.493,9.259,5.493s7.29-3.044,9.26-5.493c1.938-2.405,3.155-3.766,5.655-3.766s3.7,1.361,5.653,3.766c1.972,2.447,4.424,5.493,9.259,5.493s7.285-3.046,9.259-5.493c1.945-2.405,3.151-3.766,5.648-3.766a2.315,2.315,0,0,0,0-4.63Z" transform="translate(-10731.057 -9307.295)" fill="#a9ebf4"/>
      <path id="Trazado_103651-2" data-name="Trazado 103651" d="M4.315,51c4.836,0,7.287,3.046,9.26,5.493,1.933,2.405,3.151,3.766,5.646,3.766s3.718-1.361,5.655-3.766C26.848,54.044,29.3,51,34.135,51s7.29,3.044,9.26,5.493C45.332,58.9,46.55,60.26,49.05,60.26s3.7-1.361,5.653-3.766C56.673,54.044,59.127,51,63.962,51s7.292,3.044,9.26,5.493c1.928,2.405,3.157,3.766,5.658,3.766s3.715-1.361,5.653-3.766C86.5,54.046,88.954,51,93.792,51s7.292,3.044,9.26,5.493c1.942,2.405,3.16,3.766,5.664,3.766s3.722-1.361,5.662-3.766C116.355,54.044,118.8,51,123.644,51s7.3,3.044,9.259,5.491c1.949,2.408,3.169,3.769,5.674,3.769a2.315,2.315,0,0,1,0,4.63c-4.84,0-7.3-3.044-9.26-5.493-1.949-2.405-3.169-3.766-5.674-3.766s-3.725,1.361-5.665,3.769c-1.972,2.447-4.428,5.491-9.264,5.491s-7.292-3.044-9.259-5.493c-1.947-2.405-3.164-3.766-5.667-3.766s-3.715,1.361-5.653,3.766c-1.97,2.449-4.421,5.493-9.26,5.493s-7.29-3.044-9.26-5.493c-1.938-2.405-3.155-3.766-5.655-3.766s-3.715,1.361-5.653,3.766c-1.97,2.449-4.424,5.493-9.259,5.493s-7.29-3.044-9.26-5.493c-1.938-2.405-3.155-3.766-5.655-3.766s-3.7,1.361-5.653,3.766c-1.972,2.447-4.424,5.493-9.26,5.493S11.938,61.843,9.963,59.4C8.019,56.991,6.813,55.63,4.315,55.63a2.315,2.315,0,0,1,0-4.63Z" transform="translate(-10594.164 -9307.295)" fill="#a9ebf4"/>
      <path id="Trazado_103652-2" data-name="Trazado 103652" d="M138.578,51c-4.836,0-7.287,3.046-9.26,5.493-1.933,2.405-3.151,3.766-5.646,3.766s-3.718-1.361-5.655-3.766C116.045,54.044,113.593,51,108.757,51s-7.29,3.044-9.259,5.493C97.56,58.9,96.343,60.26,93.843,60.26s-3.7-1.361-5.653-3.766C86.22,54.044,83.766,51,78.93,51s-7.292,3.044-9.26,5.493c-1.928,2.405-3.157,3.766-5.658,3.766S60.3,58.9,58.36,56.493C56.39,54.046,53.939,51,49.1,51s-7.292,3.044-9.26,5.493C37.9,58.9,36.681,60.26,34.177,60.26s-3.722-1.361-5.662-3.766C26.538,54.044,24.089,51,19.248,51s-7.3,3.044-9.259,5.491C8.04,58.9,6.82,60.26,4.315,60.26a2.315,2.315,0,0,0,0,4.63c4.84,0,7.3-3.044,9.259-5.493,1.949-2.405,3.169-3.766,5.674-3.766s3.725,1.361,5.665,3.769c1.972,2.447,4.428,5.491,9.264,5.491s7.292-3.044,9.259-5.493C45.383,56.991,46.6,55.63,49.1,55.63s3.715,1.361,5.653,3.766c1.97,2.449,4.421,5.493,9.26,5.493s7.29-3.044,9.26-5.493c1.938-2.405,3.155-3.766,5.655-3.766s3.715,1.361,5.653,3.766c1.97,2.449,4.424,5.493,9.259,5.493s7.29-3.044,9.26-5.493c1.938-2.405,3.155-3.766,5.655-3.766s3.7,1.361,5.653,3.766c1.972,2.447,4.424,5.493,9.259,5.493s7.285-3.046,9.259-5.493c1.945-2.405,3.151-3.766,5.648-3.766a2.315,2.315,0,0,0,0-4.63Z" transform="translate(-10459.057 -9307.295)" fill="#a9ebf4"/>
      <path id="Trazado_103653-2" data-name="Trazado 103653" d="M4.315,51c4.836,0,7.287,3.046,9.26,5.493,1.933,2.405,3.151,3.766,5.646,3.766s3.718-1.361,5.655-3.766C26.848,54.044,29.3,51,34.135,51s7.29,3.044,9.26,5.493C45.332,58.9,46.55,60.26,49.05,60.26s3.7-1.361,5.653-3.766C56.673,54.044,59.127,51,63.962,51s7.292,3.044,9.26,5.493c1.928,2.405,3.157,3.766,5.658,3.766s3.715-1.361,5.653-3.766C86.5,54.046,88.954,51,93.792,51s7.292,3.044,9.26,5.493c1.942,2.405,3.16,3.766,5.664,3.766s3.722-1.361,5.662-3.766C116.355,54.044,118.8,51,123.644,51s7.3,3.044,9.259,5.491c1.949,2.408,3.169,3.769,5.674,3.769a2.315,2.315,0,0,1,0,4.63c-4.84,0-7.3-3.044-9.26-5.493-1.949-2.405-3.169-3.766-5.674-3.766s-3.725,1.361-5.665,3.769c-1.972,2.447-4.428,5.491-9.264,5.491s-7.292-3.044-9.259-5.493c-1.947-2.405-3.164-3.766-5.667-3.766s-3.715,1.361-5.653,3.766c-1.97,2.449-4.421,5.493-9.26,5.493s-7.29-3.044-9.26-5.493c-1.938-2.405-3.155-3.766-5.655-3.766s-3.715,1.361-5.653,3.766c-1.97,2.449-4.424,5.493-9.259,5.493s-7.29-3.044-9.26-5.493c-1.938-2.405-3.155-3.766-5.655-3.766s-3.7,1.361-5.653,3.766c-1.972,2.447-4.424,5.493-9.26,5.493S11.938,61.843,9.963,59.4C8.019,56.991,6.813,55.63,4.315,55.63a2.315,2.315,0,0,1,0-4.63Z" transform="translate(-10322.164 -9307.295)" fill="#a9ebf4"/>
    </g>
  </g>
</svg>
