<svg xmlns="http://www.w3.org/2000/svg" width="292" height="247" viewBox="0 0 292 247">
  <g id="Grupo_57966" data-name="Grupo 57966" transform="translate(-338 -1713)">
    <rect id="Rectángulo_7124" data-name="Rectángulo 7124" width="292" height="247" rx="24" transform="translate(338 1713)" fill="#f3f9ff"/>
    <g id="envase_1_" data-name="envase (1)" transform="translate(419.001 1784.6)">
      <path id="Trazado_103456" data-name="Trazado 103456" d="M177.568,382.906H58.086a2.489,2.489,0,0,1-2.489-2.489V330.633a2.489,2.489,0,0,1,2.489-2.489H177.568a2.489,2.489,0,0,1,2.489,2.489v49.784A2.489,2.489,0,0,1,177.568,382.906Z" transform="translate(-53.268 -226.247)" fill="#d6d6d6"/>
      <ellipse id="Elipse_1557" data-name="Elipse 1557" cx="4.978" cy="4.978" rx="4.978" ry="4.978" transform="translate(59.582 32.198)" fill="#867e88"/>
      <path id="Trazado_103457" data-name="Trazado 103457" d="M242.922,127.741H230.558a2.489,2.489,0,0,0-2.288,3.47l5.334,12.446a2.489,2.489,0,0,0,2.288,1.509h1.7a2.489,2.489,0,0,0,2.288-1.509l5.334-12.446A2.489,2.489,0,0,0,242.922,127.741Z" transform="translate(-172.181 -88.074)" fill="#ffd164"/>
      <path id="Trazado_103458" data-name="Trazado 103458" d="M172.4,99.568h-1.876l-50.69-28.651a7.3,7.3,0,0,0-4.8-8.292.412.412,0,0,1-.048-.195V59.185a4.811,4.811,0,0,0,2.948-2.685l5.334-12.446a4.817,4.817,0,0,0-3.3-6.582V2.329a2.329,2.329,0,0,0-4.658,0V30.37a7.278,7.278,0,0,0-5.3,0V2.329a2.329,2.329,0,0,0-4.658,0V37.472a4.817,4.817,0,0,0-3.3,6.582L107.38,56.5a4.81,4.81,0,0,0,2.948,2.685v3.246a4.774,4.774,0,0,0,3.171,4.592,2.65,2.65,0,1,1-3.491,2.513,2.329,2.329,0,0,0-4.658,0,7.3,7.3,0,0,0,.133,1.38L54.792,99.568H52.915a4.823,4.823,0,0,0-4.818,4.818V154.17a4.823,4.823,0,0,0,4.818,4.818H172.4a4.823,4.823,0,0,0,4.818-4.818V104.386A4.823,4.823,0,0,0,172.4,99.568Zm-59.741-65.04a2.652,2.652,0,0,1,2.649,2.649v.16h-5.3v-.16A2.652,2.652,0,0,1,112.656,34.528Zm-6.329,7.691a.16.16,0,0,1,.147-.223h12.364a.16.16,0,0,1,.147.223l-5.334,12.446a.16.16,0,0,1-.147.1h-1.7a.16.16,0,0,1-.147-.1Zm1.449,32.752a7.291,7.291,0,0,0,9.76,0l43.518,24.6h-96.8ZM85.435,104.226v50.1H77.647v-50.1Zm4.658,0h7.789v50.1H90.093Zm12.446,0h7.788v50.1h-7.788Zm12.446,0h7.788v50.1h-7.788Zm12.446,0h7.788v50.1h-7.788Zm12.446,0h7.788v50.1h-7.788ZM52.755,154.17V104.386a.16.16,0,0,1,.16-.16h7.628v35.009a2.329,2.329,0,1,0,4.658,0V104.226h7.788v50.1H65.2v-5.139a2.329,2.329,0,1,0-4.658,0v5.139H52.915A.161.161,0,0,1,52.755,154.17Zm119.8,0a.16.16,0,0,1-.16.16h-7.628V119.321a2.329,2.329,0,1,0-4.658,0V154.33h-7.788v-50.1h7.788v5.139a2.329,2.329,0,0,0,4.658,0v-5.139H172.4a.16.16,0,0,1,.16.16V154.17Z" transform="translate(-48.097 0)"/>
    </g>
    <rect id="Rectángulo_7240" data-name="Rectángulo 7240" width="64.539" height="67.305" rx="5" transform="translate(453.745 1730.554)" fill="#d4fbff"/>
    <path id="Rectángulo_7241" data-name="Rectángulo 7241" d="M5,0H58.617a5,5,0,0,1,5,5V17.518a0,0,0,0,1,0,0H0a0,0,0,0,1,0,0V5A5,5,0,0,1,5,0Z" transform="translate(453.745 1727.788)" fill="#bcbcbc"/>
    <g id="navegador" transform="translate(446.464 1726.457)">
      <path id="Trazado_103792" data-name="Trazado 103792" d="M67.007,0H8.064A8.073,8.073,0,0,0,0,8.064V67.007A8.073,8.073,0,0,0,8.064,75.07H67.007a8.073,8.073,0,0,0,8.064-8.064V8.064A8.073,8.073,0,0,0,67.007,0ZM8.064,4.4H67.007a3.669,3.669,0,0,1,3.665,3.665v9.678H4.4V8.064A3.669,3.669,0,0,1,8.064,4.4ZM67.007,70.672H8.064A3.669,3.669,0,0,1,4.4,67.007V22.14H70.672V67.007A3.669,3.669,0,0,1,67.007,70.672Zm0,0" transform="translate(0.001 0)" fill="#21214b"/>
      <path id="Trazado_103793" data-name="Trazado 103793" d="M425.4,63.2a2.2,2.2,0,1,1-2.2-2.2A2.2,2.2,0,0,1,425.4,63.2Zm0,0" transform="translate(-359.272 -52.056)" fill="#21214b"/>
      <path id="Trazado_103794" data-name="Trazado 103794" d="M365.4,63.2a2.2,2.2,0,1,1-2.2-2.2A2.2,2.2,0,0,1,365.4,63.2Zm0,0" transform="translate(-308.069 -52.056)" fill="#21214b"/>
      <path id="Trazado_103795" data-name="Trazado 103795" d="M305.4,63.2a2.2,2.2,0,1,1-2.2-2.2A2.2,2.2,0,0,1,305.4,63.2Zm0,0" transform="translate(-256.866 -52.056)" fill="#21214b"/>
    </g>
    <g id="transferir" transform="translate(460.477 1758.13)">
      <g id="Grupo_57939" data-name="Grupo 57939" transform="translate(0.705 0.714)">
        <path id="Trazado_103704" data-name="Trazado 103704" d="M301.512,105.434H288.025A1.029,1.029,0,0,0,287,106.463V133.12a1.029,1.029,0,0,0,1.029,1.029H306.7a1.029,1.029,0,0,0,1.029-1.029V111.651Z" transform="translate(-260.328 -105.434)" fill="#dfebfa"/>
        <path id="Trazado_103705" data-name="Trazado 103705" d="M21.9,105.434H8.416a1.029,1.029,0,0,0-1.029,1.029V133.12a1.029,1.029,0,0,0,1.029,1.029H27.092a1.029,1.029,0,0,0,1.029-1.029V111.651Z" transform="translate(-7.387 -105.434)" fill="#dfebfa"/>
        <g id="Grupo_57938" data-name="Grupo 57938" transform="translate(0 0)">
          <path id="Trazado_103706" data-name="Trazado 103706" d="M290.908,133.12V106.463a1.029,1.029,0,0,1,1.029-1.029h-3.912A1.029,1.029,0,0,0,287,106.463V133.12a1.029,1.029,0,0,0,1.029,1.029h3.912A1.029,1.029,0,0,1,290.908,133.12Z" transform="translate(-260.328 -105.434)" fill="#bed8fb"/>
          <path id="Trazado_103707" data-name="Trazado 103707" d="M11.3,133.12V106.463a1.029,1.029,0,0,1,1.029-1.029H8.416a1.029,1.029,0,0,0-1.029,1.029V133.12a1.029,1.029,0,0,0,1.029,1.029h3.912A1.029,1.029,0,0,1,11.3,133.12Z" transform="translate(-7.387 -105.434)" fill="#bed8fb"/>
          <path id="Trazado_103708" data-name="Trazado 103708" d="M160.618,111.651h5.189l-6.217-6.217v5.189A1.029,1.029,0,0,0,160.618,111.651Z" transform="translate(-145.073 -105.434)" fill="#bed8fb"/>
          <path id="Trazado_103709" data-name="Trazado 103709" d="M440.227,111.651h5.189l-6.217-6.217v5.189A1.029,1.029,0,0,0,440.227,111.651Z" transform="translate(-398.014 -105.434)" fill="#bed8fb"/>
        </g>
        <path id="Trazado_103710" data-name="Trazado 103710" d="M162.7,110.623v-2.08l-3.109-3.109v5.189a1.029,1.029,0,0,0,1.029,1.029h3.109A1.029,1.029,0,0,1,162.7,110.623Z" transform="translate(-145.074 -105.434)" fill="#9dc6fb"/>
        <path id="Trazado_103711" data-name="Trazado 103711" d="M442.308,110.623v-2.08l-3.109-3.109v5.189a1.029,1.029,0,0,0,1.029,1.029h3.109A1.029,1.029,0,0,1,442.308,110.623Z" transform="translate(-398.015 -105.434)" fill="#9dc6fb"/>
        <path id="Trazado_103712" data-name="Trazado 103712" d="M200.306,220.914l-5.774-3.661a.616.616,0,0,0-.946.52v1.519a.476.476,0,0,1-.476.476h-5.444a.639.639,0,0,0-.639.639v2.053a.639.639,0,0,0,.639.639h5.444a.476.476,0,0,1,.476.476V225.1a.616.616,0,0,0,.946.52l5.774-3.661A.616.616,0,0,0,200.306,220.914Z" transform="translate(-169.893 -206.501)" fill="#ff656f"/>
        <path id="Trazado_103713" data-name="Trazado 103713" d="M200.306,252.515l-.672-.426-5.1,3.235a.616.616,0,0,1-.946-.52v-1.519a.476.476,0,0,0-.476-.476h-5.444a.639.639,0,0,1-.639-.639v1.893a.639.639,0,0,0,.639.639h5.444a.476.476,0,0,1,.476.476V256.7a.616.616,0,0,0,.946.52l5.774-3.661A.616.616,0,0,0,200.306,252.515Z" transform="translate(-169.893 -238.102)" fill="#ff4756"/>
      </g>
      <g id="Grupo_57940" data-name="Grupo 57940" transform="translate(0 0)">
        <path id="Trazado_103714" data-name="Trazado 103714" d="M60.7,301.67H49.221a.715.715,0,1,0,0,1.431H60.7a.715.715,0,0,0,0-1.431Z" transform="translate(-43.88 -282.24)"/>
        <path id="Trazado_103715" data-name="Trazado 103715" d="M60.7,331.336H49.221a.715.715,0,1,0,0,1.431H60.7a.715.715,0,0,0,0-1.431Z" transform="translate(-43.88 -309.077)"/>
        <path id="Trazado_103716" data-name="Trazado 103716" d="M60.7,361H49.221a.715.715,0,1,0,0,1.431H60.7a.715.715,0,0,0,0-1.431Z" transform="translate(-43.88 -335.914)"/>
        <path id="Trazado_103717" data-name="Trazado 103717" d="M340.784,301.67H329.306a.715.715,0,1,0,0,1.431h11.478a.715.715,0,1,0,0-1.431Z" transform="translate(-297.252 -282.24)"/>
        <path id="Trazado_103718" data-name="Trazado 103718" d="M340.784,331.336H329.306a.715.715,0,1,0,0,1.431h11.478a.715.715,0,1,0,0-1.431Z" transform="translate(-297.252 -309.077)"/>
        <path id="Trazado_103719" data-name="Trazado 103719" d="M340.784,361H329.306a.715.715,0,1,0,0,1.431h11.478a.715.715,0,1,0,0-1.431Z" transform="translate(-297.252 -335.914)"/>
        <path id="Trazado_103720" data-name="Trazado 103720" d="M48.109,113.117a.715.715,0,0,0,.715-.715v-7.524a.718.718,0,0,0-.209-.506L42.4,98.155a.725.725,0,0,0-.506-.209H28.407a1.746,1.746,0,0,0-1.744,1.744V109.4l-.93-.59a1.332,1.332,0,0,0-2.045,1.124v1.28H22.161v-6.334a.718.718,0,0,0-.209-.506l-6.216-6.216a.722.722,0,0,0-.506-.209H10.285a.715.715,0,1,0,0,1.431h4.229v4.472a1.746,1.746,0,0,0,1.744,1.744H20.73v5.619H18.484a1.355,1.355,0,0,0-1.354,1.354v2.053a1.355,1.355,0,0,0,1.354,1.354H20.73v10.37a.314.314,0,0,1-.313.313H1.744a.314.314,0,0,1-.313-.313V99.69a.314.314,0,0,1,.313-.313h5.2a.715.715,0,1,0,0-1.431h-5.2A1.746,1.746,0,0,0,0,99.69v26.653a1.746,1.746,0,0,0,1.744,1.744H20.417a1.746,1.746,0,0,0,1.744-1.744v-10.37h1.527v1.28a1.333,1.333,0,0,0,2.045,1.125l.931-.59v8.556a1.746,1.746,0,0,0,1.744,1.744H47.08a1.746,1.746,0,0,0,1.744-1.744v-10.6a.715.715,0,0,0-1.431,0v10.6a.314.314,0,0,1-.313.313H28.407a.314.314,0,0,1-.313-.313V116.88l3.412-2.163a1.332,1.332,0,0,0,0-2.249L28.094,110.3V99.69a.314.314,0,0,1,.313-.313h12.77v4.472a1.746,1.746,0,0,0,1.744,1.744h4.472V112.4A.715.715,0,0,0,48.109,113.117Zm-31.851-8.955a.314.314,0,0,1-.313-.313v-3.461l3.774,3.774Zm8.861,12.91v-1.339a1.193,1.193,0,0,0-1.192-1.192H18.561v-1.9h5.366a1.193,1.193,0,0,0,1.192-1.192v-1.338l5.489,3.48Zm17.8-12.91a.314.314,0,0,1-.313-.313v-3.461l3.774,3.774Z" transform="translate(0 -97.946)"/>
      </g>
    </g>
  </g>
</svg>
