<svg xmlns="http://www.w3.org/2000/svg" width="537.49" height="426.047" viewBox="0 0 537.49 426.047">
  <g id="Grupo_57777" data-name="Grupo 57777" transform="translate(-890.472 -154.953)">
    <g id="docker" transform="translate(975.425 154.953)">
      <path id="Trazado_103446" data-name="Trazado 103446" d="M144.031,72.016a74.382,74.382,0,1,1-.012-1.226C144.028,71.2,144.031,71.607,144.031,72.016Z" fill="#1565c0"/>
      <g id="Grupo_57775" data-name="Grupo 57775" transform="translate(15.288 28.627)">
        <path id="Trazado_103447" data-name="Trazado 103447" d="M183.078,188.953c-6.149,7.49-18.2,6.9-18.2,6.9-7.431,32.013-52.307,48.306-83.465,40.3S54.546,191,54.546,191H145.73c7.525,0,8.1-2.287,8.1-2.287-6.67-15.817,3.621-24.3,3.621-24.3,8,1.432,10,15.15,10,15.15a26.706,26.706,0,0,1,15.073,1.573A71.4,71.4,0,0,1,183.078,188.953Z" transform="translate(-54.347 -146.79)" fill="#f2f2f2"/>
        <rect id="Rectángulo_7084" data-name="Rectángulo 7084" width="12.769" height="11.624" transform="translate(9.917 29.726)" fill="#f2f2f2"/>
        <rect id="Rectángulo_7085" data-name="Rectángulo 7085" width="12.769" height="11.624" transform="translate(25.963 29.726)" fill="#f2f2f2"/>
        <rect id="Rectángulo_7086" data-name="Rectángulo 7086" width="12.769" height="11.624" transform="translate(74.096 29.726)" fill="#f2f2f2"/>
        <rect id="Rectángulo_7087" data-name="Rectángulo 7087" width="12.769" height="11.624" transform="translate(58.053 29.726)" fill="#f2f2f2"/>
        <rect id="Rectángulo_7088" data-name="Rectángulo 7088" width="12.769" height="11.624" transform="translate(58.053)" fill="#f2f2f2"/>
        <rect id="Rectángulo_7089" data-name="Rectángulo 7089" width="12.769" height="11.624" transform="translate(42.007 29.726)" fill="#f2f2f2"/>
        <rect id="Rectángulo_7090" data-name="Rectángulo 7090" width="12.769" height="11.624" transform="translate(25.963 14.862)" fill="#f2f2f2"/>
        <rect id="Rectángulo_7091" data-name="Rectángulo 7091" width="12.769" height="11.624" transform="translate(58.053 14.862)" fill="#f2f2f2"/>
        <rect id="Rectángulo_7092" data-name="Rectángulo 7092" width="12.769" height="11.624" transform="translate(42.007 14.862)" fill="#f2f2f2"/>
      </g>
    </g>
    <g id="Grupo_57776" data-name="Grupo 57776" transform="translate(0 1)">
      <text id="_" data-name="&lt;/&gt;" transform="translate(1040.04 405.483)" fill="#21214b" font-size="24" font-family="Montserrat-Black, Montserrat" font-weight="800"><tspan x="0" y="0">&lt;/&gt;</tspan></text>
      <g id="Grupo_57724" data-name="Grupo 57724" transform="translate(967.311 247.626)">
        <path id="Trazado_103371" data-name="Trazado 103371" d="M461.438,219.329c-1.432,31.361-32.26,55.393-55.351,56.843-30.511,1.918-52.314-25.6-55.352-56.843-2.632-27.07,6.981-26.667,14.141-37.95,8.675-13.671,24.842-21.226,41.211-21.226C436.656,160.154,463.365,177.135,461.438,219.329Z" transform="translate(-241.013 -150.595)" fill="#21214b"/>
        <rect id="Rectángulo_6992" data-name="Rectángulo 6992" width="42.903" height="53.71" transform="translate(143.622 122.65)" fill="#e3b5aa"/>
        <g id="Grupo_57717" data-name="Grupo 57717" transform="translate(209.26 82.618)">
          <g id="Grupo_57716" data-name="Grupo 57716">
            <path id="Trazado_103372" data-name="Trazado 103372" d="M458.434,244.953c7.654-11.613,17.39-12.122,21.456,1.612s-9.354,25.037-20.28,20.867S458.434,244.953,458.434,244.953Z" transform="translate(-454.429 -236.249)" fill="#e3b5aa"/>
            <path id="Trazado_103373" data-name="Trazado 103373" d="M467.865,245.629c5.126-.938,7.753,14.335-3.489,14.839l2.312-5.33-2.17-4.433Z" transform="translate(-454.826 -236.622)" fill="#d78f97"/>
            <path id="Trazado_103374" data-name="Trazado 103374" d="M462.625,262.5c6.553-6.984,1.823-11.856,1.823-11.856s6.237-12.792,8.737-2.988" transform="translate(-454.756 -236.557)" fill="none" stroke="#c87e84" stroke-miterlimit="10" stroke-width="0.5"/>
          </g>
        </g>
        <g id="Grupo_57719" data-name="Grupo 57719" transform="translate(94.323 82.618)">
          <g id="Grupo_57718" data-name="Grupo 57718">
            <path id="Trazado_103375" data-name="Trazado 103375" d="M356.915,244.953c-7.654-11.613-17.39-12.122-21.456,1.612s9.353,25.037,20.28,20.867S356.915,244.953,356.915,244.953Z" transform="translate(-334.715 -236.249)" fill="#e3b5aa"/>
            <path id="Trazado_103376" data-name="Trazado 103376" d="M348.245,245.629c-5.126-.938-7.753,14.335,3.489,14.839l-2.312-5.33,2.17-4.433Z" transform="translate(-335.079 -236.622)" fill="#d78f97"/>
            <path id="Trazado_103377" data-name="Trazado 103377" d="M353.374,262.5c-6.553-6.984-1.823-11.856-1.823-11.856s-6.238-12.792-8.737-2.988" transform="translate(-335.038 -236.557)" fill="none" stroke="#c87e84" stroke-miterlimit="10" stroke-width="0.5"/>
          </g>
        </g>
        <path id="Trazado_103378" data-name="Trazado 103378" d="M428.966,279.182v19.981c-15.417,20.892-42.9,14.1-42.9,14.1l.481-34.08Z" transform="translate(-242.441 -155.345)" fill="#c87e84"/>
        <path id="Rectángulo_6993" data-name="Rectángulo 6993" d="M31.321,0h30.1A31.321,31.321,0,0,1,92.745,31.321V65.208a46.373,46.373,0,0,1-46.373,46.373h0A46.373,46.373,0,0,1,0,65.208V31.321A31.321,31.321,0,0,1,31.321,0Z" transform="translate(118.7 35.151)" fill="#e3b5aa"/>
        <path id="Trazado_103379" data-name="Trazado 103379" d="M415.244,261.043a7.135,7.135,0,0,1-14.27,0" transform="translate(-243.036 -154.621)" fill="none" stroke="#b83d5d" stroke-miterlimit="10" stroke-width="1"/>
        <path id="Trazado_103380" data-name="Trazado 103380" d="M365.08,187.917s-8.122-13.463,2.051-25.334C367.131,162.583,374.44,176.116,365.08,187.917Z" transform="translate(-241.481 -150.692)" fill="#21214b"/>
        <path id="Trazado_103381" data-name="Trazado 103381" d="M368.459,185.55s-11.31,10.922-25.152,3.656C343.307,189.206,354.867,179.061,368.459,185.55Z" transform="translate(-240.735 -151.522)" fill="#21214b"/>
        <path id="Trazado_103382" data-name="Trazado 103382" d="M388.922,243.417c0,3.835-1.633,6.942-3.648,6.942s-3.647-3.108-3.647-6.942,1.633-6.942,3.647-6.942S388.922,239.584,388.922,243.417Z" transform="translate(-242.264 -153.641)" fill="#21214b"/>
        <ellipse id="Elipse_1543" data-name="Elipse 1543" cx="18.648" cy="18.648" rx="18.648" ry="18.648" transform="translate(118.239 102.367) rotate(-74.8)" fill="none" stroke="#fff" stroke-miterlimit="10" stroke-width="4"/>
        <path id="Trazado_103383" data-name="Trazado 103383" d="M434.881,243.417c0,3.835-1.633,6.942-3.647,6.942s-3.648-3.108-3.648-6.942,1.633-6.942,3.648-6.942S434.881,239.584,434.881,243.417Z" transform="translate(-244.098 -153.641)" fill="#21214b"/>
        <ellipse id="Elipse_1544" data-name="Elipse 1544" cx="18.648" cy="18.648" rx="18.648" ry="18.648" transform="translate(166.072 102.254) rotate(-74.518)" fill="none" stroke="#fff" stroke-miterlimit="10" stroke-width="4"/>
        <path id="Trazado_103384" data-name="Trazado 103384" d="M366.091,199.407s29.46-15.53,49.036-4.274,21.778,34.5,41.109,28.486c0,0,14.682-6.463-1.469-28.976s-27.2-26.916-48.224-22.023S371.838,181.32,366.091,199.407Z" transform="translate(-241.644 -151.021)" fill="#21214b"/>
        <path id="Trazado_103385" data-name="Trazado 103385" d="M364.918,199.665s9.725-12.894,23.337-16.3S416.923,196.7,416.923,196.7,382.046,191.725,364.918,199.665Z" transform="translate(-241.597 -151.503)" fill="#10102b"/>
        <path id="Trazado_103386" data-name="Trazado 103386" d="M360.09,217.255s3.281,23.93,0,38.534C360.09,255.789,355.3,218.683,360.09,217.255Z" transform="translate(-241.319 -152.874)" fill="#21214b"/>
        <path id="Trazado_103387" data-name="Trazado 103387" d="M456.294,217.255s-3.281,23.93,0,38.534C456.294,255.789,461.089,218.683,456.294,217.255Z" transform="translate(-245.186 -152.874)" fill="#21214b"/>
        <path id="Trazado_103388" data-name="Trazado 103388" d="M393.12,215.2c-5.06-2.422-14.06-5.082-22.4.858a1.945,1.945,0,0,0,.825,3.487,62.489,62.489,0,0,0,10.857.911,46.059,46.059,0,0,0,10.357-1.621A1.945,1.945,0,0,0,393.12,215.2Z" transform="translate(-241.797 -152.682)" fill="#21214b"/>
        <path id="Trazado_103389" data-name="Trazado 103389" d="M444.016,215.2c-5.061-2.422-14.061-5.082-22.4.858a1.945,1.945,0,0,0,.825,3.487,62.49,62.49,0,0,0,10.857.911,46.067,46.067,0,0,0,10.357-1.621A1.946,1.946,0,0,0,444.016,215.2Z" transform="translate(-243.828 -152.682)" fill="#21214b"/>
        <g id="Grupo_57721" data-name="Grupo 57721" transform="translate(147.272 119.003)">
          <g id="Grupo_57720" data-name="Grupo 57720">
            <path id="Trazado_103390" data-name="Trazado 103390" d="M423.351,278.316a15.357,15.357,0,0,1-1.828,2.649c-2.479,2.984-6.688,5.85-13.9,5.983l-.011.031-.529-.01-.02-.043c-6.761-.133-10.928-2.678-13.441-5.486a15.1,15.1,0,0,1-2.242-3.173,15.67,15.67,0,0,1-1.515-4.12l35.016.066A14.3,14.3,0,0,1,423.351,278.316Z" transform="translate(-389.865 -274.147)" fill="#c33e5d"/>
          </g>
          <path id="Trazado_103391" data-name="Trazado 103391" d="M423.351,278.316a15.357,15.357,0,0,1-1.828,2.649,32.944,32.944,0,0,0-27.9.475,15.1,15.1,0,0,1-2.242-3.173,15.67,15.67,0,0,1-1.515-4.12l35.016.066A14.3,14.3,0,0,1,423.351,278.316Z" transform="translate(-389.865 -274.147)" fill="#21214b"/>
        </g>
        <path id="Trazado_103392" data-name="Trazado 103392" d="M550.383,467.071l-313.912.326s5.857-12.251,14.286-28.486c.624-1.2,1.267-2.428,1.92-3.677,11.511-21.956,27-49.694,39.085-64.739,13.921-17.319,46.814-29.667,69.155-36.416,13.019-3.926,22.447-5.952,22.447-5.952h36.061s8.468,1.814,20.431,5.357c22.322,6.595,55.695,20.132,71.172,37.011a82.609,82.609,0,0,1,9.591,13.164C539.668,415.312,550.383,467.071,550.383,467.071Z" transform="translate(-236.471 -157.298)" fill="#ffca28"/>
        <path id="Trazado_103393" data-name="Trazado 103393" d="M550.383,469.379l-313.912.326s5.857-12.251,14.286-28.486c156.65,46.048,239.2-29.415,258.037-49.843a16.643,16.643,0,0,1,11.75-5.407l.076,0C539.668,417.62,550.383,469.379,550.383,469.379Z" transform="translate(-236.471 -159.606)" fill="#ffa726" opacity="0.5"/>
        <line id="Línea_109" data-name="Línea 109" x2="9.85" transform="translate(160.147 92.432)" fill="none" stroke="#fff" stroke-miterlimit="10" stroke-width="4"/>
        <path id="Trazado_103394" data-name="Trazado 103394" d="M445.029,333.479c-38.858,42.754-78.938.6-78.938.6,13.02-3.934,22.451-5.961,22.451-5.961H424.6S433.068,329.942,445.029,333.479Z" transform="translate(-241.644 -157.298)" fill="#e3b5aa"/>
        <g id="Grupo_57722" data-name="Grupo 57722" transform="translate(66.184 261.4)">
          <line id="Línea_110" data-name="Línea 110" y2="48.757" transform="translate(13.092)" fill="none" stroke="#dc831e" stroke-miterlimit="10" stroke-width="3"/>
          <line id="Línea_111" data-name="Línea 111" x1="13.092" y1="16.692" transform="translate(0 14.384)" fill="none" stroke="#dc831e" stroke-miterlimit="10" stroke-width="3"/>
        </g>
        <g id="Grupo_57723" data-name="Grupo 57723" transform="translate(249.982 261.4)">
          <line id="Línea_112" data-name="Línea 112" y2="48.757" fill="none" stroke="#dc831e" stroke-miterlimit="10" stroke-width="3"/>
          <line id="Línea_113" data-name="Línea 113" y1="14.821" x2="11.624" transform="translate(0 16.255)" fill="none" stroke="#dc831e" stroke-miterlimit="10" stroke-width="3"/>
        </g>
        <path id="Trazado_103395" data-name="Trazado 103395" d="M364.153,353.591s48.181,32.9,80.8-1.6" transform="translate(-241.567 -158.251)" fill="none" stroke="#dc831e" stroke-miterlimit="10" stroke-width="3"/>
        <path id="Trazado_103396" data-name="Trazado 103396" d="M364.914,178.419c10.818-45.469,119.2-40.466,99.032,48.061-6.041,26.519-50.213-60.28-88.336-38.986a7.494,7.494,0,0,1-8.783-1.051h0C364.639,184.394,364.22,181.337,364.914,178.419Z" transform="translate(-241.585 -150.198)" fill="#21214b"/>
      </g>
      <g id="Grupo_57726" data-name="Grupo 57726" transform="translate(896.782 441.555)">
        <g id="Grupo_57725" data-name="Grupo 57725">
          <path id="Trazado_103397" data-name="Trazado 103397" d="M416.4,468.061a.347.347,0,0,1-.106.019,7.515,7.515,0,0,1-.8.037H205.245a8.846,8.846,0,0,1-8.833-8.841l-.029-.1-32.739-92.506a10.86,10.86,0,0,1,10.235-14.488H310.385a10.862,10.862,0,0,1,10.244,7.24L355.913,459.1l.058.173H415.7C421.18,459.276,421.785,467.474,416.4,468.061Z" transform="translate(-163.011 -352.186)" fill="#1fa4b5"/>
          <ellipse id="Elipse_1545" data-name="Elipse 1545" cx="15.829" cy="19.219" rx="15.829" ry="19.219" transform="translate(60.403 47.966) rotate(-18.978)" fill="#4dd0e1"/>
          <path id="Trazado_103398" data-name="Trazado 103398" d="M421.636,459.274H361.9s-.016-.061-.052-.173l-35.288-99.678a10.858,10.858,0,0,0-10.241-7.234h-4.564s10.2.665,12.749,9.793,37.4,105.943,37.4,105.943l2.576.19h56.948c.276,0,.544-.009.8-.035C427.728,467.58,427.15,459.274,421.636,459.274Z" transform="translate(-168.948 -352.186)" fill="#4b7195"/>
        </g>
        <path id="Trazado_103399" data-name="Trazado 103399" d="M417.867,468.061a.347.347,0,0,1-.106.019,7.514,7.514,0,0,1-.8.037H206.714a8.8,8.8,0,0,1-6.9-3.331c124.274,10.675,112.043-112.6,112.043-112.6a10.862,10.862,0,0,1,10.244,7.24L357.381,459.1l.058.173h58.786C416.859,462.184,417.416,465.113,417.867,468.061Z" transform="translate(-164.48 -352.186)" fill="#178491" opacity="0.969"/>
      </g>
      <g id="Grupo_57736" data-name="Grupo 57736" transform="translate(890.472 557.958)">
        <path id="Trazado_103410" data-name="Trazado 103410" d="M575.721,483.464v1.827A10.113,10.113,0,0,1,565.606,495.4H48.346a10.121,10.121,0,0,1-9.791-7.554.028.028,0,0,0-.008-.023,10.32,10.32,0,0,1-.316-2.531v-1.827a10.107,10.107,0,0,1,10.115-10.108h517.26A10.112,10.112,0,0,1,575.721,483.464Z" transform="translate(-38.231 -473.356)" fill="#21214b"/>
        <path id="Trazado_103411" data-name="Trazado 103411" d="M575.721,483.464v1.827A10.113,10.113,0,0,1,565.606,495.4H48.346a10.121,10.121,0,0,1-9.791-7.554.028.028,0,0,0-.008-.023c-.214-1.622-.316-2.531-.316-2.531,290.054,10.107,527.375-11.935,527.375-11.935A10.112,10.112,0,0,1,575.721,483.464Z" transform="translate(-38.231 -473.356)" fill="#134279"/>
      </g>
      <g id="Grupo_57738" data-name="Grupo 57738" transform="translate(1321.084 209.897)">
        <path id="Trazado_103412" data-name="Trazado 103412" d="M699.87,134.74c0-.08.01-.15.01-.23s-.01-.15-.01-.22a27.155,27.155,0,0,0,3.447-1.878,28.307,28.307,0,0,0,3.607-2.918l-.25-.979a25.14,25.14,0,0,0-1.059-3.247c-.22-.519-.48-1.029-.73-1.539a10.418,10.418,0,0,0-.819-1.5l-.519-.859a26.4,26.4,0,0,0-4.606.48,24.409,24.409,0,0,0-3.757,1.109l-.32-.32a24.856,24.856,0,0,0,1.1-3.757,25.6,25.6,0,0,0,.49-4.607l-.859-.519a10.866,10.866,0,0,0-1.5-.819c-.51-.251-1.02-.51-1.55-.73a24.806,24.806,0,0,0-3.237-1.059l-.978-.251a27.739,27.739,0,0,0-2.919,3.607,26.029,26.029,0,0,0-1.878,3.448c-.07,0-.15-.02-.22-.02s-.15.02-.229.02a24.765,24.765,0,0,0-1.879-3.448A27.465,27.465,0,0,0,678.3,110.9l-.979.251a24.467,24.467,0,0,0-3.247,1.059c-.519.22-1.029.479-1.55.73a11.452,11.452,0,0,0-1.5.819l-.859.519a27.457,27.457,0,0,0,.491,4.607,24.663,24.663,0,0,0,1.109,3.757c-.11.109-.221.209-.32.32a24.744,24.744,0,0,0-3.758-1.109,26.5,26.5,0,0,0-4.606-.48l-.53.859a12.732,12.732,0,0,0-.819,1.5c-.24.51-.5,1.02-.72,1.539a23.608,23.608,0,0,0-1.058,3.247l-.251.979a27.65,27.65,0,0,0,3.607,2.918,26.423,26.423,0,0,0,3.437,1.878c0,.07-.01.14-.01.22s.01.151.01.23a25.329,25.329,0,0,0-3.437,1.878,27.563,27.563,0,0,0-3.607,2.908l.251.979a23.65,23.65,0,0,0,1.058,3.247c.221.519.48,1.029.72,1.549a13.413,13.413,0,0,0,.819,1.489l.53.859a26.589,26.589,0,0,0,4.606-.48,24.849,24.849,0,0,0,3.758-1.109c.1.109.209.22.32.32a24.631,24.631,0,0,0-1.109,3.757,27.566,27.566,0,0,0-.491,4.607l.859.529a12.781,12.781,0,0,0,1.5.809c.52.25,1.03.51,1.55.73a23.269,23.269,0,0,0,3.247,1.059l.979.25a27.464,27.464,0,0,0,2.907-3.607,24.81,24.81,0,0,0,1.879-3.447,1.853,1.853,0,0,0,.229.02,1.7,1.7,0,0,0,.22-.02,26.079,26.079,0,0,0,1.878,3.447,27.739,27.739,0,0,0,2.919,3.607l.978-.25a23.569,23.569,0,0,0,3.237-1.059c.53-.22,1.04-.48,1.55-.73a12.058,12.058,0,0,0,1.5-.809l.859-.529a25.7,25.7,0,0,0-.49-4.607,24.824,24.824,0,0,0-1.1-3.757c.109-.1.21-.21.32-.32a24.512,24.512,0,0,0,3.757,1.109,26.491,26.491,0,0,0,4.606.48l.519-.859a10.851,10.851,0,0,0,.819-1.489c.25-.519.51-1.029.73-1.549a25.188,25.188,0,0,0,1.059-3.247l.25-.979a28.216,28.216,0,0,0-3.607-2.908A26.005,26.005,0,0,0,699.87,134.74Zm-16.557,7.693a7.923,7.923,0,1,1,7.924-7.924A7.923,7.923,0,0,1,683.314,142.433Z" transform="translate(-607.136 -110.899)" fill="#ffca28"/>
        <path id="Trazado_103413" data-name="Trazado 103413" d="M658.416,148.229H604.951v52.653H619.8" transform="translate(-604.951 -112.389)" fill="none" stroke="#fd783d" stroke-miterlimit="10" stroke-width="1" stroke-dasharray="4"/>
        <g id="Grupo_57737" data-name="Grupo 57737" transform="translate(16.118 116.676)">
          <rect id="Rectángulo_7002" data-name="Rectángulo 7002" width="29.393" height="5.253" fill="#fff"/>
          <rect id="Rectángulo_7003" data-name="Rectángulo 7003" width="45.189" height="5.253" transform="translate(0 9.719)" fill="#fff"/>
          <rect id="Rectángulo_7004" data-name="Rectángulo 7004" width="15.391" height="5.253" transform="translate(0 19.438)" fill="#fff"/>
          <rect id="Rectángulo_7005" data-name="Rectángulo 7005" width="15.391" height="5.253" transform="translate(21.673 19.438)" fill="#ffca28"/>
          <rect id="Rectángulo_7006" data-name="Rectángulo 7006" width="22.102" height="5.253" transform="translate(42.572 19.438)" fill="#ffca28"/>
          <rect id="Rectángulo_7007" data-name="Rectángulo 7007" width="13.422" height="5.253" transform="translate(51.252 9.719)" fill="#ffca28"/>
          <rect id="Rectángulo_7008" data-name="Rectángulo 7008" width="29.393" height="5.253" transform="translate(35.281)" fill="#ffca28"/>
        </g>
        <rect id="Rectángulo_7009" data-name="Rectángulo 7009" width="0.981" height="58.55" transform="translate(90.579 82.657)" fill="#fff"/>
      </g>
      <g id="Grupo_57739" data-name="Grupo 57739" transform="translate(1337.659 294.704)">
        <rect id="Rectángulo_7010" data-name="Rectángulo 7010" width="30.225" height="5.402" fill="#fff"/>
        <rect id="Rectángulo_7011" data-name="Rectángulo 7011" width="46.468" height="5.402" transform="translate(0 9.994)" fill="#fff"/>
        <rect id="Rectángulo_7012" data-name="Rectángulo 7012" width="15.827" height="5.402" transform="translate(0 19.988)" fill="#fff"/>
        <rect id="Rectángulo_7013" data-name="Rectángulo 7013" width="15.827" height="5.402" transform="translate(22.286 19.988)" fill="#ffca28"/>
        <rect id="Rectángulo_7014" data-name="Rectángulo 7014" width="22.727" height="5.402" transform="translate(43.777 19.988)" fill="#ffca28"/>
        <rect id="Rectángulo_7015" data-name="Rectángulo 7015" width="13.801" height="5.402" transform="translate(52.703 9.994)" fill="#ffca28"/>
        <rect id="Rectángulo_7016" data-name="Rectángulo 7016" width="30.225" height="5.402" transform="translate(36.279)" fill="#ffca28"/>
      </g>
      <g id="Grupo_57748" data-name="Grupo 57748" transform="translate(1212.751 166.661)">
        <g id="Grupo_57747" data-name="Grupo 57747" transform="translate(0 27.367)">
          <rect id="Rectángulo_7017" data-name="Rectángulo 7017" width="86.976" height="170.916" fill="#21214b"/>
          <rect id="Rectángulo_7018" data-name="Rectángulo 7018" width="65.301" height="6.936" transform="translate(9.908 36.351)" fill="#fff"/>
          <rect id="Rectángulo_7019" data-name="Rectángulo 7019" width="43.22" height="6.936" transform="translate(9.908 51.708)" fill="#fff"/>
          <rect id="Rectángulo_7020" data-name="Rectángulo 7020" width="15.663" height="6.936" transform="translate(59.547 51.708)" fill="#ffca28"/>
          <rect id="Rectángulo_7021" data-name="Rectángulo 7021" width="40.467" height="6.936" transform="translate(34.743 67.066)" fill="#ffca28"/>
          <rect id="Rectángulo_7022" data-name="Rectángulo 7022" width="18.952" height="6.936" transform="translate(9.908 67.066)" fill="#fff"/>
          <rect id="Rectángulo_7023" data-name="Rectángulo 7023" width="34.518" height="6.936" transform="translate(9.908 82.424)" fill="#fff"/>
          <rect id="Rectángulo_7024" data-name="Rectángulo 7024" width="25.468" height="6.936" transform="translate(49.742 82.424)" fill="#ffca28"/>
          <rect id="Rectángulo_7025" data-name="Rectángulo 7025" width="46.35" height="6.936" transform="translate(28.86 97.781)" fill="#ffca28"/>
          <rect id="Rectángulo_7026" data-name="Rectángulo 7026" width="14.011" height="6.936" transform="translate(9.908 97.781)" fill="#fff"/>
          <rect id="Rectángulo_7027" data-name="Rectángulo 7027" width="28.022" height="6.936" transform="translate(9.908 113.139)" fill="#fff"/>
          <rect id="Rectángulo_7028" data-name="Rectángulo 7028" width="32.651" height="6.936" transform="translate(42.559 113.139)" fill="#ffca28"/>
          <g id="Grupo_57743" data-name="Grupo 57743" transform="translate(45.813 146.089)">
            <g id="Grupo_57740" data-name="Grupo 57740" transform="translate(20.32 5.261)">
              <path id="Trazado_103414" data-name="Trazado 103414" d="M568.144,254.731v1.952L561,259.4v-1.877l5-1.816-5-1.832v-1.863Z" transform="translate(-560.996 -252.013)" fill="#ffca28"/>
            </g>
            <g id="Grupo_57741" data-name="Grupo 57741" transform="translate(0 5.261)">
              <path id="Trazado_103415" data-name="Trazado 103415" d="M546.979,252.013v1.863l-5,1.832,5,1.816V259.4l-7.148-2.718v-1.952Z" transform="translate(-539.831 -252.013)" fill="#ffca28"/>
            </g>
            <g id="Grupo_57742" data-name="Grupo 57742" transform="translate(10.289)">
              <path id="Trazado_103416" data-name="Trazado 103416" d="M555.855,246.533h2.236l-5.308,15.152h-2.235Z" transform="translate(-550.548 -246.533)" fill="#ffca28"/>
            </g>
          </g>
          <g id="Grupo_57746" data-name="Grupo 57746" transform="translate(13.871 17.122)">
            <g id="Grupo_57744" data-name="Grupo 57744" transform="translate(17.225)">
              <path id="Trazado_103417" data-name="Trazado 103417" d="M533.869,115.767v2.559l-9.367,3.561v-2.46l6.553-2.381-6.553-2.4V112.2Z" transform="translate(-524.502 -112.205)" fill="#ffca28"/>
            </g>
            <g id="Grupo_57745" data-name="Grupo 57745">
              <path id="Trazado_103418" data-name="Trazado 103418" d="M515.929,112.2v2.441l-6.554,2.4,6.554,2.381v2.46l-9.368-3.561v-2.559Z" transform="translate(-506.561 -112.205)" fill="#ffca28"/>
            </g>
          </g>
        </g>
      </g>
      <g id="Grupo_57770" data-name="Grupo 57770" transform="translate(1246.015 382.311)">
        <path id="Trazado_103432" data-name="Trazado 103432" d="M648.063,315.841c0-.068.009-.128.009-.2s-.009-.129-.009-.188a23.363,23.363,0,0,0,2.948-1.606,24.254,24.254,0,0,0,3.084-2.5l-.213-.837a21.363,21.363,0,0,0-.906-2.777c-.188-.445-.41-.88-.623-1.316a8.854,8.854,0,0,0-.7-1.282l-.445-.734a22.659,22.659,0,0,0-3.939.41,20.889,20.889,0,0,0-3.212.949l-.273-.274a21.352,21.352,0,0,0,.94-3.212,21.942,21.942,0,0,0,.419-3.939l-.735-.445a9.321,9.321,0,0,0-1.282-.7c-.436-.214-.871-.436-1.324-.624a21.339,21.339,0,0,0-2.768-.905l-.838-.214a23.757,23.757,0,0,0-2.5,3.085,22.282,22.282,0,0,0-1.606,2.948c-.06,0-.128-.017-.187-.017s-.129.017-.2.017a21.222,21.222,0,0,0-1.606-2.948,23.583,23.583,0,0,0-2.487-3.085l-.837.214a20.977,20.977,0,0,0-2.777.905c-.445.188-.88.41-1.325.624a9.91,9.91,0,0,0-1.282.7l-.734.445a23.526,23.526,0,0,0,.419,3.939,21.169,21.169,0,0,0,.949,3.212c-.094.094-.188.18-.274.274a21.119,21.119,0,0,0-3.213-.949,22.728,22.728,0,0,0-3.939-.41l-.452.734a10.753,10.753,0,0,0-.7,1.282c-.2.436-.427.872-.615,1.316a20.15,20.15,0,0,0-.905,2.777l-.213.837a23.662,23.662,0,0,0,3.084,2.5,22.743,22.743,0,0,0,2.939,1.606c0,.06-.008.119-.008.188s.008.128.008.2a21.754,21.754,0,0,0-2.939,1.606,23.586,23.586,0,0,0-3.084,2.487l.213.837a20.2,20.2,0,0,0,.905,2.778c.188.444.411.879.615,1.324a11.345,11.345,0,0,0,.7,1.273l.452.734a22.737,22.737,0,0,0,3.939-.41,21.126,21.126,0,0,0,3.213-.949c.085.094.179.188.274.274a21.17,21.17,0,0,0-.949,3.212,23.623,23.623,0,0,0-.419,3.939l.734.453a11.012,11.012,0,0,0,1.282.692c.444.213.88.435,1.325.623a19.775,19.775,0,0,0,2.777.905l.837.214a23.581,23.581,0,0,0,2.487-3.085,21.169,21.169,0,0,0,1.606-2.947,1.511,1.511,0,0,0,.2.017,1.372,1.372,0,0,0,.187-.017,22.224,22.224,0,0,0,1.606,2.947,23.755,23.755,0,0,0,2.5,3.085l.838-.214a20.09,20.09,0,0,0,2.768-.905c.453-.188.888-.41,1.324-.623a10.291,10.291,0,0,0,1.282-.692l.735-.453a22.026,22.026,0,0,0-.419-3.939,21.352,21.352,0,0,0-.94-3.212c.093-.085.179-.18.273-.274a20.9,20.9,0,0,0,3.212.949,22.668,22.668,0,0,0,3.939.41l.445-.734a9.236,9.236,0,0,0,.7-1.273c.213-.445.435-.88.623-1.324a21.424,21.424,0,0,0,.906-2.778l.213-.837a24.175,24.175,0,0,0-3.084-2.487A22.324,22.324,0,0,0,648.063,315.841Zm-14.158,6.579a6.776,6.776,0,1,1,6.775-6.775A6.775,6.775,0,0,1,633.906,322.42Z" transform="translate(-530.231 -290.678)" fill="#21214b"/>
      </g>
      <g id="Grupo_57774" data-name="Grupo 57774" transform="translate(1301.712 437.825)">
        <g id="Grupo_57771" data-name="Grupo 57771" transform="translate(0.004 33.603)">
          <path id="Trazado_103434" data-name="Trazado 103434" d="M622.211,431.18a25.646,25.646,0,0,1-15.851-3.728c-17.637-10.913-21.317-41.7-21.57-44.009.155.71,1.893,4.474,20.225,16.806q2.288,1.544,4.2,3.129s.022.018.065.051C625.254,416.659,622.211,431.18,622.211,431.18Z" transform="translate(-584.777 -383.308)" fill="#0c8068"/>
          <path id="Trazado_103435" data-name="Trazado 103435" d="M584.776,383.3s16.469,40.414,34.739,44.669" transform="translate(-584.776 -383.302)" fill="none" stroke="#0a6d53" stroke-miterlimit="10" stroke-width="1"/>
          <path id="Trazado_103436" data-name="Trazado 103436" d="M623.107,432.008a25.647,25.647,0,0,1-15.851-3.728c3.511-8.308,2.853-24.073,2.853-24.073s.022.018.065.051C626.151,417.488,623.107,432.008,623.107,432.008Z" transform="translate(-585.673 -384.136)" fill="#0a6d53" opacity="0.5"/>
        </g>
        <g id="Grupo_57772" data-name="Grupo 57772" transform="translate(46.073 35.988)">
          <path id="Trazado_103437" data-name="Trazado 103437" d="M670.938,385.786c-.069.43-.316,1.923-.808,4.121v.008c-2.6,11.653-11.994,43.009-37.263,39.866a20.286,20.286,0,0,1,.426-6.716c1.25-5.918,5.268-14.73,17.49-22.119C668.92,389.977,670.755,386.455,670.938,385.786Z" transform="translate(-632.76 -385.786)" fill="#0c8068"/>
          <path id="Trazado_103438" data-name="Trazado 103438" d="M670.209,388.379s-12.968,33.6-35.464,40.452" transform="translate(-632.839 -385.889)" fill="none" stroke="#0a6d53" stroke-miterlimit="10" stroke-width="1"/>
          <path id="Trazado_103439" data-name="Trazado 103439" d="M670.13,390.078v.008c-2.6,11.653-11.994,43.009-37.263,39.866a20.286,20.286,0,0,1,.426-6.716h.026C654.342,424.36,670.13,390.078,670.13,390.078Z" transform="translate(-632.76 -385.957)" fill="#0a6d53" opacity="0.5"/>
        </g>
        <g id="Grupo_57773" data-name="Grupo 57773" transform="translate(28.807)">
          <path id="Trazado_103440" data-name="Trazado 103440" d="M630.792,429.406c-.625,1.084-9.852-2.75-14.009-13.844h0c-2.5-6.665-3.162-15.95.963-28.356,10.836-32.585,6.37-38.727,6.238-38.9a39.6,39.6,0,0,1,15.708,16.155s.007.014.025.044C646.393,377.056,649,397.737,630.792,429.406Z" transform="translate(-614.777 -348.302)" fill="#159a7a"/>
          <path id="Trazado_103441" data-name="Trazado 103441" d="M624.358,348.3s14.132,17.83,8.75,51.742-1.934,29.362-1.934,29.362" transform="translate(-615.16 -348.302)" fill="none" stroke="#0c8068" stroke-miterlimit="10" stroke-width="1"/>
          <path id="Trazado_103442" data-name="Trazado 103442" d="M630.876,430.078c-.625,1.084-9.851-2.75-14.009-13.844,23.265,6.609,22.9-51.1,22.9-51.1s.007.014.025.044C646.476,377.728,649.083,398.409,630.876,430.078Z" transform="translate(-614.861 -348.974)" fill="#0c8068" opacity="0.5"/>
        </g>
        <path id="Trazado_103443" data-name="Trazado 103443" d="M584.774,383.3l.01.114A.3.3,0,0,1,584.774,383.3Z" transform="translate(-584.772 -349.699)" fill="#0c8068"/>
        <path id="Trazado_103444" data-name="Trazado 103444" d="M648.429,432.271v26.044a13.8,13.8,0,0,1-13.8,13.8H622.385a13.782,13.782,0,0,1-11.781-6.617h0a13.754,13.754,0,0,1-2.01-7.18V432.271Z" transform="translate(-585.723 -351.653)" fill="#ffa726"/>
        <rect id="Rectángulo_7083" data-name="Rectángulo 7083" width="44.768" height="3.379" rx="1.059" transform="translate(20.403 77.24)" fill="#eba154"/>
        <path id="Trazado_103445" data-name="Trazado 103445" d="M648.513,432.271v26.044a13.8,13.8,0,0,1-13.8,13.8H622.468a13.782,13.782,0,0,1-11.781-6.617c29.18,9.164,35.518-12.292,34.389-20.8s-11.638-12.422-11.638-12.422Z" transform="translate(-585.807 -351.653)" fill="#ffc064"/>
      </g>
    </g>
  </g>
</svg>
